<?plantuml 1.2026.1?><svg xmlns="http://www.w3.org/2000/svg" xmlns:xlink="http://www.w3.org/1999/xlink" contentStyleType="text/css" data-diagram-type="DESCRIPTION" height="948px" preserveAspectRatio="none" style="width:775px;height:948px;background:#FFFFFF;" version="1.1" viewBox="0 0 775 948" width="775px" zoomAndPan="magnify"><title>Clean Architecture &#8212; Layered Dependency Rule</title><defs/><g><g class="title" data-source-line="2"><text fill="#000000" font-family="sans-serif" font-size="14" font-weight="bold" lengthAdjust="spacing" textLength="376.6602" x="192.2915" y="22.9951">Clean Architecture &#8212; Layered Dependency Rule</text></g><!--cluster FW--><g class="cluster" data-qualified-name="FW" data-source-line="40" id="ent0002"><path d="M8.5,126.9269 L185.7373,126.9269 A3.75,3.75 0 0 1 188.2373,129.4269 L195.2373,149.2238 L413.5,149.2238 A2.5,2.5 0 0 1 416,151.7238 L416,276.3169 A2.5,2.5 0 0 1 413.5,278.8169 L8.5,278.8169 A2.5,2.5 0 0 1 6,276.3169 L6,129.4269 A2.5,2.5 0 0 1 8.5,126.9269" fill="none" style="stroke:#000000;stroke-width:1.5;"/><line style="stroke:#000000;stroke-width:1.5;" x1="6" x2="195.2373" y1="149.2238" y2="149.2238"/><text fill="#000000" font-family="sans-serif" font-size="14" font-weight="bold" lengthAdjust="spacing" textLength="176.2373" x="10" y="141.922">Frameworks &amp; Drivers</text><text fill="#000000" font-family="sans-serif" font-size="14" font-style="italic" lengthAdjust="spacing" textLength="44.3584" x="192.8208" y="164.2189">&#171;Red&#187;</text></g><!--cluster IA--><g class="cluster" data-qualified-name="IA" data-source-line="45" id="ent0005"><path d="M239.5,310.8169 L388.7236,310.8169 A3.75,3.75 0 0 1 391.2236,313.3169 L398.2236,333.1138 L406.5,333.1138 A2.5,2.5 0 0 1 409,335.6138 L409,460.5069 A2.5,2.5 0 0 1 406.5,463.0069 L239.5,463.0069 A2.5,2.5 0 0 1 237,460.5069 L237,313.3169 A2.5,2.5 0 0 1 239.5,310.8169" fill="none" style="stroke:#000000;stroke-width:1.5;"/><line style="stroke:#000000;stroke-width:1.5;" x1="237" x2="398.2236" y1="333.1138" y2="333.1138"/><text fill="#000000" font-family="sans-serif" font-size="14" font-weight="bold" lengthAdjust="spacing" textLength="148.2236" x="241" y="325.812">Interface Adapters</text><text fill="#000000" font-family="sans-serif" font-size="14" font-style="italic" lengthAdjust="spacing" textLength="59.835" x="297.0825" y="348.1089">&#171;Green&#187;</text></g><!--cluster UC--><g class="cluster" data-qualified-name="UC" data-source-line="49" id="ent0007"><path d="M145.5,495.0069 L226.4531,495.0069 A3.75,3.75 0 0 1 228.9531,497.5069 L235.9531,517.3038 L380.5,517.3038 A2.5,2.5 0 0 1 383,519.8038 L383,644.3969 A2.5,2.5 0 0 1 380.5,646.8969 L145.5,646.8969 A2.5,2.5 0 0 1 143,644.3969 L143,497.5069 A2.5,2.5 0 0 1 145.5,495.0069" fill="none" style="stroke:#000000;stroke-width:1.5;"/><line style="stroke:#000000;stroke-width:1.5;" x1="143" x2="235.9531" y1="517.3038" y2="517.3038"/><text fill="#000000" font-family="sans-serif" font-size="14" font-weight="bold" lengthAdjust="spacing" textLength="79.9531" x="147" y="510.002">Use Cases</text><text fill="#000000" font-family="sans-serif" font-size="14" font-style="italic" lengthAdjust="spacing" textLength="43.1348" x="245.4326" y="532.2989">&#171;Tan&#187;</text></g><!--cluster Ent--><g class="cluster" data-qualified-name="Ent" data-source-line="53" id="ent0009"><path d="M156.5,678.8969 L217.8408,678.8969 A3.75,3.75 0 0 1 220.3408,681.3969 L227.3408,701.1938 L389.5,701.1938 A2.5,2.5 0 0 1 392,703.6938 L392,812.2869 A2.5,2.5 0 0 1 389.5,814.7869 L156.5,814.7869 A2.5,2.5 0 0 1 154,812.2869 L154,681.3969 A2.5,2.5 0 0 1 156.5,678.8969" fill="none" style="stroke:#000000;stroke-width:1.5;"/><line style="stroke:#000000;stroke-width:1.5;" x1="154" x2="227.3408" y1="701.1938" y2="701.1938"/><text fill="#000000" font-family="sans-serif" font-size="14" font-weight="bold" lengthAdjust="spacing" textLength="60.3408" x="158" y="693.892">Entities</text><text fill="#000000" font-family="sans-serif" font-size="14" font-style="italic" lengthAdjust="spacing" textLength="48.1113" x="252.9443" y="716.1889">&#171;Blue&#187;</text></g><!--entity Ctrl--><g class="entity" data-qualified-name="FW.Ctrl" data-source-line="41" id="ent0003"><rect fill="#F1F1F1" height="68.8906" rx="4" ry="4" style="stroke:#000000;stroke-width:3;" width="138.5146" x="253.74" y="185.9269"/><text fill="#000000" font-family="sans-serif" font-size="14" lengthAdjust="spacing" textLength="76.4668" x="263.74" y="208.922">Controllers</text><text fill="#000000" font-family="sans-serif" font-size="14" lengthAdjust="spacing" textLength="118.5146" x="263.74" y="225.2189">(RestControllers)</text><text fill="#000000" font-family="sans-serif" font-size="14" lengthAdjust="spacing" textLength="74.7441" x="263.74" y="241.5157">Presenters</text></g><!--entity Ext--><g class="entity" data-qualified-name="FW.Ext" data-source-line="42" id="ent0004"><rect fill="#F1F1F1" height="52.5938" rx="4" ry="4" style="stroke:#000000;stroke-width:3;" width="169.9736" x="49.01" y="194.0769"/><text fill="#000000" font-family="sans-serif" font-size="14" lengthAdjust="spacing" textLength="121.8164" x="59.01" y="217.072">External Services</text><text fill="#000000" font-family="sans-serif" font-size="14" lengthAdjust="spacing" textLength="149.9736" x="59.01" y="233.3689">(RabbitMQ, AWS, DB)</text></g><!--entity Gate--><g class="entity" data-qualified-name="IA.Gate" data-source-line="46" id="ent0006"><rect fill="#F1F1F1" height="85.1875" rx="4" ry="4" style="stroke:#000000;stroke-width:3;" width="139.5605" x="253.22" y="361.8169"/><text fill="#000000" font-family="sans-serif" font-size="14" lengthAdjust="spacing" textLength="69.1387" x="263.22" y="384.812">Gateways</text><text fill="#000000" font-family="sans-serif" font-size="14" lengthAdjust="spacing" textLength="116.5391" x="263.22" y="401.1089">(RepositoryImpl)</text><text fill="#000000" font-family="sans-serif" font-size="14" lengthAdjust="spacing" textLength="60.0947" x="263.22" y="417.4057">Mappers</text><text fill="#000000" font-family="sans-serif" font-size="14" lengthAdjust="spacing" textLength="119.5605" x="263.22" y="433.7026">(DTO &lt;-&gt; Entity)</text></g><!--entity Inter--><g class="entity" data-qualified-name="UC.Inter" data-source-line="50" id="ent0008"><rect fill="#F1F1F1" height="68.8906" rx="4" ry="4" style="stroke:#000000;stroke-width:3;" width="172.6328" x="186.68" y="554.0069"/><text fill="#000000" font-family="sans-serif" font-size="14" lengthAdjust="spacing" textLength="76.2412" x="196.68" y="577.002">Interactors</text><text fill="#000000" font-family="sans-serif" font-size="14" lengthAdjust="spacing" textLength="152.6328" x="196.68" y="593.2989">(Application Services)</text><text fill="#000000" font-family="sans-serif" font-size="14" lengthAdjust="spacing" textLength="129.5957" x="196.68" y="609.5957">Input/Output Ports</text></g><!--entity EntRules--><g class="entity" data-qualified-name="Ent.EntRules" data-source-line="54" id="ent0010"><rect fill="#F1F1F1" height="68.8906" rx="4" ry="4" style="stroke:#000000;stroke-width:3;" width="206.3545" x="169.82" y="729.8969"/><text fill="#000000" font-family="sans-serif" font-size="14" lengthAdjust="spacing" textLength="181.0498" x="179.82" y="752.892">Enterprise Business Rules</text><text fill="#000000" font-family="sans-serif" font-size="14" lengthAdjust="spacing" textLength="108.1035" x="179.82" y="769.1889">Domain Models</text><text fill="#000000" font-family="sans-serif" font-size="14" lengthAdjust="spacing" textLength="186.3545" x="179.82" y="785.4857">Aggregates, Value Objects</text></g><g class="entity" data-qualified-name="GMN14" data-source-line="63" id="ent0015"><path d="M411.41,744.2069 L411.41,760.3369 L376.44,764.3369 L411.41,768.3369 L411.41,784.4725 A0,0 0 0 0 411.41,784.4725 L716.5882,784.4725 A0,0 0 0 0 716.5882,784.4725 L716.5882,754.2069 L706.5882,744.2069 L411.41,744.2069 A0,0 0 0 0 411.41,744.2069" fill="#FEFFDD" style="stroke:#181818;stroke-width:0.5;"/><path d="M706.5882,744.2069 L706.5882,754.2069 L716.5882,754.2069 L706.5882,744.2069" fill="#FEFFDD" style="stroke:#181818;stroke-width:0.5;"/><text fill="#000000" font-family="sans-serif" font-size="13" font-weight="bold" lengthAdjust="spacing" textLength="84.4873" x="417.41" y="761.2738">Inner Circle</text><text fill="#000000" font-family="sans-serif" font-size="13" lengthAdjust="spacing" textLength="138.2139" x="506.0296" y="761.2738">&#8212; Pure domain logic.</text><text fill="#000000" font-family="sans-serif" font-size="13" lengthAdjust="spacing" textLength="284.1782" x="417.41" y="776.4066">No dependencies on frameworks, DB, or UI.</text></g><g class="entity" data-qualified-name="GMN17" data-source-line="68" id="ent0018"><path d="M439.75,200.2369 L439.75,240.5025 L768.2432,240.5025 L768.2432,210.2369 L758.2432,200.2369 L439.75,200.2369" fill="#FEFFDD" style="stroke:#181818;stroke-width:0.5;"/><path d="M758.2432,200.2369 L758.2432,210.2369 L768.2432,210.2369 L758.2432,200.2369" fill="#FEFFDD" style="stroke:#181818;stroke-width:1;"/><text fill="#000000" font-family="sans-serif" font-size="13" font-weight="bold" lengthAdjust="spacing" textLength="87.6611" x="445.75" y="217.3038">Outer Circle</text><text fill="#000000" font-family="sans-serif" font-size="13" lengthAdjust="spacing" textLength="215.6997" x="537.5435" y="217.3038">&#8212; Framework-specific glue code.</text><text fill="#000000" font-family="sans-serif" font-size="13" lengthAdjust="spacing" textLength="200.605" x="445.75" y="232.4366">All dependencies point inward.</text></g><g class="entity" data-qualified-name="N1" data-source-line="72" id="ent0020"><path d="M21.85,376.7169 L21.85,432.1153 L218.1596,432.1153 L218.1596,386.7169 L208.1596,376.7169 L21.85,376.7169" fill="#FEFFDD" style="stroke:#181818;stroke-width:0.5;"/><path d="M208.1596,376.7169 L208.1596,386.7169 L218.1596,386.7169 L208.1596,376.7169" fill="#FEFFDD" style="stroke:#181818;stroke-width:1;"/><text fill="#000000" font-family="sans-serif" font-size="13" lengthAdjust="spacing" textLength="147.5322" x="27.85" y="393.7838">The Dependency Rule:</text><text fill="#000000" font-family="sans-serif" font-size="13" lengthAdjust="spacing" textLength="175.3096" x="27.85" y="408.9166">Source code dependencies</text><text fill="#000000" font-family="sans-serif" font-size="13" lengthAdjust="spacing" textLength="155.7207" x="27.85" y="424.0494">may only point INWARD</text></g><!--link Ctrl to Gate--><g class="link" data-entity-1="ent0003" data-entity-2="ent0006" data-link-type="dependency" data-source-line="58" id="lnk11"><path d="M323,255.1869 C323,285.2069 323,323.1969 323,355.4569" fill="none" id="Ctrl-to-Gate" style="stroke:#000000;stroke-width:2;"/><polygon fill="#000000" points="323,361.4569,327,352.4569,323,356.4569,319,352.4569,323,361.4569" style="stroke:#000000;stroke-width:2;"/></g><!--link Gate to Inter--><g class="link" data-entity-1="ent0006" data-entity-2="ent0008" data-link-type="dependency" data-source-line="59" id="lnk12"><path d="M311.53,447.1769 C302.65,479.5069 292.0983,517.9109 283.8383,548.0009" fill="none" id="Gate-to-Inter" style="stroke:#000000;stroke-width:2;"/><polygon fill="#000000" points="282.25,553.7869,288.4898,546.1668,283.5736,548.9652,280.7751,544.0491,282.25,553.7869" style="stroke:#000000;stroke-width:2;"/></g><!--link Inter to EntRules--><g class="link" data-entity-1="ent0008" data-entity-2="ent0010" data-link-type="dependency" data-source-line="60" id="lnk13"><path d="M273,623.3869 C273,654.0269 273,692.8769 273,723.4869" fill="none" id="Inter-to-EntRules" style="stroke:#000000;stroke-width:2;"/><polygon fill="#000000" points="273,729.4869,277,720.4869,273,724.4869,269,720.4869,273,729.4869" style="stroke:#000000;stroke-width:2;"/></g><!--link FW to GMN17--><g class="link" data-entity-1="ent0002" data-entity-2="ent0018" data-link-type="association" data-source-line="68" id="lnk19"><path d="M17.6082,126.768 C17.6766,126.5403 17.7457,126.3129 17.8155,126.0857 C17.9549,125.6314 18.0969,125.1781 18.2415,124.726 C19.3983,121.1095 20.7208,117.5677 22.2289,114.1394 C28.2613,100.4262 37.2625,88.5294 50.5,80.9269 C116.02,43.2969 318.08,59.3769 390.5,80.9269 C469.21,104.3569 545.95,167.0469 582.25,199.7969" fill="none" id="FW-GMN17" style="stroke:#000000;stroke-width:2;stroke-dasharray:7,7;"/></g><!--link N1 to UC--><g class="link" data-entity-1="ent0020" data-entity-2="ent0007" data-link-type="association" data-source-line="73" id="lnk21"><path d="M124.57,432.2769 C128.815,457.1969 135.285,495.1769 140.7613,527.3244 C141.4458,531.3428 142.1148,535.2701 142.762,539.0694 C142.8024,539.3068 142.8428,539.5438 142.8831,539.7802" fill="none" id="N1-UC" style="stroke:#000000;stroke-width:2;stroke-dasharray:7,7;"/></g><g class="legend" data-source-line="75"><rect fill="#DDDDDD" height="95.4844" rx="7.5" ry="7.5" style="stroke:#000000;stroke-width:1;" width="301.2109" x="448.0322" y="832.7869"/><text fill="#000000" font-family="sans-serif" font-size="14" lengthAdjust="spacing" textLength="36.5518" x="457.4824" y="852.782">Color</text><text fill="#000000" font-family="sans-serif" font-size="14" lengthAdjust="spacing" textLength="39.0332" x="534.0791" y="852.782">Layer</text><text fill="#000000" font-family="sans-serif" font-size="14" lengthAdjust="spacing" textLength="66.541" x="457.4824" y="869.0789">#2B579A</text><text fill="#000000" font-family="sans-serif" font-size="14" lengthAdjust="spacing" textLength="167.0156" x="534.0791" y="869.0789">Entities (Domain) - Blue</text><text fill="#000000" font-family="sans-serif" font-size="14" lengthAdjust="spacing" textLength="67.6963" x="457.4824" y="885.3757">#F5EBDC</text><text fill="#000000" font-family="sans-serif" font-size="14" lengthAdjust="spacing" textLength="205.7139" x="534.0791" y="885.3757">Use Cases (Application) - Tan</text><text fill="#000000" font-family="sans-serif" font-size="14" lengthAdjust="spacing" textLength="65.8711" x="457.4824" y="901.6726">#66B032</text><text fill="#000000" font-family="sans-serif" font-size="14" lengthAdjust="spacing" textLength="186.8672" x="534.0791" y="901.6726">Interface Adapters - Green</text><text fill="#000000" font-family="sans-serif" font-size="14" lengthAdjust="spacing" textLength="65.8711" x="457.4824" y="917.9695">#B22222</text><text fill="#000000" font-family="sans-serif" font-size="14" lengthAdjust="spacing" textLength="197.1826" x="534.0791" y="917.9695">Frameworks &amp; Drivers - Red</text><line style="stroke:#000000;stroke-width:1;" x1="453.0322" x2="744.2432" y1="839.7869" y2="839.7869"/><line style="stroke:#000000;stroke-width:1;" x1="453.0322" x2="744.2432" y1="856.0838" y2="856.0838"/><line style="stroke:#000000;stroke-width:1;" x1="453.0322" x2="744.2432" y1="872.3806" y2="872.3806"/><line style="stroke:#000000;stroke-width:1;" x1="453.0322" x2="744.2432" y1="888.6775" y2="888.6775"/><line style="stroke:#000000;stroke-width:1;" x1="453.0322" x2="744.2432" y1="904.9744" y2="904.9744"/><line style="stroke:#000000;stroke-width:1;" x1="453.0322" x2="744.2432" y1="921.2713" y2="921.2713"/><line style="stroke:#000000;stroke-width:1;" x1="453.0322" x2="453.0322" y1="839.7869" y2="921.2713"/><line style="stroke:#000000;stroke-width:1;" x1="529.6289" x2="529.6289" y1="839.7869" y2="921.2713"/><line style="stroke:#000000;stroke-width:1;" x1="744.2432" x2="744.2432" y1="839.7869" y2="921.2713"/></g><?plantuml-src VLNRRjiu47tNLmnIe9i4SMv5qzqY223PSI6WSL8xsRpaXP76CZSCAGoffcvJe1-nNxXVqY4fExvb-I1JzCmvCyEP8oUTGkWg51fIAYRIOU4QGlZlrx_mMKoHi8GUrgXBrCKKXet29Fa3kaOPWYkXq3baWx7KqacZRM8VfAu5YKSWXXAwOlmV2V3A39L8qVFDOLWBvzSJMJnej1RUXTEXQNJPDQIHuC_avmAk839FBUOwsWlEyP9NYMFHA9SNHe_aTuIZ4vz7fXg43iCG7lJCev1wKmAdfzxkx6oMY2WUAehn1VhZxFs7lzBmNzzervxsm-8WcESJ8MecolMOX7NKX2eVfAMe7PBTJ1gSNcSzESaEtnslihQb2An3lhmEd7zZ2YtKGUQT1Kqtix7nwrpPiL__b-6ryFaDi774LAE9uCxPJCIMhnFrtvzdlUxhITNi82g4hJwZufEX1mjleKVoAvTn2sPf20lzsvRZfG-tkWn9HYcslTFRGxHkuMJdJbyHMjGkG354rv5QXPXL4qP8NsM10KZStqjtyMKFqjlH7lIodU3EfaiXvnvvB0g4sRtxW6Utp0vvkXxo9-7mIKnZlBMnqXcQve-rud0lH5t7L7hNbt3QEODpxQIRHdhlkSH_OtdKXSL06s-1pMwwwwGXKb4mbGTFwrh9GlZvdcVDxBck6tTmsJZ-WIj3BXOj-2xnXg1af6q7oLT7ktNYS-zSa-H8iyRACCTUSpYCE9vmOKfK_9fM5M75ATez-5luCRwy_uU1OX2C4znYRou8M10F6-JDQ3K5gPy4bOc_QUYKNC5GDV-8hp6Ry8m7S-H46pOYMKqScF7BES3kRgwzR7Kb5GftTmFRbLVLCkQWJ2MBVROS6DQbDZOk48S4utbV-qRQ0sx_ctm_OHlmXAkq_Tj0oBUmIZWVa8wjiP1ZMK3borHm0JrtgjGoUMqaNqaio1hXrlK4Lpy47-_qo3HKHCmbi3lzAAQnmX4s7zocmrwucy5HCZY2_Ntkl2HHM7cca0y7zTmg-dFy-C1pE6i5bdUpLeBjs0uxh3b1mrl3A1-yc_SwBBQlD_T2rLf71UNT-cIoOTJirZGA8EyswGuRUwbzzaMB2IM_0G00?></g></svg>