<?plantuml 1.2026.1?><svg xmlns="http://www.w3.org/2000/svg" xmlns:xlink="http://www.w3.org/1999/xlink" contentStyleType="text/css" data-diagram-type="CLASS" height="1005px" preserveAspectRatio="none" style="width:824px;height:1005px;background:#FFFFFF;" version="1.1" viewBox="0 0 824 1005" width="824px" zoomAndPan="magnify"><title>DDD &#8212; Tactical Design Patterns</title><defs/><g><g class="title" data-source-line="2"><text fill="#000000" font-family="sans-serif" font-size="14" font-weight="bold" lengthAdjust="spacing" textLength="251.7197" x="279.1494" y="22.9951">DDD &#8212; Tactical Design Patterns</text></g><g class="legend" data-source-line="115"><rect fill="#DDDDDD" height="79.1875" rx="7.5" ry="7.5" style="stroke:#000000;stroke-width:1;" width="357.7031" x="226.1577" y="49.2969"/><text fill="#000000" font-family="sans-serif" font-size="14" lengthAdjust="spacing" textLength="36.5518" x="235.6079" y="69.292">Color</text><text fill="#000000" font-family="sans-serif" font-size="14" lengthAdjust="spacing" textLength="63.9502" x="312.2046" y="69.292">Category</text><text fill="#000000" font-family="sans-serif" font-size="14" lengthAdjust="spacing" textLength="66.541" x="235.6079" y="85.5889">#2B579A</text><text fill="#000000" font-family="sans-serif" font-size="14" lengthAdjust="spacing" textLength="262.2061" x="312.2046" y="85.5889">AggregateRoot, Order, Entities (Blue)</text><text fill="#000000" font-family="sans-serif" font-size="14" lengthAdjust="spacing" textLength="65.8711" x="235.6079" y="101.8857">#66B032</text><text fill="#000000" font-family="sans-serif" font-size="14" lengthAdjust="spacing" textLength="133.1504" x="312.2046" y="101.8857">Repository (Green)</text><text fill="#000000" font-family="sans-serif" font-size="14" lengthAdjust="spacing" textLength="67.6963" x="235.6079" y="118.1826">#F5EBDC</text><text fill="#000000" font-family="sans-serif" font-size="14" lengthAdjust="spacing" textLength="135.8096" x="312.2046" y="118.1826">DomainEvent (Tan)</text><line style="stroke:#000000;stroke-width:1;" x1="231.1577" x2="578.8609" y1="56.2969" y2="56.2969"/><line style="stroke:#000000;stroke-width:1;" x1="231.1577" x2="578.8609" y1="72.5938" y2="72.5938"/><line style="stroke:#000000;stroke-width:1;" x1="231.1577" x2="578.8609" y1="88.8906" y2="88.8906"/><line style="stroke:#000000;stroke-width:1;" x1="231.1577" x2="578.8609" y1="105.1875" y2="105.1875"/><line style="stroke:#000000;stroke-width:1;" x1="231.1577" x2="578.8609" y1="121.4844" y2="121.4844"/><line style="stroke:#000000;stroke-width:1;" x1="231.1577" x2="231.1577" y1="56.2969" y2="121.4844"/><line style="stroke:#000000;stroke-width:1;" x1="307.7544" x2="307.7544" y1="56.2969" y2="121.4844"/><line style="stroke:#000000;stroke-width:1;" x1="578.8609" x2="578.8609" y1="56.2969" y2="121.4844"/></g><!--class AggregateRoot--><g class="entity" data-qualified-name="AggregateRoot" data-source-line="40" id="ent0002"><rect fill="#2B579A" height="121.4531" rx="2.5" ry="2.5" style="stroke:#181818;stroke-width:0.5;" width="219.9834" x="7" y="561.6844"/><ellipse cx="59.9238" cy="581.8172" fill="#ADD1B2" rx="11" ry="11" style="stroke:#181818;stroke-width:1;"/><path d="M62.8926,587.4578 Q62.3145,587.7547 61.6738,587.8953 Q61.0332,588.0516 60.3301,588.0516 Q57.8301,588.0516 56.502,586.4109 Q55.1895,584.7547 55.1895,581.6297 Q55.1895,578.5047 56.502,576.8484 Q57.8301,575.1922 60.3301,575.1922 Q61.0332,575.1922 61.6738,575.3484 Q62.3301,575.5047 62.8926,575.8016 L62.8926,578.5203 Q62.2676,577.9422 61.6738,577.6766 Q61.0801,577.3953 60.4551,577.3953 Q59.1113,577.3953 58.4238,578.4734 Q57.7363,579.5359 57.7363,581.6297 Q57.7363,583.7234 58.4238,584.8016 Q59.1113,585.8641 60.4551,585.8641 Q61.0801,585.8641 61.6738,585.5984 Q62.2676,585.3172 62.8926,584.7391 L62.8926,587.4578 Z " fill="#000000"/><text fill="#000000" font-family="sans-serif" font-size="12" font-style="italic" lengthAdjust="spacing" textLength="41.2383" x="112.6226" y="577.823">&#171;Blue&#187;</text><text fill="#FFFFFF" font-family="sans-serif" font-size="14" lengthAdjust="spacing" textLength="105.6357" x="80.4238" y="593.6482">AggregateRoot</text><line style="stroke:#181818;stroke-width:0.5;" x1="8" x2="225.9834" y1="601.95" y2="601.95"/><g data-visibility-modifier="PUBLIC_FIELD"><ellipse cx="18" cy="615.5984" fill="none" rx="3" ry="3" style="stroke:#038048;stroke-width:1;"/></g><text fill="#000000" font-family="sans-serif" font-size="14" lengthAdjust="spacing" textLength="52.6299" x="27" y="618.9451">UUID id</text><g data-visibility-modifier="PUBLIC_FIELD"><ellipse cx="18" cy="631.8953" fill="none" rx="3" ry="3" style="stroke:#038048;stroke-width:1;"/></g><text fill="#000000" font-family="sans-serif" font-size="14" lengthAdjust="spacing" textLength="193.9834" x="27" y="635.242">List&lt;DomainEvent&gt; events</text><line style="stroke:#181818;stroke-width:0.5;" x1="8" x2="225.9834" y1="642.5438" y2="642.5438"/><g data-visibility-modifier="PUBLIC_METHOD"><ellipse cx="18" cy="656.1922" fill="#84BE84" rx="3" ry="3" style="stroke:#038048;stroke-width:1;"/></g><text fill="#000000" font-family="sans-serif" font-size="14" lengthAdjust="spacing" textLength="177.96" x="27" y="659.5389">void apply(DomainEvent)</text><g data-visibility-modifier="PUBLIC_METHOD"><ellipse cx="18" cy="672.4891" fill="#84BE84" rx="3" ry="3" style="stroke:#038048;stroke-width:1;"/></g><text fill="#000000" font-family="sans-serif" font-size="14" lengthAdjust="spacing" textLength="97.918" x="27" y="675.8357">void commit()</text></g><!--class Order--><g class="entity" data-qualified-name="Order" data-source-line="47" id="ent0003"><rect fill="#2B579A" height="154.0469" rx="2.5" ry="2.5" style="stroke:#181818;stroke-width:0.5;" width="265.3467" x="13.32" y="330.6344"/><ellipse cx="121.7277" cy="350.7672" fill="#ADD1B2" rx="11" ry="11" style="stroke:#181818;stroke-width:1;"/><path d="M124.6965,356.4078 Q124.1183,356.7047 123.4777,356.8453 Q122.8371,357.0016 122.134,357.0016 Q119.634,357.0016 118.3058,355.3609 Q116.9933,353.7047 116.9933,350.5797 Q116.9933,347.4547 118.3058,345.7984 Q119.634,344.1422 122.134,344.1422 Q122.8371,344.1422 123.4777,344.2984 Q124.134,344.4547 124.6965,344.7516 L124.6965,347.4703 Q124.0715,346.8922 123.4777,346.6266 Q122.884,346.3453 122.259,346.3453 Q120.9152,346.3453 120.2277,347.4234 Q119.5402,348.4859 119.5402,350.5797 Q119.5402,352.6734 120.2277,353.7516 Q120.9152,354.8141 122.259,354.8141 Q122.884,354.8141 123.4777,354.5484 Q124.0715,354.2672 124.6965,353.6891 L124.6965,356.4078 Z " fill="#000000"/><text fill="#000000" font-family="sans-serif" font-size="12" font-style="italic" lengthAdjust="spacing" textLength="41.2383" x="141.6242" y="346.773">&#171;Blue&#187;</text><text fill="#FFFFFF" font-family="sans-serif" font-size="14" lengthAdjust="spacing" textLength="40.0313" x="142.2277" y="362.5982">Order</text><line style="stroke:#181818;stroke-width:0.5;" x1="14.32" x2="277.6667" y1="370.9" y2="370.9"/><g data-visibility-modifier="PRIVATE_FIELD"><rect fill="none" height="6" style="stroke:#C82930;stroke-width:1;" width="6" x="21.32" y="381.5484"/></g><text fill="#000000" font-family="sans-serif" font-size="14" lengthAdjust="spacing" textLength="163.208" x="33.32" y="387.8951">List&lt;OrderItem&gt; items</text><g data-visibility-modifier="PRIVATE_FIELD"><rect fill="none" height="6" style="stroke:#C82930;stroke-width:1;" width="6" x="21.32" y="397.8453"/></g><text fill="#000000" font-family="sans-serif" font-size="14" lengthAdjust="spacing" textLength="132.1113" x="33.32" y="404.192">OrderStatus status</text><g data-visibility-modifier="PRIVATE_FIELD"><rect fill="none" height="6" style="stroke:#C82930;stroke-width:1;" width="6" x="21.32" y="414.1422"/></g><text fill="#000000" font-family="sans-serif" font-size="14" lengthAdjust="spacing" textLength="117.2773" x="33.32" y="420.4889">Money totalPrice</text><line style="stroke:#181818;stroke-width:0.5;" x1="14.32" x2="277.6667" y1="427.7906" y2="427.7906"/><g data-visibility-modifier="PUBLIC_METHOD"><ellipse cx="24.32" cy="441.4391" fill="#84BE84" rx="3" ry="3" style="stroke:#038048;stroke-width:1;"/></g><text fill="#000000" font-family="sans-serif" font-size="14" lengthAdjust="spacing" textLength="239.3467" x="33.32" y="444.7857">void addItem(ProductId, Quantity)</text><g data-visibility-modifier="PUBLIC_METHOD"><ellipse cx="24.32" cy="457.7359" fill="#84BE84" rx="3" ry="3" style="stroke:#038048;stroke-width:1;"/></g><text fill="#000000" font-family="sans-serif" font-size="14" lengthAdjust="spacing" textLength="98.3486" x="33.32" y="461.0826">void confirm()</text><g data-visibility-modifier="PUBLIC_METHOD"><ellipse cx="24.32" cy="474.0328" fill="#84BE84" rx="3" ry="3" style="stroke:#038048;stroke-width:1;"/></g><text fill="#000000" font-family="sans-serif" font-size="14" lengthAdjust="spacing" textLength="73.9443" x="33.32" y="477.3795">void ship()</text></g><!--class OrderItem--><g class="entity" data-qualified-name="OrderItem" data-source-line="56" id="ent0004"><rect fill="#2B579A" height="105.1563" rx="2.5" ry="2.5" style="stroke:#181818;stroke-width:0.5;" width="164.3457" x="261.82" y="569.8344"/><ellipse cx="304.0204" cy="589.9672" fill="#ADD1B2" rx="11" ry="11" style="stroke:#181818;stroke-width:1;"/><path d="M306.9891,595.6078 Q306.411,595.9047 305.7704,596.0453 Q305.1298,596.2016 304.4266,596.2016 Q301.9266,596.2016 300.5985,594.5609 Q299.286,592.9047 299.286,589.7797 Q299.286,586.6547 300.5985,584.9984 Q301.9266,583.3422 304.4266,583.3422 Q305.1298,583.3422 305.7704,583.4984 Q306.4266,583.6547 306.9891,583.9516 L306.9891,586.6703 Q306.3641,586.0922 305.7704,585.8266 Q305.1766,585.5453 304.5516,585.5453 Q303.2079,585.5453 302.5204,586.6234 Q301.8329,587.6859 301.8329,589.7797 Q301.8329,591.8734 302.5204,592.9516 Q303.2079,594.0141 304.5516,594.0141 Q305.1766,594.0141 305.7704,593.7484 Q306.3641,593.4672 306.9891,592.8891 L306.9891,595.6078 Z " fill="#000000"/><text fill="#000000" font-family="sans-serif" font-size="12" font-style="italic" lengthAdjust="spacing" textLength="41.2383" x="339.396" y="585.973">&#171;Blue&#187;</text><text fill="#FFFFFF" font-family="sans-serif" font-size="14" lengthAdjust="spacing" textLength="71.9004" x="324.0649" y="601.7982">OrderItem</text><line style="stroke:#181818;stroke-width:0.5;" x1="262.82" x2="425.1657" y1="610.1" y2="610.1"/><g data-visibility-modifier="PUBLIC_FIELD"><ellipse cx="272.82" cy="623.7484" fill="none" rx="3" ry="3" style="stroke:#038048;stroke-width:1;"/></g><text fill="#000000" font-family="sans-serif" font-size="14" lengthAdjust="spacing" textLength="138.3457" x="281.82" y="627.0951">ProductId productId</text><g data-visibility-modifier="PUBLIC_FIELD"><ellipse cx="272.82" cy="640.0453" fill="none" rx="3" ry="3" style="stroke:#038048;stroke-width:1;"/></g><text fill="#000000" font-family="sans-serif" font-size="14" lengthAdjust="spacing" textLength="123.3135" x="281.82" y="643.392">Quantity quantity</text><g data-visibility-modifier="PUBLIC_FIELD"><ellipse cx="272.82" cy="656.3422" fill="none" rx="3" ry="3" style="stroke:#038048;stroke-width:1;"/></g><text fill="#000000" font-family="sans-serif" font-size="14" lengthAdjust="spacing" textLength="85.709" x="281.82" y="659.6889">Money price</text><line style="stroke:#181818;stroke-width:0.5;" x1="262.82" x2="425.1657" y1="666.9906" y2="666.9906"/></g><!--class Money--><g class="entity" data-qualified-name="Money" data-source-line="62" id="ent0005"><rect fill="#2B579A" height="88.8594" rx="2.5" ry="2.5" style="stroke:#181818;stroke-width:0.5;" width="163.9355" x="168.02" y="760.1344"/><ellipse cx="222.5298" cy="780.2672" fill="#ADD1B2" rx="11" ry="11" style="stroke:#181818;stroke-width:1;"/><path d="M225.4985,785.9078 Q224.9204,786.2047 224.2798,786.3453 Q223.6391,786.5016 222.936,786.5016 Q220.436,786.5016 219.1079,784.8609 Q217.7954,783.2047 217.7954,780.0797 Q217.7954,776.9547 219.1079,775.2984 Q220.436,773.6422 222.936,773.6422 Q223.6391,773.6422 224.2798,773.7984 Q224.936,773.9547 225.4985,774.2516 L225.4985,776.9703 Q224.8735,776.3922 224.2798,776.1266 Q223.686,775.8453 223.061,775.8453 Q221.7173,775.8453 221.0298,776.9234 Q220.3423,777.9859 220.3423,780.0797 Q220.3423,782.1734 221.0298,783.2516 Q221.7173,784.3141 223.061,784.3141 Q223.686,784.3141 224.2798,784.0484 Q224.8735,783.7672 225.4985,783.1891 L225.4985,785.9078 Z " fill="#000000"/><text fill="#000000" font-family="sans-serif" font-size="12" font-style="italic" lengthAdjust="spacing" textLength="41.2383" x="245.6186" y="776.273">&#171;Blue&#187;</text><text fill="#FFFFFF" font-family="sans-serif" font-size="14" lengthAdjust="spacing" textLength="46.416" x="243.0298" y="792.0982">Money</text><line style="stroke:#181818;stroke-width:0.5;" x1="169.02" x2="330.9555" y1="800.4" y2="800.4"/><g data-visibility-modifier="PUBLIC_FIELD"><ellipse cx="179.02" cy="814.0484" fill="none" rx="3" ry="3" style="stroke:#038048;stroke-width:1;"/></g><text fill="#000000" font-family="sans-serif" font-size="14" lengthAdjust="spacing" textLength="137.9355" x="188.02" y="817.3951">BigDecimal amount</text><g data-visibility-modifier="PUBLIC_FIELD"><ellipse cx="179.02" cy="830.3453" fill="none" rx="3" ry="3" style="stroke:#038048;stroke-width:1;"/></g><text fill="#000000" font-family="sans-serif" font-size="14" lengthAdjust="spacing" textLength="129.6299" x="188.02" y="833.692">Currency currency</text><line style="stroke:#181818;stroke-width:0.5;" x1="169.02" x2="330.9555" y1="840.9938" y2="840.9938"/></g><!--class OrderRepository--><g class="entity" data-qualified-name="OrderRepository" data-source-line="67" id="ent0006"><rect fill="#66B032" height="105.1563" rx="2.5" ry="2.5" style="stroke:#181818;stroke-width:0.5;" width="245.8848" x="23.05" y="148.4844"/><ellipse cx="84.1906" cy="168.6172" fill="#ADD1B2" rx="11" ry="11" style="stroke:#181818;stroke-width:1;"/><path d="M87.1594,174.2578 Q86.5813,174.5547 85.9406,174.6953 Q85.3,174.8516 84.5969,174.8516 Q82.0969,174.8516 80.7688,173.2109 Q79.4563,171.5547 79.4563,168.4297 Q79.4563,165.3047 80.7688,163.6484 Q82.0969,161.9922 84.5969,161.9922 Q85.3,161.9922 85.9406,162.1484 Q86.5969,162.3047 87.1594,162.6016 L87.1594,165.3203 Q86.5344,164.7422 85.9406,164.4766 Q85.3469,164.1953 84.7219,164.1953 Q83.3781,164.1953 82.6906,165.2734 Q82.0031,166.3359 82.0031,168.4297 Q82.0031,170.5234 82.6906,171.6016 Q83.3781,172.6641 84.7219,172.6641 Q85.3469,172.6641 85.9406,172.3984 Q86.5344,172.1172 87.1594,171.5391 L87.1594,174.2578 Z " fill="#000000"/><text fill="#000000" font-family="sans-serif" font-size="12" font-style="italic" lengthAdjust="spacing" textLength="51.2871" x="136.5988" y="164.623">&#171;Green&#187;</text><text fill="#000000" font-family="sans-serif" font-size="14" lengthAdjust="spacing" textLength="115.1035" x="104.6906" y="180.4482">OrderRepository</text><line style="stroke:#181818;stroke-width:0.5;" x1="24.05" x2="267.9348" y1="188.75" y2="188.75"/><line style="stroke:#181818;stroke-width:0.5;" x1="24.05" x2="267.9348" y1="196.75" y2="196.75"/><g data-visibility-modifier="PUBLIC_METHOD"><ellipse cx="34.05" cy="210.3984" fill="#84BE84" rx="3" ry="3" style="stroke:#038048;stroke-width:1;"/></g><text fill="#000000" font-family="sans-serif" font-size="14" lengthAdjust="spacing" textLength="165.9355" x="43.05" y="213.7451">Order findById(OrderId)</text><g data-visibility-modifier="PUBLIC_METHOD"><ellipse cx="34.05" cy="226.6953" fill="#84BE84" rx="3" ry="3" style="stroke:#038048;stroke-width:1;"/></g><text fill="#000000" font-family="sans-serif" font-size="14" lengthAdjust="spacing" textLength="117.8037" x="43.05" y="230.042">void save(Order)</text><g data-visibility-modifier="PUBLIC_METHOD"><ellipse cx="34.05" cy="242.9922" fill="#84BE84" rx="3" ry="3" style="stroke:#038048;stroke-width:1;"/></g><text fill="#000000" font-family="sans-serif" font-size="14" lengthAdjust="spacing" textLength="219.8848" x="43.05" y="246.3389">List&lt;Order&gt; findUnconfirmed()</text></g><!--class OrderConfirmed--><g class="entity" data-qualified-name="OrderConfirmed" data-source-line="73" id="ent0007"><rect fill="#F5EBDC" height="88.8594" rx="2.5" ry="2.5" style="stroke:#181818;stroke-width:0.5;" width="160.9141" x="490.53" y="156.6244"/><ellipse cx="512.7107" cy="176.7572" fill="#ADD1B2" rx="11" ry="11" style="stroke:#181818;stroke-width:1;"/><path d="M515.6794,182.3978 Q515.1013,182.6947 514.4607,182.8353 Q513.82,182.9916 513.1169,182.9916 Q510.6169,182.9916 509.2888,181.3509 Q507.9763,179.6947 507.9763,176.5697 Q507.9763,173.4447 509.2888,171.7884 Q510.6169,170.1322 513.1169,170.1322 Q513.82,170.1322 514.4607,170.2884 Q515.1169,170.4447 515.6794,170.7416 L515.6794,173.4603 Q515.0544,172.8822 514.4607,172.6166 Q513.8669,172.3353 513.2419,172.3353 Q511.8982,172.3353 511.2107,173.4134 Q510.5232,174.4759 510.5232,176.5697 Q510.5232,178.6634 511.2107,179.7416 Q511.8982,180.8041 513.2419,180.8041 Q513.8669,180.8041 514.4607,180.5384 Q515.0544,180.2572 515.6794,179.6791 L515.6794,182.3978 Z " fill="#000000"/><text fill="#000000" font-family="sans-serif" font-size="12" font-style="italic" lengthAdjust="spacing" textLength="36.9727" x="566.2986" y="172.763">&#171;Tan&#187;</text><text fill="#000000" font-family="sans-serif" font-size="14" lengthAdjust="spacing" textLength="112.957" x="528.3064" y="188.5882">OrderConfirmed</text><line style="stroke:#181818;stroke-width:0.5;" x1="491.53" x2="650.4441" y1="196.89" y2="196.89"/><g data-visibility-modifier="PUBLIC_FIELD"><ellipse cx="501.53" cy="210.5384" fill="none" rx="3" ry="3" style="stroke:#038048;stroke-width:1;"/></g><text fill="#000000" font-family="sans-serif" font-size="14" lengthAdjust="spacing" textLength="108.0898" x="510.53" y="213.8851">OrderId orderId</text><g data-visibility-modifier="PUBLIC_FIELD"><ellipse cx="501.53" cy="226.8353" fill="none" rx="3" ry="3" style="stroke:#038048;stroke-width:1;"/></g><text fill="#000000" font-family="sans-serif" font-size="14" lengthAdjust="spacing" textLength="134.9141" x="510.53" y="230.182">Instant occurredOn</text><line style="stroke:#181818;stroke-width:0.5;" x1="491.53" x2="650.4441" y1="237.4838" y2="237.4838"/></g><!--class DomainEvent--><g class="entity" data-qualified-name="DomainEvent" data-source-line="78" id="ent0008"><rect fill="#2B579A" height="72.5625" rx="2.5" ry="2.5" style="stroke:#181818;stroke-width:0.5;" width="234.0586" x="582.96" y="371.3744"/><ellipse cx="648.5235" cy="391.5072" fill="#ADD1B2" rx="11" ry="11" style="stroke:#181818;stroke-width:1;"/><path d="M651.4922,397.1478 Q650.9141,397.4447 650.2735,397.5853 Q649.6329,397.7416 648.9297,397.7416 Q646.4297,397.7416 645.1016,396.1009 Q643.7891,394.4447 643.7891,391.3197 Q643.7891,388.1947 645.1016,386.5384 Q646.4297,384.8822 648.9297,384.8822 Q649.6329,384.8822 650.2735,385.0384 Q650.9297,385.1947 651.4922,385.4916 L651.4922,388.2103 Q650.8672,387.6322 650.2735,387.3666 Q649.6797,387.0853 649.0547,387.0853 Q647.711,387.0853 647.0235,388.1634 Q646.336,389.2259 646.336,391.3197 Q646.336,393.4134 647.0235,394.4916 Q647.711,395.5541 649.0547,395.5541 Q649.6797,395.5541 650.2735,395.2884 Q650.8672,395.0072 651.4922,394.4291 L651.4922,397.1478 Z " fill="#000000"/><text fill="#000000" font-family="sans-serif" font-size="12" font-style="italic" lengthAdjust="spacing" textLength="41.2383" x="695.6202" y="387.513">&#171;Blue&#187;</text><text fill="#FFFFFF" font-family="sans-serif" font-size="14" lengthAdjust="spacing" textLength="94.4316" x="669.0235" y="403.3382">DomainEvent</text><line style="stroke:#181818;stroke-width:0.5;" x1="583.96" x2="816.0186" y1="411.64" y2="411.64"/><line style="stroke:#181818;stroke-width:0.5;" x1="583.96" x2="816.0186" y1="419.64" y2="419.64"/><g data-visibility-modifier="PUBLIC_METHOD"><ellipse cx="593.96" cy="433.2884" fill="#84BE84" rx="3" ry="3" style="stroke:#038048;stroke-width:1;"/></g><text fill="#000000" font-family="sans-serif" font-size="14" lengthAdjust="spacing" textLength="208.0586" x="602.96" y="436.6351">abstract Instant occurredOn()</text></g><!--class Entity--><g class="entity" data-qualified-name="Entity" data-source-line="82" id="ent0009"><rect fill="#2B579A" height="72.5625" rx="2.5" ry="2.5" style="stroke:#181818;stroke-width:0.5;" width="78.6299" x="366.68" y="768.2844"/><ellipse cx="384.271" cy="788.4172" fill="#ADD1B2" rx="11" ry="11" style="stroke:#181818;stroke-width:1;"/><path d="M387.2398,794.0578 Q386.6616,794.3547 386.021,794.4953 Q385.3804,794.6516 384.6773,794.6516 Q382.1773,794.6516 380.8491,793.0109 Q379.5366,791.3547 379.5366,788.2297 Q379.5366,785.1047 380.8491,783.4484 Q382.1773,781.7922 384.6773,781.7922 Q385.3804,781.7922 386.021,781.9484 Q386.6773,782.1047 387.2398,782.4016 L387.2398,785.1203 Q386.6148,784.5422 386.021,784.2766 Q385.4273,783.9953 384.8023,783.9953 Q383.4585,783.9953 382.771,785.0734 Q382.0835,786.1359 382.0835,788.2297 Q382.0835,790.3234 382.771,791.4016 Q383.4585,792.4641 384.8023,792.4641 Q385.4273,792.4641 386.021,792.1984 Q386.6148,791.9172 387.2398,791.3391 L387.2398,794.0578 Z " fill="#000000"/><text fill="#000000" font-family="sans-serif" font-size="12" font-style="italic" lengthAdjust="spacing" textLength="41.2383" x="398.6637" y="784.423">&#171;Blue&#187;</text><text fill="#FFFFFF" font-family="sans-serif" font-size="14" lengthAdjust="spacing" textLength="40.8721" x="398.8468" y="800.2482">Entity</text><line style="stroke:#181818;stroke-width:0.5;" x1="367.68" x2="444.3099" y1="808.55" y2="808.55"/><g data-visibility-modifier="PUBLIC_FIELD"><ellipse cx="377.68" cy="822.1984" fill="none" rx="3" ry="3" style="stroke:#038048;stroke-width:1;"/></g><text fill="#000000" font-family="sans-serif" font-size="14" lengthAdjust="spacing" textLength="52.6299" x="386.68" y="825.5451">UUID id</text><line style="stroke:#181818;stroke-width:0.5;" x1="367.68" x2="444.3099" y1="832.8469" y2="832.8469"/></g><!--class ValueObject--><g class="entity" data-qualified-name="ValueObject" data-source-line="86" id="ent0010"><rect fill="#2B579A" height="88.8594" rx="2.5" ry="2.5" style="stroke:#181818;stroke-width:0.5;" width="189.0781" x="155.45" y="909.9944"/><ellipse cx="203.1751" cy="930.1272" fill="#ADD1B2" rx="11" ry="11" style="stroke:#181818;stroke-width:1;"/><path d="M206.1438,935.7678 Q205.5657,936.0647 204.9251,936.2053 Q204.2845,936.3616 203.5813,936.3616 Q201.0813,936.3616 199.7532,934.7209 Q198.4407,933.0647 198.4407,929.9397 Q198.4407,926.8147 199.7532,925.1584 Q201.0813,923.5022 203.5813,923.5022 Q204.2845,923.5022 204.9251,923.6584 Q205.5813,923.8147 206.1438,924.1116 L206.1438,926.8303 Q205.5188,926.2522 204.9251,925.9866 Q204.3313,925.7053 203.7063,925.7053 Q202.3626,925.7053 201.6751,926.7834 Q200.9876,927.8459 200.9876,929.9397 Q200.9876,932.0334 201.6751,933.1116 Q202.3626,934.1741 203.7063,934.1741 Q204.3313,934.1741 204.9251,933.9084 Q205.5188,933.6272 206.1438,933.0491 L206.1438,935.7678 Z " fill="#000000"/><text fill="#000000" font-family="sans-serif" font-size="12" font-style="italic" lengthAdjust="spacing" textLength="41.2383" x="245.6199" y="926.133">&#171;Blue&#187;</text><text fill="#FFFFFF" font-family="sans-serif" font-size="14" lengthAdjust="spacing" textLength="85.1279" x="223.6751" y="941.9582">ValueObject</text><line style="stroke:#181818;stroke-width:0.5;" x1="156.45" x2="343.5281" y1="950.26" y2="950.26"/><line style="stroke:#181818;stroke-width:0.5;" x1="156.45" x2="343.5281" y1="958.26" y2="958.26"/><g data-visibility-modifier="PUBLIC_METHOD"><ellipse cx="166.45" cy="971.9084" fill="#84BE84" rx="3" ry="3" style="stroke:#038048;stroke-width:1;"/></g><text fill="#000000" font-family="sans-serif" font-size="14" lengthAdjust="spacing" textLength="163.0781" x="175.45" y="975.2551">boolean equals(Object)</text><g data-visibility-modifier="PUBLIC_METHOD"><ellipse cx="166.45" cy="988.2053" fill="#84BE84" rx="3" ry="3" style="stroke:#038048;stroke-width:1;"/></g><text fill="#000000" font-family="sans-serif" font-size="14" lengthAdjust="spacing" textLength="103.0859" x="175.45" y="991.552">int hashCode()</text></g><g class="entity" data-qualified-name="GMN19" data-source-line="101" id="ent0020"><path d="M313.7,364.8244 L313.7,403.6544 L279.03,407.6544 L313.7,411.6544 L313.7,450.4884 A0,0 0 0 0 313.7,450.4884 L548.2923,450.4884 A0,0 0 0 0 548.2923,450.4884 L548.2923,374.8244 L538.2923,364.8244 L313.7,364.8244 A0,0 0 0 0 313.7,364.8244" fill="#FEFFDD" style="stroke:#181818;stroke-width:0.5;"/><path d="M538.2923,364.8244 L538.2923,374.8244 L548.2923,374.8244 L538.2923,364.8244" fill="#FEFFDD" style="stroke:#181818;stroke-width:0.5;"/><text fill="#000000" font-family="sans-serif" font-size="13" font-weight="bold" lengthAdjust="spacing" textLength="161.0972" x="319.7" y="381.8913">AggregateRoot Rules:</text><text fill="#000000" font-family="sans-serif" font-size="13" lengthAdjust="spacing" textLength="172.5356" x="319.7" y="397.0241">1. External refs only via ID</text><text fill="#000000" font-family="sans-serif" font-size="13" lengthAdjust="spacing" textLength="171.0439" x="319.7" y="412.1569">2. Child entities cannot be</text><text fill="#000000" font-family="sans-serif" font-size="13" lengthAdjust="spacing" textLength="146.7832" x="332.097" y="427.2897">accessed from outside</text><text fill="#000000" font-family="sans-serif" font-size="13" lengthAdjust="spacing" textLength="213.5923" x="319.7" y="442.4225">3. Invariant checks on mutations</text></g><g class="entity" data-qualified-name="GMN22" data-source-line="109" id="ent0023"><path d="M379.77,919.1544 L379.77,950.4244 L344.81,954.4244 L379.77,958.4244 L379.77,989.6856 A0,0 0 0 0 379.77,989.6856 L544.208,989.6856 A0,0 0 0 0 544.208,989.6856 L544.208,929.1544 L534.208,919.1544 L379.77,919.1544 A0,0 0 0 0 379.77,919.1544" fill="#FEFFDD" style="stroke:#181818;stroke-width:0.5;"/><path d="M534.208,919.1544 L534.208,929.1544 L544.208,929.1544 L534.208,919.1544" fill="#FEFFDD" style="stroke:#181818;stroke-width:0.5;"/><text fill="#000000" font-family="sans-serif" font-size="13" font-weight="bold" lengthAdjust="spacing" textLength="143.438" x="385.77" y="936.2213">Value Object Rules:</text><text fill="#000000" font-family="sans-serif" font-size="13" lengthAdjust="spacing" textLength="86.8613" x="385.77" y="951.3541">1. Immutable</text><text fill="#000000" font-family="sans-serif" font-size="13" lengthAdjust="spacing" textLength="96.9668" x="385.77" y="966.4869">2. Identity-free</text><text fill="#000000" font-family="sans-serif" font-size="13" lengthAdjust="spacing" textLength="124.8394" x="385.77" y="981.6197">3. Content equality</text></g><!--link Order to AggregateRoot--><g class="link" data-entity-1="ent0003" data-entity-2="ent0002" data-link-type="extension" data-source-line="91" id="lnk11"><path codeLine="91" d="M135.56,485.1644 C132.15,510.1844 130.8568,519.7601 127.6268,543.4001" fill="none" id="Order-to-AggregateRoot" style="stroke:#000000;stroke-width:2;"/><polygon fill="none" points="125.19,561.2344,133.5715,544.2123,121.682,542.5878,125.19,561.2344" style="stroke:#000000;stroke-width:2;"/></g><!--link OrderItem to Entity--><g class="link" data-entity-1="ent0004" data-entity-2="ent0009" data-link-type="extension" data-source-line="92" id="lnk12"><path codeLine="92" d="M361.76,675.0344 C371.99,704.7744 378.7426,724.3741 387.8726,750.9041" fill="none" id="OrderItem-to-Entity" style="stroke:#000000;stroke-width:2;"/><polygon fill="none" points="393.73,767.9244,393.5461,748.9516,382.1992,752.8565,393.73,767.9244" style="stroke:#000000;stroke-width:2;"/></g><!--reverse link Order to OrderItem--><g class="link" data-entity-1="ent0003" data-entity-2="ent0004" data-link-type="composition" data-source-line="93" id="lnk13"><path codeLine="93" d="M225.3655,493.9485 C251.4255,521.9485 272.1,544.1644 295.69,569.5044" fill="none" id="Order-backto-OrderItem" style="stroke:#000000;stroke-width:2;"/><polygon fill="#000000" points="217.19,485.1644,218.3497,492.2816,225.3655,493.9485,224.2058,486.8313,217.19,485.1644" style="stroke:#000000;stroke-width:2;"/><text fill="#000000" font-family="sans-serif" font-size="13" lengthAdjust="spacing" textLength="55.0278" x="257.99" y="527.7513">contains</text><text fill="#000000" font-family="sans-serif" font-size="13" lengthAdjust="spacing" textLength="8.271" x="215.1868" y="504.8081">1</text><text fill="#000000" font-family="sans-serif" font-size="13" lengthAdjust="spacing" textLength="36.5625" x="251.231" y="558.84">many</text></g><!--link OrderItem to Money--><g class="link" data-entity-1="ent0004" data-entity-2="ent0005" data-link-type="dependency" data-source-line="94" id="lnk14"><path codeLine="94" d="M316.14,675.0344 C309.49,687.4844 302.45,700.7644 295.99,713.1344 C288.09,728.2844 282.285,739.5838 274.755,754.4238" fill="none" id="OrderItem-to-Money" style="stroke:#000000;stroke-width:2;"/><polygon fill="#000000" points="272.04,759.7744,279.6795,753.5584,274.3025,755.3155,272.5454,749.9385,272.04,759.7744" style="stroke:#000000;stroke-width:2;"/><text fill="#000000" font-family="sans-serif" font-size="13" lengthAdjust="spacing" textLength="69.418" x="296.99" y="726.2013">references</text><text fill="#000000" font-family="sans-serif" font-size="13" lengthAdjust="spacing" textLength="36.5625" x="274.0163" y="695.1891">many</text><text fill="#000000" font-family="sans-serif" font-size="13" lengthAdjust="spacing" textLength="8.271" x="266.7113" y="749.171">1</text></g><!--link Money to ValueObject--><g class="link" data-entity-1="ent0005" data-entity-2="ent0010" data-link-type="extension" data-source-line="95" id="lnk15"><path codeLine="95" d="M249.99,849.1244 C249.99,868.2144 249.99,872.5544 249.99,891.6644" fill="none" id="Money-to-ValueObject" style="stroke:#000000;stroke-width:2;"/><polygon fill="none" points="249.99,909.6644,255.99,891.6644,243.99,891.6644,249.99,909.6644" style="stroke:#000000;stroke-width:2;"/></g><!--link OrderConfirmed to DomainEvent--><g class="link" data-entity-1="ent0007" data-entity-2="ent0008" data-link-type="extension" data-source-line="96" id="lnk16"><path codeLine="96" d="M598.67,245.9544 C622.21,283.2844 645.9887,321.0189 667.9087,355.7789" fill="none" id="OrderConfirmed-to-DomainEvent" style="stroke:#000000;stroke-width:2;"/><polygon fill="none" points="677.51,371.0044,672.9838,352.5785,662.8335,358.9794,677.51,371.0044" style="stroke:#000000;stroke-width:2;"/></g><!--reverse link OrderConfirmed to Order--><g class="link" data-entity-1="ent0007" data-entity-2="ent0003" data-link-type="dependency" data-source-line="97" id="lnk17"><path codeLine="97" d="M484.6011,241.5961 C429.6511,266.9261 360.91,299.0244 295.99,330.6344 C290.35,333.3844 284.6,336.2044 278.79,339.0744" fill="none" id="OrderConfirmed-backto-Order" style="stroke:#000000;stroke-width:2;"/><polygon fill="#000000" points="490.05,239.0844,480.2021,239.2194,485.5092,241.1775,483.5511,246.4847,490.05,239.0844" style="stroke:#000000;stroke-width:2;"/><text fill="#000000" font-family="sans-serif" font-size="13" lengthAdjust="spacing" textLength="38.4668" x="394.99" y="296.7013">raises</text><text fill="#000000" font-family="sans-serif" font-size="13" lengthAdjust="spacing" textLength="36.5625" x="445.8801" y="238.6851">many</text><text fill="#000000" font-family="sans-serif" font-size="13" lengthAdjust="spacing" textLength="8.271" x="286.7064" y="331.7465">1</text></g><!--link OrderRepository to Order--><g class="link" data-entity-1="ent0006" data-entity-2="ent0003" data-link-type="association" data-source-line="98" id="lnk18"><path codeLine="98" d="M145.99,253.9544 C145.99,277.1544 145.99,304.9744 145.99,330.4744" fill="none" id="OrderRepository-Order" style="stroke:#000000;stroke-width:2;stroke-dasharray:7,7;"/><text fill="#000000" font-family="sans-serif" font-size="13" lengthAdjust="spacing" textLength="59.8584" x="146.99" y="296.7013">manages</text></g><?plantuml-src VLNRRkCs47tNLmoo3tMyiRDni6aR10OYAra8Q9kia_IT5iSo6ubqISgjsnJeH_GBzqjsICesBQ-h1ucQspbp8Mc5hH2oB8Cl__u7pwomec0LP6X4AU6HMOjQcYJv3YQgKfea5PAC3EP22YiKASsha4kcMGqQ2yjaIH7_Je2UL6cEEdY---2VIFwy4CMhH6FWqakdgf5yehH43Jya_qHncTRgZpRcORHTdD6U5ySvQogR5qe-YRyGBgvS7cdL80pWJbgYZ-OyKpKJ4Xvcln7vE9cYOiRSt3ZxyNYJ42jUInruUXgZzEFtFzvwtRsIjfNU-uV84DudZIW9C9TppOpLJM4RZUUtd2sfjjy0z0x74Q-kqW-NeovYMmwFE4Nk4lpJjOvLvwbpPdfzY4I6nt7IaNl-BxDdvlBw1Hkh2UPfmJJoGn2oEWvo__4kpIR7a_4nuBOiDPRCubGf2tijUGylBta6WllrJyBOcz3GknLAEmPq7-ELAoKuiEMoMlSYazEThb1rBMplT0VyuCPq7t0GGBmcjrYFGT3RU8qNFbbc6mF6VxpuPoLn3LPPLZrgKM34XdCNe_Ue5QUvoFaPV6wOcypr7Yyv5xhkHIAp4Ci3eYvKjphRoB3ShBny0mE_jmil3KoNdkGsTX1sugQYpB0GDPqLhAQ6MY-TD5gZBDPGj8iEmoakbH5MQHSldlFtRQdfKE7fEkUza12FKsOh3EBJNQ_z_zYxlSYsJiWFAZFPQ22UnnQKQgF2ryjoIQsJ5bJXa-0FSXSicfjkGTYCzZOTdz_mZ-dSXQeVcU6jsQ-CrE58wjhEbAgGTXvIvohJ2qQX989W5ymi9efZ00rL7GpUnlkRADaDZ5S6MgtvoSK9z0S3EAcPN9z4itNjHj5I1KpatreD1cFl6ARbcgw2EReHG9C4aSU9yaewdV7wgC1TVOjpuuXTjAmS3XC6MpxHU0s7MmloOoMP95BHnQL5kQ3cp8EQojRlxnylqwP2Sztla-fYk3r5NJu6bApMi18CyepKeo5C5gBYWErT0WMJ108pz2SQi8BIDyHzhbKDgh56SAUw7DAKh9WMRawA1HQlBZJK3PqP_aP5oS6nxNAEo-UO-__swkeGpsiNRbPX89fpJt8zcDEk2nIejDODiXyar_qTQeMb-x5gIQPlxPLBNwfHwQhxviNjvKUhlGgUXTAURQzOwBa1FjruXGkCLb6xUlums9g4Qu5MyORhqSvr5iGiy4k-0W00?></g></svg>