<?plantuml 1.2026.1?><svg xmlns="http://www.w3.org/2000/svg" xmlns:xlink="http://www.w3.org/1999/xlink" contentStyleType="text/css" data-diagram-type="DESCRIPTION" height="775px" preserveAspectRatio="none" style="width:1554px;height:775px;background:#FFFFFF;" version="1.1" viewBox="0 0 1554 775" width="1554px" zoomAndPan="magnify"><title>Microservices Topology &#8212; Event-Driven with API Gateway</title><defs/><g><g class="title" data-source-line="2"><text fill="#000000" font-family="sans-serif" font-size="14" font-weight="bold" lengthAdjust="spacing" textLength="455.8477" x="542.2954" y="22.9951">Microservices Topology &#8212; Event-Driven with API Gateway</text></g><g class="legend" data-source-line="113"><rect fill="#DDDDDD" height="95.4844" rx="7.5" ry="7.5" style="stroke:#000000;stroke-width:1;" width="346.0479" x="597.1953" y="49.2969"/><text fill="#000000" font-family="sans-serif" font-size="14" lengthAdjust="spacing" textLength="36.5518" x="606.6455" y="69.292">Color</text><text fill="#000000" font-family="sans-serif" font-size="14" lengthAdjust="spacing" textLength="81.2793" x="683.2422" y="69.292">Component</text><text fill="#000000" font-family="sans-serif" font-size="14" lengthAdjust="spacing" textLength="65.8711" x="606.6455" y="85.5889">#B22222</text><text fill="#000000" font-family="sans-serif" font-size="14" lengthAdjust="spacing" textLength="250.5508" x="683.2422" y="85.5889">API Gateway, External Clients (Red)</text><text fill="#000000" font-family="sans-serif" font-size="14" lengthAdjust="spacing" textLength="66.541" x="606.6455" y="101.8857">#2B579A</text><text fill="#000000" font-family="sans-serif" font-size="14" lengthAdjust="spacing" textLength="207.3408" x="683.2422" y="101.8857">Services, Service Mesh (Blue)</text><text fill="#000000" font-family="sans-serif" font-size="14" lengthAdjust="spacing" textLength="65.8711" x="606.6455" y="118.1826">#66B032</text><text fill="#000000" font-family="sans-serif" font-size="14" lengthAdjust="spacing" textLength="210.082" x="683.2422" y="118.1826">PostgreSQL Database (Green)</text><text fill="#000000" font-family="sans-serif" font-size="14" lengthAdjust="spacing" textLength="67.6963" x="606.6455" y="134.4795">#F5EBDC</text><text fill="#000000" font-family="sans-serif" font-size="14" lengthAdjust="spacing" textLength="192.5273" x="683.2422" y="134.4795">Kafka/RabbitMQ, DLQ (Tan)</text><line style="stroke:#000000;stroke-width:1;" x1="602.1953" x2="938.2431" y1="56.2969" y2="56.2969"/><line style="stroke:#000000;stroke-width:1;" x1="602.1953" x2="938.2431" y1="72.5938" y2="72.5938"/><line style="stroke:#000000;stroke-width:1;" x1="602.1953" x2="938.2431" y1="88.8906" y2="88.8906"/><line style="stroke:#000000;stroke-width:1;" x1="602.1953" x2="938.2431" y1="105.1875" y2="105.1875"/><line style="stroke:#000000;stroke-width:1;" x1="602.1953" x2="938.2431" y1="121.4844" y2="121.4844"/><line style="stroke:#000000;stroke-width:1;" x1="602.1953" x2="938.2431" y1="137.7813" y2="137.7813"/><line style="stroke:#000000;stroke-width:1;" x1="602.1953" x2="602.1953" y1="56.2969" y2="137.7813"/><line style="stroke:#000000;stroke-width:1;" x1="678.792" x2="678.792" y1="56.2969" y2="137.7813"/><line style="stroke:#000000;stroke-width:1;" x1="938.2431" x2="938.2431" y1="56.2969" y2="137.7813"/></g><!--cluster External Clients--><g class="cluster" data-qualified-name="External Clients" data-source-line="56" id="ent0002"><path d="M1044.6357,179.6951 C1048.2543,171.4467 1056.0495,172.8827 1060.3044,179.0011 C1063.4326,170.6588 1069.2488,168.7583 1075.6277,175.7534 C1080.0847,167.483 1087.1809,167.1485 1092.5349,174.801 C1098.5957,166.2513 1105.3423,168.7578 1109.8056,176.495 C1112.8329,166.6653 1119.2505,164.995 1126.2542,172.7822 C1132.3578,163.7813 1139.2569,165.4263 1143.8318,174.2867 C1149.0398,167.1945 1156.8369,166.8338 1161.0037,175.4266 C1164.6133,167.7885 1171.319,165.8481 1176.4718,173.9059 C1183.4794,167.8188 1188.6943,167.4495 1192.876,176.8911 C1197.8385,168.1475 1204.987,170.0792 1209.5883,177.27 C1215.3244,169.6196 1221.531,170.1014 1226.781,177.814 C1236.0398,170.5882 1245.3902,173.2109 1249,184.5682 C1250.6239,184.1414 1251.6215,185.2101 1251.2555,186.797 C1262.7727,188.8685 1264.2809,196.9952 1257.3774,205.1959 C1267.541,208.2641 1269.981,216.5256 1261.9374,224.0073 C1269.2137,231.2046 1266.5884,238.2014 1257.4139,241.0263 C1264.9751,254.6017 1255.7756,265.2113 1242,265.1582 C1243.1868,264.8799 1243.6296,265.4871 1243.4087,266.5919 C1239.0825,275.748 1231.4873,276.3341 1225.4131,268.4365 C1221.3583,275.4511 1214.5748,278.264 1209.1397,269.8968 C1206.0459,279.0298 1198.3818,278.8535 1193.2334,271.9324 C1188.2439,278.9915 1181.5883,280.8041 1176.7533,271.7742 C1173.2014,280.2734 1164.9418,282.6701 1159.059,274.2056 C1156.0142,281.0853 1150.2762,284.2494 1144.3209,277.3094 C1138.0157,286.1185 1131.0798,283.907 1126.9609,275.1489 C1121.9831,282.1122 1113.5425,283.7856 1109.2077,274.4486 C1103.4228,279.8493 1095.8001,279.5851 1093.4956,270.6374 C1086.9237,278.119 1081.5292,277.9234 1075.9232,269.5658 C1070.5918,277.7643 1065.2323,278.2427 1059.8882,269.578 C1046.2754,278.62 1038.0841,272.0622 1035,258.1582 C1035.8175,257.4133 1036.5476,257.3604 1037.0627,258.4908 C1028.2819,255.9496 1024.7303,248.6805 1032.0807,241.429 C1020.6703,237.3069 1019.4109,229.9741 1028.4742,222.0431 C1022.1826,214.0249 1022.2736,208.2677 1032.5776,204.0301 C1024.4223,190.9009 1025.1449,181.7918 1042,177.5682 C1043.6535,177.0062 1045.0019,177.7542 1044.6357,179.6951" fill="none" style="stroke:#181818;stroke-width:1;"/><text fill="#000000" font-family="sans-serif" font-size="14" font-weight="bold" lengthAdjust="spacing" textLength="125.1318" x="1079.4341" y="195.5633">External Clients</text></g><!--cluster API Gateway--><g class="cluster" data-qualified-name="API Gateway" data-source-line="60" id="ent0004"><polygon fill="none" points="1037,332.1582,1047,322.1582,1247,322.1582,1247,437.0482,1237,447.0482,1037,447.0482,1037,332.1582" style="stroke:#181818;stroke-width:1;"/><line style="stroke:#181818;stroke-width:1;" x1="1237" x2="1247" y1="332.1582" y2="322.1582"/><line style="stroke:#181818;stroke-width:1;" x1="1037" x2="1237" y1="332.1582" y2="332.1582"/><line style="stroke:#181818;stroke-width:1;" x1="1237" x2="1237" y1="332.1582" y2="447.0482"/><text fill="#000000" font-family="sans-serif" font-size="14" font-weight="bold" lengthAdjust="spacing" textLength="99.8115" x="1088.0942" y="348.1533">API Gateway</text></g><!--cluster Service Mesh--><g class="cluster" data-qualified-name="Service Mesh" data-source-line="64" id="ent0006"><rect fill="none" height="103.6" rx="4" ry="4" style="stroke:#000000;stroke-width:3;" width="834" x="488" y="496.0482"/><text fill="#000000" font-family="sans-serif" font-size="14" font-weight="bold" lengthAdjust="spacing" textLength="104.8018" x="852.5991" y="511.0433">Service Mesh</text></g><!--cluster PostgreSQL--><g class="cluster" data-qualified-name="PostgreSQL" data-source-line="72" id="ent0012"><path d="M750,649.6182 C750,639.6182 1011,639.6182 1011,639.6182 C1011,639.6182 1272,639.6182 1272,649.6182 L1272,748.2082 C1272,758.2082 1011,758.2082 1011,758.2082 C1011,758.2082 750,758.2082 750,748.2082 L750,649.6182" fill="none" style="stroke:#181818;stroke-width:1;"/><path d="M750,649.6182 C750,659.6182 1011,659.6182 1011,659.6182 C1011,659.6182 1272,659.6182 1272,649.6182" fill="none" style="stroke:#181818;stroke-width:1;"/><text fill="#000000" font-family="sans-serif" font-size="14" font-weight="bold" lengthAdjust="spacing" textLength="92.2305" x="964.8848" y="674.6133">PostgreSQL</text></g><!--cluster Kafka / RabbitMQ--><g class="cluster" data-qualified-name="Kafka . RabbitMQ" data-source-line="79" id="ent0017"><path d="M11,335.3082 L459,335.3082 C464,335.3082 464,467.4782 464,467.4782 C464,467.4782 464,599.6482 459,599.6482 L11,599.6482 C6,599.6482 6,467.4782 6,467.4782 C6,467.4782 6,335.3082 11,335.3082" fill="none" style="stroke:#181818;stroke-width:1;"/><path d="M459,335.3082 C454,335.3082 454,467.4782 454,467.4782 C454,599.6482 459,599.6482 459,599.6482" fill="none" style="stroke:#181818;stroke-width:1;"/><text fill="#000000" font-family="sans-serif" font-size="14" font-weight="bold" lengthAdjust="spacing" textLength="137.6006" x="166.1997" y="350.3033">Kafka / RabbitMQ</text></g><!--entity SPA--><g class="entity" data-qualified-name="External Clients.SPA" data-source-line="57" id="ent0003"><rect fill="#B22222" height="52.5938" rx="4" ry="4" style="stroke:#000000;stroke-width:3;" width="198.0693" x="1042.97" y="204.5682"/><text fill="#FFFFFF" font-family="sans-serif" font-size="14" font-style="italic" lengthAdjust="spacing" textLength="44.3584" x="1119.8255" y="227.5633">&#171;Red&#187;</text><text fill="#FFFFFF" font-family="sans-serif" font-size="14" lengthAdjust="spacing" textLength="178.0693" x="1052.97" y="243.8602">SPA / Mobile / Third-party</text></g><!--entity GW--><g class="entity" data-qualified-name="API Gateway.GW" data-source-line="61" id="ent0005"><rect fill="#B22222" height="68.8906" rx="4" ry="4" style="stroke:#000000;stroke-width:3;" width="177.3223" x="1053.34" y="362.1582"/><text fill="#FFFFFF" font-family="sans-serif" font-size="14" font-style="italic" lengthAdjust="spacing" textLength="44.3584" x="1119.8219" y="385.1533">&#171;Red&#187;</text><text fill="#FFFFFF" font-family="sans-serif" font-size="14" lengthAdjust="spacing" textLength="117.7285" x="1063.34" y="401.4502">Auth, Rate Limit,</text><text fill="#FFFFFF" font-family="sans-serif" font-size="14" lengthAdjust="spacing" textLength="157.3223" x="1063.34" y="417.7471">Routing, Load Balance</text></g><!--entity US--><g class="entity" data-qualified-name="Service Mesh.US" data-source-line="65" id="ent0007"><rect fill="#2B579A" height="52.5938" rx="4" ry="4" style="stroke:#000000;stroke-width:3;" width="108.1016" x="1197.95" y="531.0482"/><text fill="#FFFFFF" font-family="sans-serif" font-size="14" font-style="italic" lengthAdjust="spacing" textLength="48.1113" x="1227.9451" y="554.0433">&#171;Blue&#187;</text><text fill="#FFFFFF" font-family="sans-serif" font-size="14" lengthAdjust="spacing" textLength="88.1016" x="1207.95" y="570.3402">User Service</text></g><!--entity OS--><g class="entity" data-qualified-name="Service Mesh.OS" data-source-line="66" id="ent0008"><rect fill="#2B579A" height="52.5938" rx="4" ry="4" style="stroke:#000000;stroke-width:3;" width="116.2227" x="694.89" y="531.0482"/><text fill="#FFFFFF" font-family="sans-serif" font-size="14" font-style="italic" lengthAdjust="spacing" textLength="48.1113" x="728.9457" y="554.0433">&#171;Blue&#187;</text><text fill="#FFFFFF" font-family="sans-serif" font-size="14" lengthAdjust="spacing" textLength="96.2227" x="704.89" y="570.3402">Order Service</text></g><!--entity PS--><g class="entity" data-qualified-name="Service Mesh.PS" data-source-line="67" id="ent0009"><rect fill="#2B579A" height="52.5938" rx="4" ry="4" style="stroke:#000000;stroke-width:3;" width="138.1113" x="845.94" y="531.0482"/><text fill="#FFFFFF" font-family="sans-serif" font-size="14" font-style="italic" lengthAdjust="spacing" textLength="48.1113" x="890.94" y="554.0433">&#171;Blue&#187;</text><text fill="#FFFFFF" font-family="sans-serif" font-size="14" lengthAdjust="spacing" textLength="118.1113" x="855.94" y="570.3402">Payment Service</text></g><!--entity IS--><g class="entity" data-qualified-name="Service Mesh.IS" data-source-line="68" id="ent0010"><rect fill="#2B579A" height="52.5938" rx="4" ry="4" style="stroke:#000000;stroke-width:3;" width="143.0605" x="1019.47" y="531.0482"/><text fill="#FFFFFF" font-family="sans-serif" font-size="14" font-style="italic" lengthAdjust="spacing" textLength="48.1113" x="1066.9446" y="554.0433">&#171;Blue&#187;</text><text fill="#FFFFFF" font-family="sans-serif" font-size="14" lengthAdjust="spacing" textLength="123.0605" x="1029.47" y="570.3402">Inventory Service</text></g><!--entity NS--><g class="entity" data-qualified-name="Service Mesh.NS" data-source-line="69" id="ent0011"><rect fill="#2B579A" height="52.5938" rx="4" ry="4" style="stroke:#000000;stroke-width:3;" width="156.5205" x="503.74" y="531.0482"/><text fill="#FFFFFF" font-family="sans-serif" font-size="14" font-style="italic" lengthAdjust="spacing" textLength="48.1113" x="557.9446" y="554.0433">&#171;Blue&#187;</text><text fill="#FFFFFF" font-family="sans-serif" font-size="14" lengthAdjust="spacing" textLength="136.5205" x="513.74" y="570.3402">Notification Service</text></g><!--entity USDB--><g class="entity" data-qualified-name="PostgreSQL.USDB" data-source-line="73" id="ent0013"><rect fill="#66B032" height="52.5938" rx="4" ry="4" style="stroke:#000000;stroke-width:3;" width="81.835" x="1174.08" y="689.6182"/><text fill="#000000" font-family="sans-serif" font-size="14" font-style="italic" lengthAdjust="spacing" textLength="59.835" x="1185.08" y="712.6133">&#171;Green&#187;</text><text fill="#000000" font-family="sans-serif" font-size="14" lengthAdjust="spacing" textLength="56.7451" x="1186.6249" y="728.9102">User DB</text></g><!--entity OSDB--><g class="entity" data-qualified-name="PostgreSQL.OSDB" data-source-line="74" id="ent0014"><rect fill="#66B032" height="52.5938" rx="4" ry="4" style="stroke:#000000;stroke-width:3;" width="84.8662" x="765.57" y="689.6182"/><text fill="#000000" font-family="sans-serif" font-size="14" font-style="italic" lengthAdjust="spacing" textLength="59.835" x="778.0856" y="712.6133">&#171;Green&#187;</text><text fill="#000000" font-family="sans-serif" font-size="14" lengthAdjust="spacing" textLength="64.8662" x="775.57" y="728.9102">Order DB</text></g><!--entity PSDB--><g class="entity" data-qualified-name="PostgreSQL.PSDB" data-source-line="75" id="ent0015"><rect fill="#66B032" height="52.5938" rx="4" ry="4" style="stroke:#000000;stroke-width:3;" width="106.7549" x="885.62" y="689.6182"/><text fill="#000000" font-family="sans-serif" font-size="14" font-style="italic" lengthAdjust="spacing" textLength="59.835" x="909.08" y="712.6133">&#171;Green&#187;</text><text fill="#000000" font-family="sans-serif" font-size="14" lengthAdjust="spacing" textLength="86.7549" x="895.62" y="728.9102">Payment DB</text></g><!--entity ISDB--><g class="entity" data-qualified-name="PostgreSQL.ISDB" data-source-line="76" id="ent0016"><rect fill="#66B032" height="52.5938" rx="4" ry="4" style="stroke:#000000;stroke-width:3;" width="111.7041" x="1027.15" y="689.6182"/><text fill="#000000" font-family="sans-serif" font-size="14" font-style="italic" lengthAdjust="spacing" textLength="59.835" x="1053.0846" y="712.6133">&#171;Green&#187;</text><text fill="#000000" font-family="sans-serif" font-size="14" lengthAdjust="spacing" textLength="91.7041" x="1037.15" y="728.9102">Inventory DB</text></g><!--entity TopicOrders--><g class="entity" data-qualified-name="Kafka . RabbitMQ.TopicOrders" data-source-line="80" id="ent0018"><rect fill="#F5EBDC" height="52.5938" rx="4" ry="4" style="stroke:#000000;stroke-width:3;" width="104.916" x="343.54" y="370.3082"/><text fill="#000000" font-family="sans-serif" font-size="14" font-style="italic" lengthAdjust="spacing" textLength="43.1348" x="374.4306" y="393.3033">&#171;Tan&#187;</text><text fill="#000000" font-family="sans-serif" font-size="14" lengthAdjust="spacing" textLength="84.916" x="353.54" y="409.6002">TopicOrders</text></g><!--entity TopicPayments--><g class="entity" data-qualified-name="Kafka . RabbitMQ.TopicPayments" data-source-line="81" id="ent0019"><rect fill="#F5EBDC" height="52.5938" rx="4" ry="4" style="stroke:#000000;stroke-width:3;" width="126.8047" x="181.6" y="370.3082"/><text fill="#000000" font-family="sans-serif" font-size="14" font-style="italic" lengthAdjust="spacing" textLength="43.1348" x="223.435" y="393.3033">&#171;Tan&#187;</text><text fill="#000000" font-family="sans-serif" font-size="14" lengthAdjust="spacing" textLength="106.8047" x="191.6" y="409.6002">TopicPayments</text></g><!--entity TopicInventory--><g class="entity" data-qualified-name="Kafka . RabbitMQ.TopicInventory" data-source-line="82" id="ent0020"><rect fill="#F5EBDC" height="52.5938" rx="4" ry="4" style="stroke:#000000;stroke-width:3;" width="124.46" x="21.77" y="370.3082"/><text fill="#000000" font-family="sans-serif" font-size="14" font-style="italic" lengthAdjust="spacing" textLength="43.1348" x="62.4326" y="393.3033">&#171;Tan&#187;</text><text fill="#000000" font-family="sans-serif" font-size="14" lengthAdjust="spacing" textLength="104.46" x="31.77" y="409.6002">TopicInventory</text></g><!--entity DLQ--><g class="entity" data-qualified-name="Kafka . RabbitMQ.DLQ" data-source-line="83" id="ent0021"><rect fill="#F5EBDC" height="52.5938" rx="4" ry="4" style="stroke:#000000;stroke-width:3;" width="65.1348" x="304.43" y="531.0482"/><text fill="#000000" font-family="sans-serif" font-size="14" font-style="italic" lengthAdjust="spacing" textLength="43.1348" x="315.43" y="554.0433">&#171;Tan&#187;</text><text fill="#000000" font-family="sans-serif" font-size="14" lengthAdjust="spacing" textLength="29.5996" x="322.1976" y="570.3402">DLQ</text></g><g class="entity" data-qualified-name="GMN38" data-source-line="107" id="ent0039"><path d="M1340.56,522.0782 L1340.56,592.6094 L1547.4384,592.6094 L1547.4384,532.0782 L1537.4384,522.0782 L1340.56,522.0782" fill="#FEFFDD" style="stroke:#181818;stroke-width:0.5;"/><path d="M1537.4384,522.0782 L1537.4384,532.0782 L1547.4384,532.0782 L1537.4384,522.0782" fill="#FEFFDD" style="stroke:#181818;stroke-width:1;"/><text fill="#000000" font-family="sans-serif" font-size="13" font-weight="bold" lengthAdjust="spacing" textLength="143.8887" x="1346.56" y="539.1451">Dead Letter Queue:</text><text fill="#000000" font-family="sans-serif" font-size="13" lengthAdjust="spacing" textLength="174.1606" x="1346.56" y="554.2779">Failed messages land here</text><text fill="#000000" font-family="sans-serif" font-size="13" lengthAdjust="spacing" textLength="170.5806" x="1346.56" y="569.4107">with metadata + headers.</text><text fill="#000000" font-family="sans-serif" font-size="13" lengthAdjust="spacing" textLength="185.8784" x="1346.56" y="584.5435">Alert &amp; re-process manually.</text></g><!--link SPA to GW--><g class="link" data-entity-1="ent0003" data-entity-2="ent0005" data-link-type="dependency" data-source-line="86" id="lnk22"><path d="M1142,257.4482 C1142,285.5082 1142,324.6782 1142,355.6782" fill="none" id="SPA-to-GW" style="stroke:#000000;stroke-width:2;"/><polygon fill="#000000" points="1142,361.6782,1146,352.6782,1142,356.6782,1138,352.6782,1142,361.6782" style="stroke:#000000;stroke-width:2;"/><text fill="#000000" font-family="sans-serif" font-size="13" lengthAdjust="spacing" textLength="41.7485" x="1143" y="302.2251">HTTPS</text></g><!--link GW to US--><g class="link" data-entity-1="ent0005" data-entity-2="ent0007" data-link-type="dependency" data-source-line="87" id="lnk23"><path d="M1230.8,411.2782 C1261.05,420.6482 1291.8,436.4382 1310,463.0482 C1325.28,485.4082 1310.1669,507.5857 1289.7469,526.5457" fill="none" id="GW-to-US" style="stroke:#000000;stroke-width:2;"/><polygon fill="#000000" points="1285.35,530.6282,1294.6671,527.4357,1289.0141,527.2261,1289.2237,521.5731,1285.35,530.6282" style="stroke:#000000;stroke-width:2;"/><text fill="#000000" font-family="sans-serif" font-size="13" lengthAdjust="spacing" textLength="81.0977" x="1316" y="476.1151">/api/users/**</text></g><!--link GW to OS--><g class="link" data-entity-1="ent0005" data-entity-2="ent0008" data-link-type="dependency" data-source-line="88" id="lnk24"><path d="M1053.02,399.2982 C947.79,403.3982 781.97,417.1682 743,463.0482 C727.29,481.5482 731.1465,504.499 738.8765,525.149" fill="none" id="GW-to-OS" style="stroke:#000000;stroke-width:2;"/><polygon fill="#000000" points="740.98,530.7682,741.5709,520.9371,739.2271,526.0855,734.0787,523.7417,740.98,530.7682" style="stroke:#000000;stroke-width:2;"/><text fill="#000000" font-family="sans-serif" font-size="13" lengthAdjust="spacing" textLength="87.6357" x="744" y="476.1151">/api/orders/**</text></g><!--link GW to PS--><g class="link" data-entity-1="ent0005" data-entity-2="ent0009" data-link-type="dependency" data-source-line="89" id="lnk25"><path d="M1107.67,431.3782 C1088.59,448.3582 1063.59,467.8682 1038,480.0482 C1023.2,487.0982 1016.81,481.0382 1002,488.0482 C979.44,498.7282 961.8184,512.174 945.5484,526.754" fill="none" id="GW-to-PS" style="stroke:#000000;stroke-width:2;"/><polygon fill="#000000" points="941.08,530.7582,950.452,527.7308,944.8036,527.4213,945.1131,521.773,941.08,530.7582" style="stroke:#000000;stroke-width:2;"/><text fill="#000000" font-family="sans-serif" font-size="13" lengthAdjust="spacing" textLength="110.6523" x="1067" y="476.1151">/api/payments/**</text></g><!--link GW to IS--><g class="link" data-entity-1="ent0005" data-entity-2="ent0010" data-link-type="dependency" data-source-line="90" id="lnk26"><path d="M1178.88,431.5182 C1190.31,446.1782 1198.04,463.7082 1190,480.0482 C1189.77,480.5282 1157.8204,505.106 1129.1704,527.086" fill="none" id="GW-to-IS" style="stroke:#000000;stroke-width:2;"/><polygon fill="#000000" points="1124.41,530.7382,1133.9854,528.4336,1128.377,527.6947,1129.1159,522.0863,1124.41,530.7382" style="stroke:#000000;stroke-width:2;"/><text fill="#000000" font-family="sans-serif" font-size="13" lengthAdjust="spacing" textLength="107.8403" x="1194" y="476.1151">/api/inventory/**</text></g><!--link US to USDB--><g class="link" data-entity-1="ent0007" data-entity-2="ent0013" data-link-type="dependency" data-source-line="92" id="lnk27"><path d="M1245.97,583.8482 C1239.11,612.8782 1229.3492,654.1889 1222.4692,683.3189" fill="none" id="US-to-USDB" style="stroke:#000000;stroke-width:2;"/><polygon fill="#000000" points="1221.09,689.1582,1227.0516,681.3186,1222.2393,684.2921,1219.2658,679.4797,1221.09,689.1582" style="stroke:#000000;stroke-width:2;"/></g><!--link OS to OSDB--><g class="link" data-entity-1="ent0008" data-entity-2="ent0014" data-link-type="dependency" data-source-line="93" id="lnk28"><path d="M761.96,583.8482 C772.16,612.8782 786.7319,654.3671 796.9619,683.4971" fill="none" id="OS-to-OSDB" style="stroke:#000000;stroke-width:2;"/><polygon fill="#000000" points="798.95,689.1582,799.7419,679.3412,797.2933,684.4406,792.1939,681.992,798.95,689.1582" style="stroke:#000000;stroke-width:2;"/></g><!--link PS to PSDB--><g class="link" data-entity-1="ent0009" data-entity-2="ent0015" data-link-type="dependency" data-source-line="94" id="lnk29"><path d="M918.91,583.8482 C923.36,612.8782 929.6819,654.0973 934.1419,683.2273" fill="none" id="PS-to-PSDB" style="stroke:#000000;stroke-width:2;"/><polygon fill="#000000" points="935.05,689.1582,937.6418,679.6565,934.2933,684.2158,929.734,680.8672,935.05,689.1582" style="stroke:#000000;stroke-width:2;"/></g><!--link IS to ISDB--><g class="link" data-entity-1="ent0010" data-entity-2="ent0016" data-link-type="dependency" data-source-line="95" id="lnk30"><path d="M1089.7,583.8482 C1088.21,612.8782 1086.1044,654.0359 1084.6244,683.1659" fill="none" id="IS-to-ISDB" style="stroke:#000000;stroke-width:2;"/><polygon fill="#000000" points="1084.32,689.1582,1088.7715,680.3728,1084.5737,684.1646,1080.7818,679.9668,1084.32,689.1582" style="stroke:#000000;stroke-width:2;"/></g><!--link OS to TopicOrders--><g class="link" data-entity-1="ent0008" data-entity-2="ent0018" data-link-type="dependency" data-source-line="97" id="lnk31"><path d="M730.03,530.8482 C716.12,516.6482 697.37,499.5782 678,488.0482 C668.7,482.5182 665.02,484.1482 655,480.0482 C638.62,473.3582 635.54,469.3382 619,463.0482 C561.86,441.3282 500.058,423.9039 454.388,412.0639" fill="none" id="OS-to-TopicOrders" style="stroke:#000000;stroke-width:2;"/><polygon fill="#000000" points="448.58,410.5582,456.2882,416.6888,453.42,411.813,458.2958,408.9448,448.58,410.5582" style="stroke:#000000;stroke-width:2;"/><text fill="#000000" font-family="sans-serif" font-size="13" lengthAdjust="spacing" textLength="46.979" x="656" y="476.1151">publish</text></g><!--link TopicOrders to PS--><g class="link" data-entity-1="ent0018" data-entity-2="ent0009" data-link-type="dependency" data-source-line="98" id="lnk32"><path d="M448.62,400.7982 C550.48,407.7282 770.38,426.5282 836,463.0482 C864.37,478.8482 883.8627,504.0048 897.5127,525.7748" fill="none" id="TopicOrders-to-PS" style="stroke:#000000;stroke-width:2;"/><polygon fill="#000000" points="900.7,530.8582,899.3079,521.1082,898.0439,526.622,892.5301,525.358,900.7,530.8582" style="stroke:#000000;stroke-width:2;"/><text fill="#000000" font-family="sans-serif" font-size="13" lengthAdjust="spacing" textLength="59.0142" x="858" y="476.1151">consume</text></g><!--link TopicOrders to IS--><g class="link" data-entity-1="ent0018" data-entity-2="ent0010" data-link-type="dependency" data-source-line="99" id="lnk33"><path d="M448.72,399.6982 C544.94,404.4782 754.86,419.4082 926,463.0482 C945.91,468.1282 949.41,473.8382 969,480.0482 C983.39,484.6182 988.39,481.5382 1002,488.0482 C1024.67,498.8982 1042.5576,512.2166 1059.2276,526.6766" fill="none" id="TopicOrders-to-IS" style="stroke:#000000;stroke-width:2;"/><polygon fill="#000000" points="1063.76,530.6082,1059.5824,521.6893,1059.983,527.3319,1054.3403,527.7325,1063.76,530.6082" style="stroke:#000000;stroke-width:2;"/><text fill="#000000" font-family="sans-serif" font-size="13" lengthAdjust="spacing" textLength="59.0142" x="970" y="476.1151">consume</text></g><!--link TopicOrders to NS--><g class="link" data-entity-1="ent0018" data-entity-2="ent0011" data-link-type="dependency" data-source-line="100" id="lnk34"><path d="M373.73,423.3582 C361.12,441.1382 350.48,464.3182 365,480.0482 C379.97,496.2782 442.93,481.4782 464,488.0482 C494.05,497.4382 519.7554,512.1436 542.2954,527.3436" fill="none" id="TopicOrders-to-NS" style="stroke:#000000;stroke-width:2;"/><polygon fill="#000000" points="547.27,530.6982,542.0446,522.3499,543.1245,527.9027,537.5717,528.9826,547.27,530.6982" style="stroke:#000000;stroke-width:2;"/><text fill="#000000" font-family="sans-serif" font-size="13" lengthAdjust="spacing" textLength="59.0142" x="366" y="476.1151">consume</text></g><!--link PS to TopicPayments--><g class="link" data-entity-1="ent0009" data-entity-2="ent0019" data-link-type="dependency" data-source-line="102" id="lnk35"><path d="M891.37,530.5782 C875.43,515.1282 852.99,496.8282 829,488.0482 C773.46,467.7382 620.16,495.2082 563,480.0482 C547.43,475.9282 546.55,467.2482 531,463.0482 C486.99,451.1682 369.16,469.7382 326,455.0482 C306.41,448.3882 292.0401,439.1399 277.3601,427.1699" fill="none" id="PS-to-TopicPayments" style="stroke:#000000;stroke-width:2;"/><polygon fill="#000000" points="272.71,423.3782,277.1574,432.1657,276.5851,426.5379,282.2129,425.9656,272.71,423.3782" style="stroke:#000000;stroke-width:2;"/><text fill="#000000" font-family="sans-serif" font-size="13" lengthAdjust="spacing" textLength="46.979" x="564" y="476.1151">publish</text></g><!--link TopicPayments to OS--><g class="link" data-entity-1="ent0019" data-entity-2="ent0008" data-link-type="dependency" data-source-line="103" id="lnk36"><path d="M273.19,423.3582 C287.85,435.1782 306.71,448.0782 326,455.0482 C369.6,470.8082 385.19,451.1782 430,463.0482 C447.1,467.5882 448.81,475.8582 466,480.0482 C511.8,491.2282 634.36,470.2082 678,488.0482 C699.84,496.9882 715.3916,510.7868 729.0416,526.1968" fill="none" id="TopicPayments-to-OS" style="stroke:#000000;stroke-width:2;"/><polygon fill="#000000" points="733.02,530.6882,730.0466,521.2989,729.7047,526.9454,724.0582,526.6034,733.02,530.6882" style="stroke:#000000;stroke-width:2;"/><text fill="#000000" font-family="sans-serif" font-size="13" lengthAdjust="spacing" textLength="59.0142" x="467" y="476.1151">consume</text></g><!--link TopicPayments to DLQ--><g class="link" data-entity-1="ent0019" data-entity-2="ent0021" data-link-type="dependency" data-source-line="104" id="lnk37"><path d="M246.5,423.0382 C248.37,440.0182 252.58,462.3882 262,480.0482 C272.32,499.3882 284.5921,513.1034 299.6421,526.5934" fill="none" id="TopicPayments-to-DLQ" style="stroke:#000000;stroke-width:2;"/><polygon fill="#000000" points="304.11,530.5982,300.078,521.6125,300.3868,527.2609,294.7383,527.5696,304.11,530.5982" style="stroke:#000000;stroke-width:2;"/><text fill="#000000" font-family="sans-serif" font-size="13" lengthAdjust="spacing" textLength="61.6738" x="263" y="476.1151">on failure</text></g><!--link DLQ to GMN38--><g class="link" data-entity-1="ent0021" data-entity-2="ent0039" data-link-type="association" data-source-line="107" id="lnk40"><path d="M370,534.5782 C402.7,513.4982 455.06,483.6482 505.5,471.5482 C548.66,461.1982 1261.79,459.4682 1304.5,471.5482 C1339.38,481.4182 1374.12,502.7382 1400.21,521.6582" fill="none" id="DLQ-GMN38" style="stroke:#000000;stroke-width:2;stroke-dasharray:7,7;"/></g><?plantuml-src fLRRRjiu47tNLmoyGEkcTjscQ7f14C2AabHO9tOY1_lIbx54sqGaqYMffjxj0liH-uNx9HrIbyYHlDX5-29gBcSkd1dIS9CokEInafgfRpnc6kPo8rEvsi8_V_qDPz-OCCD0SVh2FJTh6Cz2k433xd7hUS_Xb6GLp31bnZ08s98BRhWKsjDtN6nGOGQAnGR5YYpzuG4jNwg4gKBpbzTkDUZpDO_l1DCQtZhgZSn5SYgLO0e-U7ysS54fULzYjj4US0vtj1Asn3mrOIn5n7zdyER8nd734XZ2sNV3bC1qv5kZgBODlJYLUN9yJ88d9rKW6D-jLE6VC-yVskLuvrAOadhkreuJTKgU1aYE-sdEoFEeFBvH83FaejkKbTrlwz1_z_xZ-3yuBsJoL31o_48nggaXX6AfK1kLnoPN3Fe16boWPY-QPrRIZe-TrdwpHqV-wxUjV9LLiUS0dWP9aSpHnd75SgEeTA8rAYgclciTy7FT3EHhpd8oIHhx3Pw_E_E3q_yNmrC0FLVPqAkA7qvJJgxhNedtqBwzQ3Q64LpA1QU_aMqnbGp96RFjGLN9g874BAwj4-Wr1aO7uZWtwm7S41ycFEDcy4LGmnikLWEOI4mecXH5p7RmBtwpy4s_Ykg7IwRN7KPkQRXL7MA1oj8bfDleiUpKpg1kuMbBU8RRp9vof_Yi9HuAMnDIRRiLmfR2bJHyoMEq4xLRvogogQZwWpoIsgmKYwud-_8G-1QXAdgNWy3lpa9BTDeXMkMW9Jph47x8G4iyjE8KYsiHwFsAopka6hl1nOARo-kESEYcuh7pL5kieWVGtM0LlLEbzBX3gU9qgjM-j_LgrcF5O7Az8qt_DaRRHyFX2HKoV8BFypcL2cqjvJOYoWWtV9JJOUdHmK75cTOSTqqsMREQjIa3Q333ciahBotN8qk5GKhxD2fDq7uMbPYq3wCIWlPEIF7LsX2baM92t-IBbEkrrwJMVj4zg_ECjPZXlp6lcapdqexbwfmUswxfTS9s3EomwIY8JtsrH9xIpMFd5KqXPmVaqXqLmC51m6WAJUppHi6rhSrFb3sQfAH5OpwZ1mQkwDb4Kog1DICSA1vA6JDe-n9U4XbjPA-8DKwPCl2CQcIuKJAspvCCHOvfkdtbCOAmJdXUobRsnyWDwVmeNpVscssaiDtsmz7Bzm7j6bDs08ydEVHfTBweT8ghcNRLcs40pVa9VJjTQkdY-gFTmsI1weg6lklVMhQuQ6ZdcdTKjUx0vRfFJM0bAQuYEkyd?></g></svg>