<?plantuml 1.2026.1?><svg xmlns="http://www.w3.org/2000/svg" xmlns:xlink="http://www.w3.org/1999/xlink" contentStyleType="text/css" data-diagram-type="DESCRIPTION" height="545px" preserveAspectRatio="none" style="width:932px;height:545px;background:#FFFFFF;" version="1.1" viewBox="0 0 932 545" width="932px" zoomAndPan="magnify"><title>Outbox Pattern &#8212; Transactional Event Publishing</title><defs/><g><g class="title" data-source-line="1"><text fill="#000000" font-family="sans-serif" font-size="14" font-weight="bold" lengthAdjust="spacing" textLength="390.1064" x="264.2949" y="22.9951">Outbox Pattern &#8212; Transactional Event Publishing</text></g><g class="legend" data-source-line="62"><rect fill="#DDDDDD" height="91.4844" rx="7.5" ry="7.5" style="stroke:#000000;stroke-width:1;" width="278.5293" x="320.0835" y="49.2969"/><text fill="#000000" font-family="sans-serif" font-size="14" lengthAdjust="spacing" textLength="131.4482" x="325.0835" y="67.292">Color | Component</text><text fill="#000000" font-family="sans-serif" font-size="14" lengthAdjust="spacing" textLength="13.3574" x="325.0835" y="83.5889">1.</text><text fill="#000000" font-family="sans-serif" font-size="14" lengthAdjust="spacing" textLength="211.0049" x="342.8911" y="83.5889">2B579A | Order Service (Blue)</text><text fill="#000000" font-family="sans-serif" font-size="14" lengthAdjust="spacing" textLength="13.3574" x="325.0835" y="99.8857">2.</text><text fill="#000000" font-family="sans-serif" font-size="14" lengthAdjust="spacing" textLength="250.7217" x="342.8911" y="99.8857">66B032 | Order DB, Outbox (Green)</text><text fill="#000000" font-family="sans-serif" font-size="14" lengthAdjust="spacing" textLength="13.3574" x="325.0835" y="116.1826">3.</text><text fill="#000000" font-family="sans-serif" font-size="14" lengthAdjust="spacing" textLength="150.0557" x="342.8911" y="116.1826">F5EBDC | Relay (Tan)</text><text fill="#000000" font-family="sans-serif" font-size="14" lengthAdjust="spacing" textLength="13.3574" x="325.0835" y="132.4795">4.</text><text fill="#000000" font-family="sans-serif" font-size="14" lengthAdjust="spacing" textLength="180.6875" x="342.8911" y="132.4795">B22222 | Event Bus (Red)</text></g><!--entity Client--><g class="entity" data-qualified-name="Client" data-source-line="3" id="ent0002"><ellipse cx="26.2651" cy="238.9912" fill="#F1F1F1" rx="8" ry="8" style="stroke:#181818;stroke-width:0.5;"/><path d="M26.2651,246.9912 L26.2651,273.9913 M13.2651,254.9912 L39.2651,254.9912 M26.2651,273.9913 L13.2651,288.9913 M26.2651,273.9913 L39.2651,288.9913" fill="none" style="stroke:#181818;stroke-width:0.5;"/><text fill="#000000" font-family="sans-serif" font-size="14" lengthAdjust="spacing" textLength="40.5303" x="6" y="303.4864">Client</text></g><!--entity Order Service--><g class="entity" data-qualified-name="Order Service" data-source-line="4" id="ent0003"><rect fill="#2B579A" height="46.2969" rx="4" ry="4" style="stroke:#000000;stroke-width:3;" width="136.2227" x="167.15" y="245.4912"/><rect fill="#2B579A" height="10" style="stroke:#000000;stroke-width:3;" width="15" x="283.3727" y="250.4912"/><rect fill="#2B579A" height="2" style="stroke:#000000;stroke-width:3;" width="4" x="281.3727" y="252.4912"/><rect fill="#2B579A" height="2" style="stroke:#000000;stroke-width:3;" width="4" x="281.3727" y="256.4913"/><text fill="#FFFFFF" font-family="sans-serif" font-size="14" lengthAdjust="spacing" textLength="96.2227" x="182.15" y="278.4864">Order Service</text></g><!--entity Order DB--><g class="entity" data-qualified-name="Order DB" data-source-line="5" id="ent0004"><path d="M830.83,255.9912 C830.83,245.9912 873.2631,245.9912 873.2631,245.9912 C873.2631,245.9912 915.6962,245.9912 915.6962,255.9912 L915.6962,281.2881 C915.6962,291.2881 873.2631,291.2881 873.2631,291.2881 C873.2631,291.2881 830.83,291.2881 830.83,281.2881 L830.83,255.9912" fill="#66B032" style="stroke:#000000;stroke-width:3;"/><path d="M830.83,255.9912 C830.83,265.9913 873.2631,265.9913 873.2631,265.9913 C873.2631,265.9913 915.6962,265.9913 915.6962,255.9912" fill="none" style="stroke:#000000;stroke-width:3;"/><text fill="#000000" font-family="sans-serif" font-size="14" lengthAdjust="spacing" textLength="64.8662" x="840.83" y="282.9864">Order DB</text></g><!--entity Outbox Table--><g class="entity" data-qualified-name="Outbox Table" data-source-line="6" id="ent0005"><path d="M436.22,255.9912 C436.22,245.9912 493.2649,245.9912 493.2649,245.9912 C493.2649,245.9912 550.3098,245.9912 550.3098,255.9912 L550.3098,281.2881 C550.3098,291.2881 493.2649,291.2881 493.2649,291.2881 C493.2649,291.2881 436.22,291.2881 436.22,281.2881 L436.22,255.9912" fill="#66B032" style="stroke:#000000;stroke-width:3;"/><path d="M436.22,255.9912 C436.22,265.9913 493.2649,265.9913 493.2649,265.9913 C493.2649,265.9913 550.3098,265.9913 550.3098,255.9912" fill="none" style="stroke:#000000;stroke-width:3;"/><text fill="#000000" font-family="sans-serif" font-size="14" lengthAdjust="spacing" textLength="94.0898" x="446.22" y="282.9864">Outbox Table</text></g><!--entity Event Relay--><g class="entity" data-qualified-name="Event Relay" data-source-line="7" id="ent0006"><rect fill="#2B579A" height="46.2969" rx="4" ry="4" style="stroke:#000000;stroke-width:3;" width="123.6514" x="431.44" y="388.4712"/><rect fill="#2B579A" height="10" style="stroke:#000000;stroke-width:3;" width="15" x="535.0914" y="393.4712"/><rect fill="#2B579A" height="2" style="stroke:#000000;stroke-width:3;" width="4" x="533.0914" y="395.4712"/><rect fill="#2B579A" height="2" style="stroke:#000000;stroke-width:3;" width="4" x="533.0914" y="399.4712"/><text fill="#FFFFFF" font-family="sans-serif" font-size="14" lengthAdjust="spacing" textLength="83.6514" x="446.44" y="421.4664">Event Relay</text></g><!--entity Event Bus--><g class="entity" data-qualified-name="Event Bus" data-source-line="8" id="ent0007"><path d="M453.1,511.7612 L533.4281,511.7612 C538.4281,511.7612 538.4281,524.9097 538.4281,524.9097 C538.4281,524.9097 538.4281,538.0581 533.4281,538.0581 L453.1,538.0581 C448.1,538.0581 448.1,524.9097 448.1,524.9097 C448.1,524.9097 448.1,511.7612 453.1,511.7612" fill="#B22222" style="stroke:#000000;stroke-width:3;"/><path d="M533.4281,511.7612 C528.4281,511.7612 528.4281,524.9097 528.4281,524.9097 C528.4281,538.0581 533.4281,538.0581 533.4281,538.0581" fill="none" style="stroke:#000000;stroke-width:3;"/><text fill="#FFFFFF" font-family="sans-serif" font-size="14" lengthAdjust="spacing" textLength="70.3281" x="453.1" y="529.7564">Event Bus</text></g><g class="entity" data-qualified-name="GMN17" data-source-line="55" id="ent0018"><path d="M585.12,225.8012 L585.12,264.6312 L550.6,268.6312 L585.12,272.6312 L585.12,311.4653 A0,0 0 0 0 585.12,311.4653 L795.4135,311.4653 A0,0 0 0 0 795.4135,311.4653 L795.4135,235.8012 L785.4135,225.8012 L585.12,225.8012 A0,0 0 0 0 585.12,225.8012" fill="#FEFFDD" style="stroke:#181818;stroke-width:0.5;"/><path d="M785.4135,225.8012 L785.4135,235.8012 L795.4135,235.8012 L785.4135,225.8012" fill="#FEFFDD" style="stroke:#181818;stroke-width:0.5;"/><text fill="#000000" font-family="sans-serif" font-size="13" lengthAdjust="spacing" textLength="80.0757" x="591.12" y="242.8681">Guarantees:</text><text fill="#000000" font-family="sans-serif" font-size="13" lengthAdjust="spacing" textLength="108.3545" x="591.12" y="258.001">- Events in same</text><text fill="#000000" font-family="sans-serif" font-size="13" lengthAdjust="spacing" textLength="73.436" x="599.3846" y="273.1338">transaction</text><text fill="#000000" font-family="sans-serif" font-size="13" lengthAdjust="spacing" textLength="151.3154" x="591.12" y="288.2666">- At-least-once delivery</text><text fill="#000000" font-family="sans-serif" font-size="13" lengthAdjust="spacing" textLength="189.2935" x="591.12" y="303.3994">- Idempotency by consumers</text></g><!--link Client to Order Service--><g class="link" data-entity-1="ent0002" data-entity-2="ent0003" data-link-type="dependency" data-source-line="44" id="lnk8"><path d="M46.69,268.6312 C74.32,268.6312 118.97,268.6312 160.82,268.6312" fill="none" id="Client-to-Order Service" style="stroke:#181818;stroke-width:1;"/><polygon fill="#181818" points="166.82,268.6312,157.82,264.6312,161.82,268.6312,157.82,272.6312,166.82,268.6312" style="stroke:#181818;stroke-width:1;"/><text fill="#000000" font-family="sans-serif" font-size="13" lengthAdjust="spacing" textLength="84.4429" x="64.84" y="261.6981">POST /orders</text></g><!--link Order Service to Order DB--><g class="link" data-entity-1="ent0003" data-entity-2="ent0004" data-link-type="dependency" data-source-line="45" id="lnk9"><path d="M297.35,245.0313 C392.41,212.0812 579.49,159.7813 736.27,192.3612 C777.04,200.8312 813.1719,222.8863 839.5319,242.1063" fill="none" id="Order Service-to-Order DB" style="stroke:#181818;stroke-width:1;"/><polygon fill="#181818" points="844.38,245.6412,839.4644,237.1068,840.3399,242.6955,834.7512,243.5709,844.38,245.6412" style="stroke:#181818;stroke-width:1;"/><text fill="#000000" font-family="sans-serif" font-size="13" lengthAdjust="spacing" textLength="86.0234" x="649.27" y="191.8681">INSERT order</text></g><!--link Order Service to Order DB--><g class="link" data-entity-1="ent0003" data-entity-2="ent0004" data-link-type="dependency" data-source-line="47" id="lnk11"><path d="M297.35,245.0313 C392.41,212.0812 579.49,159.7813 736.27,192.3612 C777.04,200.8312 813.1719,222.8863 839.5319,242.1063" fill="none" id="Order Service-to-Order DB-1" style="stroke:#181818;stroke-width:1;"/><polygon fill="#181818" points="844.38,245.6412,839.4644,237.1068,840.3399,242.6955,834.7512,243.5709,844.38,245.6412" style="stroke:#181818;stroke-width:1;"/><text fill="#000000" font-family="sans-serif" font-size="13" lengthAdjust="spacing" textLength="53.5171" x="665.77" y="191.8681">COMMIT</text></g><!--link Order Service to Outbox Table--><g class="link" data-entity-1="ent0003" data-entity-2="ent0005" data-link-type="dependency" data-source-line="46" id="lnk10"><path d="M303.73,268.6312 C344.93,268.6312 390.79,268.6312 429.84,268.6312" fill="none" id="Order Service-to-Outbox Table" style="stroke:#181818;stroke-width:1;"/><polygon fill="#181818" points="435.84,268.6312,426.84,264.6312,430.84,268.6312,426.84,272.6312,435.84,268.6312" style="stroke:#181818;stroke-width:1;"/><text fill="#000000" font-family="sans-serif" font-size="13" lengthAdjust="spacing" textLength="96.3193" x="321.8" y="261.6981">INSERT outbox</text></g><!--link Event Relay to Outbox Table--><g class="link" data-entity-1="ent0006" data-entity-2="ent0005" data-link-type="dependency" data-source-line="48" id="lnk12"><path d="M491.68,388.0413 C491.11,378.8713 490.54,368.1713 490.27,358.4712 C489.61,335.6413 490.36,315.501 491.41,297.531" fill="none" id="Event Relay-to-Outbox Table" style="stroke:#181818;stroke-width:1;"/><polygon fill="#181818" points="491.76,291.5413,487.2418,300.2926,491.4683,296.5327,495.2282,300.7593,491.76,291.5413" style="stroke:#181818;stroke-width:1;"/><text fill="#000000" font-family="sans-serif" font-size="13" lengthAdjust="spacing" textLength="48.9404" x="491.27" y="354.5381">SELECT</text></g><!--link Outbox Table to Event Relay--><g class="link" data-entity-1="ent0005" data-entity-2="ent0006" data-link-type="dependency" data-source-line="49" id="lnk13"><path d="M471.59,291.7012 C456.99,309.3412 441.81,334.9213 450.27,358.4712 C454.19,369.4013 457.5376,375.1845 465.0376,383.6745" fill="none" id="Outbox Table-to-Event Relay" style="stroke:#181818;stroke-width:1;"/><polygon fill="#181818" points="469.01,388.1713,466.0493,378.778,465.6997,384.424,460.0537,384.0744,469.01,388.1713" style="stroke:#181818;stroke-width:1;"/><text fill="#000000" font-family="sans-serif" font-size="13" lengthAdjust="spacing" textLength="30.7036" x="451.27" y="354.5381">rows</text></g><!--link Event Relay to Outbox Table--><g class="link" data-entity-1="ent0006" data-entity-2="ent0005" data-link-type="dependency" data-source-line="52" id="lnk16"><path d="M524.77,388.1713 C538.28,375.5912 549.84,358.9512 544.27,341.4712 C538.32,322.8113 529.4489,309.4388 518.1789,296.1388" fill="none" id="Event Relay-to-Outbox Table-1" style="stroke:#181818;stroke-width:1;"/><polygon fill="#181818" points="514.3,291.5613,517.0666,301.0135,517.5324,295.3759,523.1701,295.8417,514.3,291.5613" style="stroke:#181818;stroke-width:1;"/><text fill="#000000" font-family="sans-serif" font-size="13" lengthAdjust="spacing" textLength="49.8354" x="547.27" y="354.5381">DELETE</text></g><!--link Event Relay to Event Bus--><g class="link" data-entity-1="ent0006" data-entity-2="ent0007" data-link-type="dependency" data-source-line="50" id="lnk14"><path d="M466.3,435.2012 C458.28,443.5712 450.5,453.7313 446.27,464.7612 C439.21,483.1312 451.666,496.8102 467.246,507.8602" fill="none" id="Event Relay-to-Event Bus" style="stroke:#181818;stroke-width:1;"/><polygon fill="#181818" points="472.14,511.3312,467.113,502.862,468.0616,508.4387,462.4849,509.3873,472.14,511.3312" style="stroke:#181818;stroke-width:1;"/><text fill="#000000" font-family="sans-serif" font-size="13" lengthAdjust="spacing" textLength="46.979" x="447.27" y="477.8281">publish</text></g><!--link Event Bus to Event Relay--><g class="link" data-entity-1="ent0007" data-entity-2="ent0006" data-link-type="dependency" data-source-line="51" id="lnk15"><path d="M495.14,511.4012 C496.3,503.0413 497.67,491.7712 498.27,481.7612 C499.19,466.1412 498.5411,454.5247 497.0411,440.9947" fill="none" id="Event Bus-to-Event Relay" style="stroke:#181818;stroke-width:1;"/><polygon fill="#181818" points="496.38,435.0313,493.3961,444.4172,496.9309,440.0008,501.3473,443.5357,496.38,435.0313" style="stroke:#181818;stroke-width:1;"/><text fill="#000000" font-family="sans-serif" font-size="13" lengthAdjust="spacing" textLength="22.6421" x="500.27" y="477.8281">ack</text></g><?plantuml-src lLJRZjem47ttLupIXsMbHLsnscsNXqeR22kaKX3a1vna00jZKzjXYzfA_OX-OR-a4vjRAAXzQEkNA6VEZ8_dveIJ2CFIPVeJZBXpQ1Jy-FOTKiELvRaJMd49oHgLWr6PIM7dGiqO8vCs47Ma84l4ShrSQLMHeg4fqC04pLha6B62EvvnYpj3DwvXuUQKPn9hKSADOvHy4x6F9PQum-BIHenTGKTBKb3WL2XHoRHGMf86TY7KYXk-X4pgV67P0JZ4_yo0JippnSpeKXKXsAjMVF_cySdRUbgvBThp9tZewX5R_DQV8poTYtoXq5guy-WuX3QAtlsMVML7KlOfkA3auI6-lMkTAldbnh-W92JtWeouLPt_aH23kUDg9YzAwTqdSRVpxp9o1GCk54obVc6XhQ7vxhITeGsZuII5rpwcPQVcWmVrEP7x7oR9E0NFFay-7e0Z1m__DdndE1ZqKrQRbhDX9ydxf4F4Ejwig3NVDXZzOiy4FCmUSLPX4R1Zz5miAk4VQEkIjZHXJ6c7OCHixa1FJrS3m7D9VQ8SectJNpFi90jKCikNw6lg3alBKvvSKoAthgbLZhGgf5YZsNXJlq3Q1GvLle5iGvj1sN9PLHHL0PKInYJEgX-dL-GHskeBVRShXB3jkY2qLYPenBB4wueGfdXFwCOtkrtRU3Q8ofD2OnF9vmWQAGzuc3t2zrc6nXYBwqfYqCP-0W00?></g></svg>