<?plantuml 1.2026.1?><svg xmlns="http://www.w3.org/2000/svg" xmlns:xlink="http://www.w3.org/1999/xlink" contentStyleType="text/css" data-diagram-type="DESCRIPTION" height="348px" preserveAspectRatio="none" style="width:3328px;height:348px;background:#FFFFFF;" version="1.1" viewBox="0 0 3328 348" width="3328px" zoomAndPan="magnify"><title>Hexagonal Architecture &#8212; Ports &amp; Adapters</title><defs/><g><g class="title" data-source-line="1"><text fill="#000000" font-family="sans-serif" font-size="14" font-weight="bold" lengthAdjust="spacing" textLength="346.0283" x="1484.4401" y="22.9951">Hexagonal Architecture &#8212; Ports &amp; Adapters</text></g><g class="legend" data-source-line="88"><rect fill="#DDDDDD" height="75.1875" rx="7.5" ry="7.5" style="stroke:#000000;stroke-width:1;" width="216.7256" x="1549.0915" y="49.2969"/><text fill="#000000" font-family="sans-serif" font-size="14" lengthAdjust="spacing" textLength="114.1191" x="1554.0915" y="67.292">Color | Category</text><text fill="#000000" font-family="sans-serif" font-size="14" lengthAdjust="spacing" textLength="13.3574" x="1554.0915" y="83.5889">1.</text><text fill="#000000" font-family="sans-serif" font-size="14" lengthAdjust="spacing" textLength="169.1074" x="1571.8991" y="83.5889">2B579A | Domain (Blue)</text><text fill="#000000" font-family="sans-serif" font-size="14" lengthAdjust="spacing" textLength="13.3574" x="1554.0915" y="99.8857">2.</text><text fill="#000000" font-family="sans-serif" font-size="14" lengthAdjust="spacing" textLength="188.918" x="1571.8991" y="99.8857">66B032 | Adapters (Green)</text><text fill="#000000" font-family="sans-serif" font-size="14" lengthAdjust="spacing" textLength="13.3574" x="1554.0915" y="116.1826">3.</text><text fill="#000000" font-family="sans-serif" font-size="14" lengthAdjust="spacing" textLength="146.5078" x="1571.8991" y="116.1826">F5EBDC | Ports (Tan)</text></g><!--cluster Domain--><g class="cluster" data-qualified-name="Domain" data-source-line="3" id="ent0002"><path d="M819.5,228.4644 L880.54,228.4644 A3.75,3.75 0 0 1 883.04,230.9644 L890.04,250.7613 L1479.5,250.7613 A2.5,2.5 0 0 1 1482,253.2613 L1482,339.2644 A2.5,2.5 0 0 1 1479.5,341.7644 L819.5,341.7644 A2.5,2.5 0 0 1 817,339.2644 L817,230.9644 A2.5,2.5 0 0 1 819.5,228.4644" fill="none" style="stroke:#000000;stroke-width:1.5;"/><line style="stroke:#000000;stroke-width:1.5;" x1="817" x2="890.04" y1="250.7613" y2="250.7613"/><text fill="#000000" font-family="sans-serif" font-size="14" font-weight="bold" lengthAdjust="spacing" textLength="60.04" x="821" y="243.4595">Domain</text></g><!--cluster Driving Adapters (Input)--><g class="cluster" data-qualified-name="Driving Adapters .Input." data-source-line="9" id="ent0006"><path d="M8.5,228.4644 L202.8887,228.4644 A3.75,3.75 0 0 1 205.3887,230.9644 L212.3887,250.7613 L774.5,250.7613 A2.5,2.5 0 0 1 777,253.2613 L777,339.2644 A2.5,2.5 0 0 1 774.5,341.7644 L8.5,341.7644 A2.5,2.5 0 0 1 6,339.2644 L6,230.9644 A2.5,2.5 0 0 1 8.5,228.4644" fill="none" style="stroke:#000000;stroke-width:1.5;"/><line style="stroke:#000000;stroke-width:1.5;" x1="6" x2="212.3887" y1="250.7613" y2="250.7613"/><text fill="#000000" font-family="sans-serif" font-size="14" font-weight="bold" lengthAdjust="spacing" textLength="193.3887" x="10" y="243.4595">Driving Adapters (Input)</text></g><!--cluster Driven Adapters (Output)--><g class="cluster" data-qualified-name="Driven Adapters .Output." data-source-line="16" id="ent0011"><path d="M1524.5,228.4644 L1726.9482,228.4644 A3.75,3.75 0 0 1 1729.4482,230.9644 L1736.4482,250.7613 L2293.5,250.7613 A2.5,2.5 0 0 1 2296,253.2613 L2296,339.2644 A2.5,2.5 0 0 1 2293.5,341.7644 L1524.5,341.7644 A2.5,2.5 0 0 1 1522,339.2644 L1522,230.9644 A2.5,2.5 0 0 1 1524.5,228.4644" fill="none" style="stroke:#000000;stroke-width:1.5;"/><line style="stroke:#000000;stroke-width:1.5;" x1="1522" x2="1736.4482" y1="250.7613" y2="250.7613"/><text fill="#000000" font-family="sans-serif" font-size="14" font-weight="bold" lengthAdjust="spacing" textLength="201.4482" x="1526" y="243.4595">Driven Adapters (Output)</text></g><!--entity Order Aggregate--><g class="entity" data-qualified-name="Domain.Order Aggregate" data-source-line="4" id="ent0003"><rect fill="#F5EBDC" height="46.2969" rx="4" ry="4" style="stroke:#000000;stroke-width:3;" width="157.7695" x="1073.12" y="271.4644"/><rect fill="#F5EBDC" height="10" style="stroke:#000000;stroke-width:3;" width="15" x="1210.8895" y="276.4644"/><rect fill="#F5EBDC" height="2" style="stroke:#000000;stroke-width:3;" width="4" x="1208.8895" y="278.4644"/><rect fill="#F5EBDC" height="2" style="stroke:#000000;stroke-width:3;" width="4" x="1208.8895" y="282.4644"/><text fill="#000000" font-family="sans-serif" font-size="14" lengthAdjust="spacing" textLength="117.7695" x="1088.12" y="304.4595">Order Aggregate</text></g><!--entity Order Repository Port--><g class="entity" data-qualified-name="Domain.Order Repository Port" data-source-line="5" id="ent0004"><rect fill="#F5EBDC" height="46.2969" rx="4" ry="4" style="stroke:#000000;stroke-width:3;" width="192.2568" x="1265.87" y="271.4644"/><rect fill="#F5EBDC" height="10" style="stroke:#000000;stroke-width:3;" width="15" x="1438.1268" y="276.4644"/><rect fill="#F5EBDC" height="2" style="stroke:#000000;stroke-width:3;" width="4" x="1436.1268" y="278.4644"/><rect fill="#F5EBDC" height="2" style="stroke:#000000;stroke-width:3;" width="4" x="1436.1268" y="282.4644"/><text fill="#000000" font-family="sans-serif" font-size="14" lengthAdjust="spacing" textLength="152.2568" x="1280.87" y="304.4595">Order Repository Port</text></g><!--entity Order UseCase Port--><g class="entity" data-qualified-name="Domain.Order UseCase Port" data-source-line="6" id="ent0005"><rect fill="#F5EBDC" height="46.2969" rx="4" ry="4" style="stroke:#000000;stroke-width:3;" width="177.6006" x="860.2" y="271.4644"/><rect fill="#F5EBDC" height="10" style="stroke:#000000;stroke-width:3;" width="15" x="1017.8006" y="276.4644"/><rect fill="#F5EBDC" height="2" style="stroke:#000000;stroke-width:3;" width="4" x="1015.8006" y="278.4644"/><rect fill="#F5EBDC" height="2" style="stroke:#000000;stroke-width:3;" width="4" x="1015.8006" y="282.4644"/><text fill="#000000" font-family="sans-serif" font-size="14" lengthAdjust="spacing" textLength="137.6006" x="875.2" y="304.4595">Order UseCase Port</text></g><!--entity REST Controller--><g class="entity" data-qualified-name="Driving Adapters .Input..REST Controller" data-source-line="10" id="ent0007"><rect fill="#F5EBDC" height="46.2969" rx="4" ry="4" style="stroke:#000000;stroke-width:3;" width="149.6348" x="603.18" y="271.4644"/><rect fill="#F5EBDC" height="10" style="stroke:#000000;stroke-width:3;" width="15" x="732.8148" y="276.4644"/><rect fill="#F5EBDC" height="2" style="stroke:#000000;stroke-width:3;" width="4" x="730.8148" y="278.4644"/><rect fill="#F5EBDC" height="2" style="stroke:#000000;stroke-width:3;" width="4" x="730.8148" y="282.4644"/><text fill="#000000" font-family="sans-serif" font-size="14" lengthAdjust="spacing" textLength="109.6348" x="618.18" y="304.4595">REST Controller</text></g><!--entity CLI Command--><g class="entity" data-qualified-name="Driving Adapters .Input..CLI Command" data-source-line="11" id="ent0008"><rect fill="#F5EBDC" height="46.2969" rx="4" ry="4" style="stroke:#000000;stroke-width:3;" width="138.1094" x="429.95" y="271.4644"/><rect fill="#F5EBDC" height="10" style="stroke:#000000;stroke-width:3;" width="15" x="548.0594" y="276.4644"/><rect fill="#F5EBDC" height="2" style="stroke:#000000;stroke-width:3;" width="4" x="546.0594" y="278.4644"/><rect fill="#F5EBDC" height="2" style="stroke:#000000;stroke-width:3;" width="4" x="546.0594" y="282.4644"/><text fill="#000000" font-family="sans-serif" font-size="14" lengthAdjust="spacing" textLength="98.1094" x="444.95" y="304.4595">CLI Command</text></g><!--entity gRPC Service--><g class="entity" data-qualified-name="Driving Adapters .Input..gRPC Service" data-source-line="12" id="ent0009"><rect fill="#F5EBDC" height="46.2969" rx="4" ry="4" style="stroke:#000000;stroke-width:3;" width="133.0234" x="261.49" y="271.4644"/><rect fill="#F5EBDC" height="10" style="stroke:#000000;stroke-width:3;" width="15" x="374.5134" y="276.4644"/><rect fill="#F5EBDC" height="2" style="stroke:#000000;stroke-width:3;" width="4" x="372.5134" y="278.4644"/><rect fill="#F5EBDC" height="2" style="stroke:#000000;stroke-width:3;" width="4" x="372.5134" y="282.4644"/><text fill="#000000" font-family="sans-serif" font-size="14" lengthAdjust="spacing" textLength="93.0234" x="276.49" y="304.4595">gRPC Service</text></g><!--entity Message Consumer--><g class="entity" data-qualified-name="Driving Adapters .Input..Message Consumer" data-source-line="13" id="ent0010"><rect fill="#F5EBDC" height="46.2969" rx="4" ry="4" style="stroke:#000000;stroke-width:3;" width="177.1973" x="49.4" y="271.4644"/><rect fill="#F5EBDC" height="10" style="stroke:#000000;stroke-width:3;" width="15" x="206.5973" y="276.4644"/><rect fill="#F5EBDC" height="2" style="stroke:#000000;stroke-width:3;" width="4" x="204.5973" y="278.4644"/><rect fill="#F5EBDC" height="2" style="stroke:#000000;stroke-width:3;" width="4" x="204.5973" y="282.4644"/><text fill="#000000" font-family="sans-serif" font-size="14" lengthAdjust="spacing" textLength="137.1973" x="64.4" y="304.4595">Message Consumer</text></g><!--entity JPA Repository--><g class="entity" data-qualified-name="Driven Adapters .Output..JPA Repository" data-source-line="17" id="ent0012"><rect fill="#F5EBDC" height="46.2969" rx="4" ry="4" style="stroke:#000000;stroke-width:3;" width="141.6709" x="1929.16" y="271.4644"/><rect fill="#F5EBDC" height="10" style="stroke:#000000;stroke-width:3;" width="15" x="2050.8309" y="276.4644"/><rect fill="#F5EBDC" height="2" style="stroke:#000000;stroke-width:3;" width="4" x="2048.8309" y="278.4644"/><rect fill="#F5EBDC" height="2" style="stroke:#000000;stroke-width:3;" width="4" x="2048.8309" y="282.4644"/><text fill="#000000" font-family="sans-serif" font-size="14" lengthAdjust="spacing" textLength="101.6709" x="1944.16" y="304.4595">JPA Repository</text></g><!--entity PostgreSQL Client--><g class="entity" data-qualified-name="Driven Adapters .Output..PostgreSQL Client" data-source-line="18" id="ent0013"><rect fill="#F5EBDC" height="46.2969" rx="4" ry="4" style="stroke:#000000;stroke-width:3;" width="165.7334" x="2106.13" y="271.4644"/><rect fill="#F5EBDC" height="10" style="stroke:#000000;stroke-width:3;" width="15" x="2251.8634" y="276.4644"/><rect fill="#F5EBDC" height="2" style="stroke:#000000;stroke-width:3;" width="4" x="2249.8634" y="278.4644"/><rect fill="#F5EBDC" height="2" style="stroke:#000000;stroke-width:3;" width="4" x="2249.8634" y="282.4644"/><text fill="#000000" font-family="sans-serif" font-size="14" lengthAdjust="spacing" textLength="125.7334" x="2121.13" y="304.4595">PostgreSQL Client</text></g><!--entity Kafka Producer--><g class="entity" data-qualified-name="Driven Adapters .Output..Kafka Producer" data-source-line="19" id="ent0014"><rect fill="#F5EBDC" height="46.2969" rx="4" ry="4" style="stroke:#000000;stroke-width:3;" width="146.415" x="1747.79" y="271.4644"/><rect fill="#F5EBDC" height="10" style="stroke:#000000;stroke-width:3;" width="15" x="1874.205" y="276.4644"/><rect fill="#F5EBDC" height="2" style="stroke:#000000;stroke-width:3;" width="4" x="1872.205" y="278.4644"/><rect fill="#F5EBDC" height="2" style="stroke:#000000;stroke-width:3;" width="4" x="1872.205" y="282.4644"/><text fill="#000000" font-family="sans-serif" font-size="14" lengthAdjust="spacing" textLength="106.415" x="1762.79" y="304.4595">Kafka Producer</text></g><!--entity Stripe Gateway--><g class="entity" data-qualified-name="Driven Adapters .Output..Stripe Gateway" data-source-line="20" id="ent0015"><rect fill="#F5EBDC" height="46.2969" rx="4" ry="4" style="stroke:#000000;stroke-width:3;" width="147.8164" x="1565.09" y="271.4644"/><rect fill="#F5EBDC" height="10" style="stroke:#000000;stroke-width:3;" width="15" x="1692.9064" y="276.4644"/><rect fill="#F5EBDC" height="2" style="stroke:#000000;stroke-width:3;" width="4" x="1690.9064" y="278.4644"/><rect fill="#F5EBDC" height="2" style="stroke:#000000;stroke-width:3;" width="4" x="1690.9064" y="282.4644"/><text fill="#000000" font-family="sans-serif" font-size="14" lengthAdjust="spacing" textLength="107.8164" x="1580.09" y="304.4595">Stripe Gateway</text></g><!--entity Infrastructure--><g class="entity" data-qualified-name="Infrastructure" data-source-line="36" id="ent0016"><path d="M3053.06,274.9644 L3176.9321,274.9644 A3.75,3.75 0 0 1 3179.4321,277.4644 L3186.4321,297.2613 L3200.9321,297.2613 A2.5,2.5 0 0 1 3203.4321,299.7613 L3203.4321,311.7613 A2.5,2.5 0 0 1 3200.9321,314.2613 L3053.06,314.2613 A2.5,2.5 0 0 1 3050.56,311.7613 L3050.56,277.4644 A2.5,2.5 0 0 1 3053.06,274.9644" fill="none" style="stroke:#181818;stroke-width:0.5;"/><line style="stroke:#181818;stroke-width:0.5;" x1="3050.56" x2="3186.4321" y1="297.2613" y2="297.2613"/><text fill="#000000" font-family="sans-serif" font-size="14" font-weight="bold" lengthAdjust="spacing" textLength="110.8721" x="3060.56" y="290.9595">Infrastructure</text></g><!--entity Ports--><g class="entity" data-qualified-name="Ports" data-source-line="47" id="ent0017"><path d="M3240.6,274.9644 L3295.4086,274.9644 A3.75,3.75 0 0 1 3297.9086,277.4644 L3304.9086,297.2613 L3319.4086,297.2613 A2.5,2.5 0 0 1 3321.9086,299.7613 L3321.9086,311.7613 A2.5,2.5 0 0 1 3319.4086,314.2613 L3240.6,314.2613 A2.5,2.5 0 0 1 3238.1,311.7613 L3238.1,277.4644 A2.5,2.5 0 0 1 3240.6,274.9644" fill="none" style="stroke:#181818;stroke-width:0.5;"/><line style="stroke:#181818;stroke-width:0.5;" x1="3238.1" x2="3304.9086" y1="297.2613" y2="297.2613"/><text fill="#000000" font-family="sans-serif" font-size="14" font-weight="bold" lengthAdjust="spacing" textLength="41.8086" x="3248.1" y="290.9595">Ports</text></g><g class="entity" data-qualified-name="GMN26" data-source-line="69" id="ent0027"><path d="M2320.12,251.7844 L2320.12,337.4484 L2505.8861,337.4484 L2505.8861,261.7844 L2495.8861,251.7844 L2320.12,251.7844" fill="#FEFFDD" style="stroke:#181818;stroke-width:0.5;"/><path d="M2495.8861,251.7844 L2495.8861,261.7844 L2505.8861,261.7844 L2495.8861,251.7844" fill="#FEFFDD" style="stroke:#181818;stroke-width:1;"/><text fill="#000000" font-family="sans-serif" font-size="13" lengthAdjust="spacing" textLength="164.7661" x="2326.12" y="268.8513">Domain (Inner Hexagon):</text><text fill="#000000" font-family="sans-serif" font-size="13" lengthAdjust="spacing" textLength="129.0542" x="2326.12" y="283.9841">Pure business logic.</text><text fill="#000000" font-family="sans-serif" font-size="13" lengthAdjust="spacing" textLength="90.8921" x="2326.12" y="299.1169">Defines ports.</text><text fill="#000000" font-family="sans-serif" font-size="13" lengthAdjust="spacing" textLength="156.292" x="2326.12" y="314.2497">Has ZERO knowledge of</text><text fill="#000000" font-family="sans-serif" font-size="13" lengthAdjust="spacing" textLength="102.2734" x="2326.12" y="329.3825">adapters or DB.</text></g><g class="entity" data-qualified-name="GMN29" data-source-line="77" id="ent0030"><path d="M2541.2,266.9144 L2541.2,322.3128 L2740.7913,322.3128 L2740.7913,276.9144 L2730.7913,266.9144 L2541.2,266.9144" fill="#FEFFDD" style="stroke:#181818;stroke-width:0.5;"/><path d="M2730.7913,266.9144 L2730.7913,276.9144 L2740.7913,276.9144 L2730.7913,266.9144" fill="#FEFFDD" style="stroke:#181818;stroke-width:1;"/><text fill="#000000" font-family="sans-serif" font-size="13" lengthAdjust="spacing" textLength="178.5913" x="2547.2" y="283.9813">Driving Adapters (Primary):</text><text fill="#000000" font-family="sans-serif" font-size="13" lengthAdjust="spacing" textLength="119.3677" x="2547.2" y="299.1141">Trigger use-cases.</text><text fill="#000000" font-family="sans-serif" font-size="13" lengthAdjust="spacing" textLength="168.124" x="2547.2" y="314.2469">Convert external formats.</text></g><g class="entity" data-qualified-name="GMN32" data-source-line="83" id="ent0033"><path d="M2776.26,266.9144 L2776.26,322.3128 L3015.74,322.3128 L3015.74,276.9144 L3005.74,266.9144 L2776.26,266.9144" fill="#FEFFDD" style="stroke:#181818;stroke-width:0.5;"/><path d="M3005.74,266.9144 L3005.74,276.9144 L3015.74,276.9144 L3005.74,266.9144" fill="#FEFFDD" style="stroke:#181818;stroke-width:1;"/><text fill="#000000" font-family="sans-serif" font-size="13" lengthAdjust="spacing" textLength="193.1084" x="2782.26" y="283.9813">Driven Adapters (Secondary):</text><text fill="#000000" font-family="sans-serif" font-size="13" lengthAdjust="spacing" textLength="218.48" x="2782.26" y="299.1141">Implement domain-defined ports.</text><text fill="#000000" font-family="sans-serif" font-size="13" lengthAdjust="spacing" textLength="199.3735" x="2782.26" y="314.2469">Handle tech-specific concerns.</text></g><!--link REST Controller to Order UseCase Port--><g class="link" data-entity-1="ent0007" data-entity-2="ent0005" data-link-type="dependency" data-source-line="58" id="lnk18"><path d="M699.39,271.0644 C726.03,243.6544 774.42,199.9244 826.5,182.4644 C877.76,165.2844 916.9793,228.0616 935.7193,265.7616" fill="none" id="REST Controller-to-Order UseCase Port" style="stroke:#181818;stroke-width:1;"/><polygon fill="#181818" points="938.39,271.1344,937.9658,261.2947,936.1644,266.657,930.802,264.8556,938.39,271.1344" style="stroke:#181818;stroke-width:1;"/></g><!--link CLI Command to Order UseCase Port--><g class="link" data-entity-1="ent0008" data-entity-2="ent0005" data-link-type="dependency" data-source-line="59" id="lnk19"><path d="M512.41,271.2644 C529.54,244.0444 562.01,200.5144 603.5,182.4644 C651.39,161.6344 790.33,162.3044 838.5,182.4644 C881.36,200.4044 912.6661,239.006 931.1161,266.256" fill="none" id="CLI Command-to-Order UseCase Port" style="stroke:#181818;stroke-width:1;"/><polygon fill="#181818" points="934.48,271.2244,932.7464,261.5293,931.6768,267.0841,926.122,266.0145,934.48,271.2244" style="stroke:#181818;stroke-width:1;"/></g><!--link gRPC Service to Order UseCase Port--><g class="link" data-entity-1="ent0009" data-entity-2="ent0005" data-link-type="dependency" data-source-line="60" id="lnk20"><path d="M340.85,271.2844 C357.32,244.0844 388.69,200.5744 429.5,182.4644 C512.58,145.6044 754.66,147.3744 838.5,182.4644 C881.36,200.4044 912.6661,239.006 931.1161,266.256" fill="none" id="gRPC Service-to-Order UseCase Port" style="stroke:#181818;stroke-width:1;"/><polygon fill="#181818" points="934.48,271.2244,932.7464,261.5293,931.6768,267.0841,926.122,266.0145,934.48,271.2244" style="stroke:#181818;stroke-width:1;"/></g><!--link Message Consumer to Order UseCase Port--><g class="link" data-entity-1="ent0010" data-entity-2="ent0005" data-link-type="dependency" data-source-line="61" id="lnk21"><path d="M154.9,271.1544 C176.18,243.8444 215.57,200.2044 261.5,182.4644 C321.3,159.3644 779.36,157.7144 838.5,182.4644 C881.36,200.4044 912.6661,239.006 931.1161,266.256" fill="none" id="Message Consumer-to-Order UseCase Port" style="stroke:#181818;stroke-width:1;"/><polygon fill="#181818" points="934.48,271.2244,932.7464,261.5293,931.6768,267.0841,926.122,266.0145,934.48,271.2244" style="stroke:#181818;stroke-width:1;"/></g><!--link Order UseCase Port to Order Aggregate--><g class="link" data-entity-1="ent0005" data-entity-2="ent0003" data-link-type="dependency" data-source-line="63" id="lnk22"><path d="M1038.21,294.6144 C1049.77,294.6144 1055.32,294.6144 1066.88,294.6144" fill="none" id="Order UseCase Port-to-Order Aggregate" style="stroke:#181818;stroke-width:1;"/><polygon fill="#181818" points="1072.88,294.6144,1063.88,290.6144,1067.88,294.6144,1063.88,298.6144,1072.88,294.6144" style="stroke:#181818;stroke-width:1;"/></g><!--link Order Aggregate to Order Repository Port--><g class="link" data-entity-1="ent0003" data-entity-2="ent0004" data-link-type="dependency" data-source-line="64" id="lnk23"><path d="M1231.16,294.6144 C1242.57,294.6144 1247.99,294.6144 1259.4,294.6144" fill="none" id="Order Aggregate-to-Order Repository Port" style="stroke:#181818;stroke-width:1;"/><polygon fill="#181818" points="1265.4,294.6144,1256.4,290.6144,1260.4,294.6144,1256.4,298.6144,1265.4,294.6144" style="stroke:#181818;stroke-width:1;"/></g><!--link Order Repository Port to JPA Repository--><g class="link" data-entity-1="ent0004" data-entity-2="ent0012" data-link-type="dependency" data-source-line="65" id="lnk24"><path d="M1388.92,271.0644 C1419.59,245.9544 1472.38,207.7344 1525.67,192.4644 C1565.69,181.0044 1861.97,176.3044 1900.33,192.4644 C1938.01,208.3444 1965.1455,241.2333 1982.0755,266.1233" fill="none" id="Order Repository Port-to-JPA Repository" style="stroke:#181818;stroke-width:1;"/><polygon fill="#181818" points="1985.45,271.0844,1983.6956,261.393,1982.6379,266.9501,1977.0808,265.8924,1985.45,271.0844" style="stroke:#181818;stroke-width:1;"/></g><!--link JPA Repository to PostgreSQL Client--><g class="link" data-entity-1="ent0012" data-entity-2="ent0013" data-link-type="dependency" data-source-line="66" id="lnk25"><path d="M2071.24,294.6144 C2082.74,294.6144 2088.24,294.6144 2099.74,294.6144" fill="none" id="JPA Repository-to-PostgreSQL Client" style="stroke:#181818;stroke-width:1;"/><polygon fill="#181818" points="2105.74,294.6144,2096.74,290.6144,2100.74,294.6144,2096.74,298.6144,2105.74,294.6144" style="stroke:#181818;stroke-width:1;"/></g><!--link Domain to GMN26--><g class="link" data-entity-1="ent0002" data-entity-2="ent0027" data-link-type="association" data-source-line="69" id="lnk28"><path d="M830.2423,228.4557 C830.2943,228.2678 830.3466,228.0801 830.3995,227.8924 C830.5051,227.517 830.6125,227.142 830.7216,226.7674 C832.4676,220.7741 834.6645,214.8909 837.4192,209.3645 C842.9288,198.3119 850.67,188.6869 861.5,182.4644 C929.38,143.4844 2196.53,156.8544 2270.5,182.4644 C2310.07,196.1744 2346.98,225.9044 2373.32,251.3144" fill="none" id="Domain-GMN26" style="stroke:#181818;stroke-width:1;stroke-dasharray:7,7;"/></g><!--link Driving Adapters (Input) to GMN29--><g class="link" data-entity-1="ent0006" data-entity-2="ent0030" data-link-type="association" data-source-line="77" id="lnk31"><path d="M19.2423,228.4557 C19.2943,228.2678 19.3466,228.0801 19.3995,227.8924 C19.5051,227.517 19.6125,227.142 19.7216,226.7674 C21.4676,220.7741 23.6645,214.8909 26.4192,209.3645 C31.9288,198.3119 39.67,188.6869 50.5,182.4644 C109.63,148.5044 2441.34,159.3644 2505.5,182.4644 C2551.76,199.1244 2593.42,239.1844 2617.98,266.6244" fill="none" id="Driving Adapters (Input)-GMN29" style="stroke:#181818;stroke-width:1;stroke-dasharray:7,7;"/></g><!--link Driven Adapters (Output) to GMN32--><g class="link" data-entity-1="ent0011" data-entity-2="ent0033" data-link-type="association" data-source-line="83" id="lnk34"><path d="M1535.2423,228.4557 C1535.2943,228.2678 1535.3466,228.0801 1535.3995,227.8924 C1535.5051,227.517 1535.6125,227.142 1535.7216,226.7674 C1537.4676,220.7741 1539.6645,214.8909 1542.4192,209.3645 C1547.9288,198.3119 1555.67,188.6869 1566.5,182.4644 C1623.06,149.9844 2678.43,162.4244 2740.5,182.4644 C2791.5,198.9344 2839.85,239.0444 2868.72,266.5544" fill="none" id="Driven Adapters (Output)-GMN32" style="stroke:#181818;stroke-width:1;stroke-dasharray:7,7;"/></g><?plantuml-src lLNDRjim3BxxAOWCs9f3Yg95kv_3WCJfJxOEzPBiifigquuGMp8akJ_O2kmXzeHxab6oapYrtSCEywKDIOaV-P6VhB0PmXK-i5H9bi5OyvMmo6sf4Vxy-WsHqjR0QnZ7hB2eJH0KZAzPYZ2Ogfm9EO0V0T37LLueYTB2u4R7g66SfXfJPd7GxPzZeOomIZ_w93rHtmo6p60TyjHChyMTaEaM6HpCP57QOGUW-VbY2Q6ILgiiGzrA5LxFo9tdJCOjNpgFGbYWlXEyNSaNDCQ1eRjDcRkRdoD4sG1uKzeUX9-YSQCXhJoHCfQwkVXw3M4coDIA-CoIDOD8gxZa7HKkh1O5mYNHSSyUFSmtX3fJ6c9CX1HMK0bG6jVHke3HBJK-1hCMic2QvS7slqt4XFwaMfKohgvwTLH_xlP9LYACe9gInjaTggeBhKkE9wTltu-zxu8ugwqN_gjEA3SQUoaRzkLAyBKaOk34M-VLrLhIDBsh2h_KIBoCTaEzfMmc4ysCrQNVW0rH_U0x2pWxcnoT76_zZI8QO5ygfB-OTa7EybILjMIkg6fZ3uIiMxyX2-mAQP7kHPOHpmXnvUKkkndkMk3F_sFb5wVdasdu_okVOe4oHia5cg2rxZ3ws2qdUulV7xKd0VrXBJ7e3Gswh8teXdIsB8smbeBssFsHvmhptE23EdGcaCeYQ96kBAXag_hK_NgyI7OT7_KRCln0diYz7hTEJ1n_cKe5FtG7dDAWWS9Dc3DSCGFVp-Sti9RgFiEOcgSIihEDOj9qJ2U70N4B3aORJDyRuBArV94METEF7kAIBaa9Dct2Y1C77WynTuVQ0ZxG0VSS9ahdp65z4K6dnjS8zdmBv4h66mYplCWmTnjLhUB8Ap4fRgC_CgRdcTxZrSWKo4KYE2sY98MNUw0oJDqFgmfVXTkgdn3IkAH4BPbgJINZXZIdpaFdgSIAF3kONXwzizfdSjQYGWepT6chVC5V?></g></svg>