<?plantuml 1.2026.1?><svg xmlns="http://www.w3.org/2000/svg" xmlns:xlink="http://www.w3.org/1999/xlink" contentStyleType="text/css" data-diagram-type="SEQUENCE" height="1552px" preserveAspectRatio="none" style="width:1935px;height:1552px;background:#FFFFFF;" version="1.1" viewBox="0 0 1935 1552" width="1935px" zoomAndPan="magnify"><title>Event-Driven Architecture &#8212; Message Flow</title><defs/><g><text fill="#000000" font-family="sans-serif" font-size="14" font-weight="bold" lengthAdjust="spacing" textLength="340.3818" x="793.7351" y="27.9951">Event-Driven Architecture &#8212; Message Flow</text><rect fill="none" height="263.1953" style="stroke:#000000;stroke-width:1.5;" width="906.4121" x="755.3374" y="634.8359"/><g class="participant-lifeline" data-entity-uid="part1" data-qualified-name="Client" id="part1-lifeline"><g><title>External</title><rect fill="#000000" fill-opacity="0.00000" height="1196.3125" width="8" x="33.1655" y="256.375"/><line style="stroke:#181818;stroke-width:0.5;stroke-dasharray:5,5;" x1="37" x2="37" y1="256.375" y2="1452.6875"/></g></g><g class="participant-lifeline" data-entity-uid="part2" data-qualified-name="GW" id="part2-lifeline"><g><title>API</title><rect fill="#000000" fill-opacity="0.00000" height="1196.3125" width="8" x="141.6084" y="256.375"/><line style="stroke:#181818;stroke-width:0.5;stroke-dasharray:5,5;" x1="144.686" x2="144.686" y1="256.375" y2="1452.6875"/></g></g><g class="participant-lifeline" data-entity-uid="part3" data-qualified-name="OS" id="part3-lifeline"><g><title>Order</title><rect fill="#000000" fill-opacity="0.00000" height="1196.3125" width="8" x="257.7637" y="256.375"/><line style="stroke:#181818;stroke-width:0.5;stroke-dasharray:5,5;" x1="260.8931" x2="260.8931" y1="256.375" y2="1452.6875"/></g></g><g class="participant-lifeline" data-entity-uid="part4" data-qualified-name="ODB" id="part4-lifeline"><g><title>Order</title><rect fill="#000000" fill-opacity="0.00000" height="1196.3125" width="8" x="473.7231" y="256.375"/><line style="stroke:#181818;stroke-width:0.5;stroke-dasharray:5,5;" x1="477.7075" x2="477.7075" y1="256.375" y2="1452.6875"/></g></g><g class="participant-lifeline" data-entity-uid="part5" data-qualified-name="Relay" id="part5-lifeline"><g><title>Outbox</title><rect fill="#000000" fill-opacity="0.00000" height="1196.3125" width="8" x="627.7866" y="256.375"/><line style="stroke:#181818;stroke-width:0.5;stroke-dasharray:5,5;" x1="631.2271" x2="631.2271" y1="256.375" y2="1452.6875"/></g></g><g class="participant-lifeline" data-entity-uid="part6" data-qualified-name="EB" id="part6-lifeline"><g><title>Event</title><rect fill="#000000" fill-opacity="0.00000" height="1196.3125" width="8" x="791.3906" y="256.375"/><line style="stroke:#181818;stroke-width:0.5;stroke-dasharray:5,5;" x1="795.3374" x2="795.3374" y1="256.375" y2="1452.6875"/></g></g><g class="participant-lifeline" data-entity-uid="part7" data-qualified-name="PS" id="part7-lifeline"><g><title>Payment</title><rect fill="#000000" fill-opacity="0.00000" height="1196.3125" width="8" x="990.0781" y="256.375"/><line style="stroke:#181818;stroke-width:0.5;stroke-dasharray:5,5;" x1="993.1182" x2="993.1182" y1="256.375" y2="1452.6875"/></g></g><g class="participant-lifeline" data-entity-uid="part8" data-qualified-name="PDB" id="part8-lifeline"><g><title>Payment</title><rect fill="#000000" fill-opacity="0.00000" height="1196.3125" width="8" x="1125.9492" y="256.375"/><line style="stroke:#181818;stroke-width:0.5;stroke-dasharray:5,5;" x1="1128.9893" x2="1128.9893" y1="256.375" y2="1452.6875"/></g></g><g class="participant-lifeline" data-entity-uid="part9" data-qualified-name="IS" id="part9-lifeline"><g><title>Inventory</title><rect fill="#000000" fill-opacity="0.00000" height="1196.3125" width="8" x="1210.3438" y="256.375"/><line style="stroke:#181818;stroke-width:0.5;stroke-dasharray:5,5;" x1="1213.9092" x2="1213.9092" y1="256.375" y2="1452.6875"/></g></g><g class="participant-lifeline" data-entity-uid="part10" data-qualified-name="IDB" id="part10-lifeline"><g><title>Inventory</title><rect fill="#000000" fill-opacity="0.00000" height="1196.3125" width="8" x="1385.8877" y="256.375"/><line style="stroke:#181818;stroke-width:0.5;stroke-dasharray:5,5;" x1="1389.4531" x2="1389.4531" y1="256.375" y2="1452.6875"/></g></g><g class="participant-lifeline" data-entity-uid="part11" data-qualified-name="NS" id="part11-lifeline"><g><title>Notification</title><rect fill="#000000" fill-opacity="0.00000" height="1196.3125" width="8" x="1479.4868" y="256.375"/><line style="stroke:#181818;stroke-width:0.5;stroke-dasharray:5,5;" x1="1483.3223" x2="1483.3223" y1="256.375" y2="1452.6875"/></g></g><g class="participant-lifeline" data-entity-uid="part12" data-qualified-name="DLQ" id="part12-lifeline"><g><title>Dead</title><rect fill="#000000" fill-opacity="0.00000" height="1196.3125" width="8" x="1652.7495" y="256.375"/><line style="stroke:#181818;stroke-width:0.5;stroke-dasharray:5,5;" x1="1655.8691" x2="1655.8691" y1="256.375" y2="1452.6875"/></g></g><g class="participant-lifeline" data-entity-uid="part13" data-qualified-name="Ops" id="part13-lifeline"><g><title>Ops</title><rect fill="#000000" fill-opacity="0.00000" height="1196.3125" width="8" x="1822.9487" y="256.375"/><line style="stroke:#181818;stroke-width:0.5;stroke-dasharray:5,5;" x1="1826.3486" x2="1826.3486" y1="256.375" y2="1452.6875"/></g></g><g class="participant participant-head" data-entity-uid="part1" data-qualified-name="Client" id="part1-head"><text fill="#000000" font-family="sans-serif" font-size="14" lengthAdjust="spacing" textLength="58.3311" x="5" y="236.7764">External</text><text fill="#000000" font-family="sans-serif" font-size="14" lengthAdjust="spacing" textLength="40.5303" x="13.9004" y="253.0732">Client</text><ellipse cx="37.1655" cy="169.7813" fill="#E2E2F0" rx="8" ry="8" style="stroke:#000000;stroke-width:3;"/><path d="M37.1655,177.7813 L37.1655,204.7813 M24.1655,185.7813 L50.1655,185.7813 M37.1655,204.7813 L24.1655,219.7813 M37.1655,204.7813 L50.1655,219.7813" fill="none" style="stroke:#000000;stroke-width:3;"/></g><g class="participant participant-tail" data-entity-uid="part1" data-qualified-name="Client" id="part1-tail"><text fill="#000000" font-family="sans-serif" font-size="14" lengthAdjust="spacing" textLength="58.3311" x="5" y="1464.6826">External</text><text fill="#000000" font-family="sans-serif" font-size="14" lengthAdjust="spacing" textLength="40.5303" x="13.9004" y="1480.9795">Client</text><ellipse cx="37.1655" cy="1495.2813" fill="#E2E2F0" rx="8" ry="8" style="stroke:#000000;stroke-width:3;"/><path d="M37.1655,1503.2813 L37.1655,1530.2813 M24.1655,1511.2813 L50.1655,1511.2813 M37.1655,1530.2813 L24.1655,1545.2813 M37.1655,1530.2813 L50.1655,1545.2813" fill="none" style="stroke:#000000;stroke-width:3;"/></g><g class="participant participant-head" data-entity-uid="part2" data-qualified-name="GW" id="part2-head"><rect fill="#E2E2F0" height="46.5938" rx="4" ry="4" style="stroke:#000000;stroke-width:3;" width="75.8447" x="107.686" y="208.7813"/><text fill="#000000" font-family="sans-serif" font-size="14" lengthAdjust="spacing" textLength="22.1484" x="134.5342" y="228.7764">API</text><text fill="#000000" font-family="sans-serif" font-size="14" lengthAdjust="spacing" textLength="61.8447" x="114.686" y="245.0732">Gateway</text></g><g class="participant participant-tail" data-entity-uid="part2" data-qualified-name="GW" id="part2-tail"><rect fill="#E2E2F0" height="46.5938" rx="4" ry="4" style="stroke:#000000;stroke-width:3;" width="75.8447" x="107.686" y="1451.6875"/><text fill="#000000" font-family="sans-serif" font-size="14" lengthAdjust="spacing" textLength="22.1484" x="134.5342" y="1471.6826">API</text><text fill="#000000" font-family="sans-serif" font-size="14" lengthAdjust="spacing" textLength="61.8447" x="114.686" y="1487.9795">Gateway</text></g><g class="participant participant-head" data-entity-uid="part3" data-qualified-name="OS" id="part3-head"><rect fill="#E2E2F0" height="46.5938" rx="4" ry="4" style="stroke:#000000;stroke-width:3;" width="65.7412" x="228.8931" y="208.7813"/><text fill="#000000" font-family="sans-serif" font-size="14" lengthAdjust="spacing" textLength="40.0313" x="241.748" y="228.7764">Order</text><text fill="#000000" font-family="sans-serif" font-size="14" lengthAdjust="spacing" textLength="51.7412" x="235.8931" y="245.0732">Service</text></g><g class="participant participant-tail" data-entity-uid="part3" data-qualified-name="OS" id="part3-tail"><rect fill="#E2E2F0" height="46.5938" rx="4" ry="4" style="stroke:#000000;stroke-width:3;" width="65.7412" x="228.8931" y="1451.6875"/><text fill="#000000" font-family="sans-serif" font-size="14" lengthAdjust="spacing" textLength="40.0313" x="241.748" y="1471.6826">Order</text><text fill="#000000" font-family="sans-serif" font-size="14" lengthAdjust="spacing" textLength="51.7412" x="235.8931" y="1487.9795">Service</text></g><g class="participant participant-head" data-entity-uid="part4" data-qualified-name="ODB" id="part4-head"><text fill="#000000" font-family="sans-serif" font-size="14" lengthAdjust="spacing" textLength="40.0313" x="454.7075" y="236.7764">Order</text><text fill="#000000" font-family="sans-serif" font-size="14" lengthAdjust="spacing" textLength="20.3848" x="464.5308" y="253.0732">DB</text><path d="M459.7231,187.7813 C459.7231,177.7813 477.7231,177.7813 477.7231,177.7813 C477.7231,177.7813 495.7231,177.7813 495.7231,187.7813 L495.7231,213.7813 C495.7231,223.7813 477.7231,223.7813 477.7231,223.7813 C477.7231,223.7813 459.7231,223.7813 459.7231,213.7813 L459.7231,187.7813" fill="#E2E2F0" style="stroke:#000000;stroke-width:3;"/><path d="M459.7231,187.7813 C459.7231,197.7813 477.7231,197.7813 477.7231,197.7813 C477.7231,197.7813 495.7231,197.7813 495.7231,187.7813" fill="none" style="stroke:#000000;stroke-width:3;"/></g><g class="participant participant-tail" data-entity-uid="part4" data-qualified-name="ODB" id="part4-tail"><text fill="#000000" font-family="sans-serif" font-size="14" lengthAdjust="spacing" textLength="40.0313" x="454.7075" y="1464.6826">Order</text><text fill="#000000" font-family="sans-serif" font-size="14" lengthAdjust="spacing" textLength="20.3848" x="464.5308" y="1480.9795">DB</text><path d="M459.7231,1494.2813 C459.7231,1484.2813 477.7231,1484.2813 477.7231,1484.2813 C477.7231,1484.2813 495.7231,1484.2813 495.7231,1494.2813 L495.7231,1520.2813 C495.7231,1530.2813 477.7231,1530.2813 477.7231,1530.2813 C477.7231,1530.2813 459.7231,1530.2813 459.7231,1520.2813 L459.7231,1494.2813" fill="#E2E2F0" style="stroke:#000000;stroke-width:3;"/><path d="M459.7231,1494.2813 C459.7231,1504.2813 477.7231,1504.2813 477.7231,1504.2813 C477.7231,1504.2813 495.7231,1504.2813 495.7231,1494.2813" fill="none" style="stroke:#000000;stroke-width:3;"/></g><g class="participant participant-head" data-entity-uid="part5" data-qualified-name="Relay" id="part5-head"><rect fill="#E2E2F0" height="46.5938" rx="4" ry="4" style="stroke:#000000;stroke-width:3;" width="65.1191" x="599.2271" y="208.7813"/><text fill="#000000" font-family="sans-serif" font-size="14" lengthAdjust="spacing" textLength="51.1191" x="606.2271" y="228.7764">Outbox</text><text fill="#000000" font-family="sans-serif" font-size="14" lengthAdjust="spacing" textLength="39.0947" x="612.2393" y="245.0732">Relay</text></g><g class="participant participant-tail" data-entity-uid="part5" data-qualified-name="Relay" id="part5-tail"><rect fill="#E2E2F0" height="46.5938" rx="4" ry="4" style="stroke:#000000;stroke-width:3;" width="65.1191" x="599.2271" y="1451.6875"/><text fill="#000000" font-family="sans-serif" font-size="14" lengthAdjust="spacing" textLength="51.1191" x="606.2271" y="1471.6826">Outbox</text><text fill="#000000" font-family="sans-serif" font-size="14" lengthAdjust="spacing" textLength="39.0947" x="612.2393" y="1487.9795">Relay</text></g><g class="participant participant-head" data-entity-uid="part6" data-qualified-name="EB" id="part6-head"><path d="M770.3374,213.7813 L820.4438,213.7813 C825.4438,213.7813 825.4438,235.0781 825.4438,235.0781 C825.4438,235.0781 825.4438,256.375 820.4438,256.375 L770.3374,256.375 C765.3374,256.375 765.3374,235.0781 765.3374,235.0781 C765.3374,235.0781 765.3374,213.7813 770.3374,213.7813" fill="#E2E2F0" style="stroke:#000000;stroke-width:3;"/><path d="M820.4438,213.7813 C815.4438,213.7813 815.4438,235.0781 815.4438,235.0781 C815.4438,256.375 820.4438,256.375 820.4438,256.375" fill="none" style="stroke:#000000;stroke-width:3;"/><text fill="#000000" font-family="sans-serif" font-size="14" lengthAdjust="spacing" textLength="40.1064" x="770.3374" y="231.7764">Event</text><text fill="#000000" font-family="sans-serif" font-size="14" lengthAdjust="spacing" textLength="25.7715" x="777.5049" y="248.0732">Bus</text></g><g class="participant participant-tail" data-entity-uid="part6" data-qualified-name="EB" id="part6-tail"><path d="M770.3374,1451.6875 L820.4438,1451.6875 C825.4438,1451.6875 825.4438,1472.9844 825.4438,1472.9844 C825.4438,1472.9844 825.4438,1494.2813 820.4438,1494.2813 L770.3374,1494.2813 C765.3374,1494.2813 765.3374,1472.9844 765.3374,1472.9844 C765.3374,1472.9844 765.3374,1451.6875 770.3374,1451.6875" fill="#E2E2F0" style="stroke:#000000;stroke-width:3;"/><path d="M820.4438,1451.6875 C815.4438,1451.6875 815.4438,1472.9844 815.4438,1472.9844 C815.4438,1494.2813 820.4438,1494.2813 820.4438,1494.2813" fill="none" style="stroke:#000000;stroke-width:3;"/><text fill="#000000" font-family="sans-serif" font-size="14" lengthAdjust="spacing" textLength="40.1064" x="770.3374" y="1469.6826">Event</text><text fill="#000000" font-family="sans-serif" font-size="14" lengthAdjust="spacing" textLength="25.7715" x="777.5049" y="1485.9795">Bus</text></g><g class="participant participant-head" data-entity-uid="part7" data-qualified-name="PS" id="part7-head"><rect fill="#E2E2F0" height="46.5938" rx="4" ry="4" style="stroke:#000000;stroke-width:3;" width="75.9199" x="956.1182" y="208.7813"/><text fill="#000000" font-family="sans-serif" font-size="14" lengthAdjust="spacing" textLength="61.9199" x="963.1182" y="228.7764">Payment</text><text fill="#000000" font-family="sans-serif" font-size="14" lengthAdjust="spacing" textLength="51.7412" x="968.2075" y="245.0732">Service</text></g><g class="participant participant-tail" data-entity-uid="part7" data-qualified-name="PS" id="part7-tail"><rect fill="#E2E2F0" height="46.5938" rx="4" ry="4" style="stroke:#000000;stroke-width:3;" width="75.9199" x="956.1182" y="1451.6875"/><text fill="#000000" font-family="sans-serif" font-size="14" lengthAdjust="spacing" textLength="61.9199" x="963.1182" y="1471.6826">Payment</text><text fill="#000000" font-family="sans-serif" font-size="14" lengthAdjust="spacing" textLength="51.7412" x="968.2075" y="1487.9795">Service</text></g><g class="participant participant-head" data-entity-uid="part8" data-qualified-name="PDB" id="part8-head"><text fill="#000000" font-family="sans-serif" font-size="14" lengthAdjust="spacing" textLength="61.9199" x="1095.9893" y="236.7764">Payment</text><text fill="#000000" font-family="sans-serif" font-size="14" lengthAdjust="spacing" textLength="20.3848" x="1116.7568" y="253.0732">DB</text><path d="M1111.9492,187.7813 C1111.9492,177.7813 1129.9492,177.7813 1129.9492,177.7813 C1129.9492,177.7813 1147.9492,177.7813 1147.9492,187.7813 L1147.9492,213.7813 C1147.9492,223.7813 1129.9492,223.7813 1129.9492,223.7813 C1129.9492,223.7813 1111.9492,223.7813 1111.9492,213.7813 L1111.9492,187.7813" fill="#E2E2F0" style="stroke:#000000;stroke-width:3;"/><path d="M1111.9492,187.7813 C1111.9492,197.7813 1129.9492,197.7813 1129.9492,197.7813 C1129.9492,197.7813 1147.9492,197.7813 1147.9492,187.7813" fill="none" style="stroke:#000000;stroke-width:3;"/></g><g class="participant participant-tail" data-entity-uid="part8" data-qualified-name="PDB" id="part8-tail"><text fill="#000000" font-family="sans-serif" font-size="14" lengthAdjust="spacing" textLength="61.9199" x="1095.9893" y="1464.6826">Payment</text><text fill="#000000" font-family="sans-serif" font-size="14" lengthAdjust="spacing" textLength="20.3848" x="1116.7568" y="1480.9795">DB</text><path d="M1111.9492,1494.2813 C1111.9492,1484.2813 1129.9492,1484.2813 1129.9492,1484.2813 C1129.9492,1484.2813 1147.9492,1484.2813 1147.9492,1494.2813 L1147.9492,1520.2813 C1147.9492,1530.2813 1129.9492,1530.2813 1129.9492,1530.2813 C1129.9492,1530.2813 1111.9492,1530.2813 1111.9492,1520.2813 L1111.9492,1494.2813" fill="#E2E2F0" style="stroke:#000000;stroke-width:3;"/><path d="M1111.9492,1494.2813 C1111.9492,1504.2813 1129.9492,1504.2813 1129.9492,1504.2813 C1129.9492,1504.2813 1147.9492,1504.2813 1147.9492,1494.2813" fill="none" style="stroke:#000000;stroke-width:3;"/></g><g class="participant participant-head" data-entity-uid="part9" data-qualified-name="IS" id="part9-head"><rect fill="#E2E2F0" height="46.5938" rx="4" ry="4" style="stroke:#000000;stroke-width:3;" width="80.8691" x="1173.9092" y="208.7813"/><text fill="#000000" font-family="sans-serif" font-size="14" lengthAdjust="spacing" textLength="66.8691" x="1180.9092" y="228.7764">Inventory</text><text fill="#000000" font-family="sans-serif" font-size="14" lengthAdjust="spacing" textLength="51.7412" x="1188.4731" y="245.0732">Service</text></g><g class="participant participant-tail" data-entity-uid="part9" data-qualified-name="IS" id="part9-tail"><rect fill="#E2E2F0" height="46.5938" rx="4" ry="4" style="stroke:#000000;stroke-width:3;" width="80.8691" x="1173.9092" y="1451.6875"/><text fill="#000000" font-family="sans-serif" font-size="14" lengthAdjust="spacing" textLength="66.8691" x="1180.9092" y="1471.6826">Inventory</text><text fill="#000000" font-family="sans-serif" font-size="14" lengthAdjust="spacing" textLength="51.7412" x="1188.4731" y="1487.9795">Service</text></g><g class="participant participant-head" data-entity-uid="part10" data-qualified-name="IDB" id="part10-head"><text fill="#000000" font-family="sans-serif" font-size="14" lengthAdjust="spacing" textLength="66.8691" x="1353.4531" y="236.7764">Inventory</text><text fill="#000000" font-family="sans-serif" font-size="14" lengthAdjust="spacing" textLength="20.3848" x="1376.6953" y="253.0732">DB</text><path d="M1371.8877,187.7813 C1371.8877,177.7813 1389.8877,177.7813 1389.8877,177.7813 C1389.8877,177.7813 1407.8877,177.7813 1407.8877,187.7813 L1407.8877,213.7813 C1407.8877,223.7813 1389.8877,223.7813 1389.8877,223.7813 C1389.8877,223.7813 1371.8877,223.7813 1371.8877,213.7813 L1371.8877,187.7813" fill="#E2E2F0" style="stroke:#000000;stroke-width:3;"/><path d="M1371.8877,187.7813 C1371.8877,197.7813 1389.8877,197.7813 1389.8877,197.7813 C1389.8877,197.7813 1407.8877,197.7813 1407.8877,187.7813" fill="none" style="stroke:#000000;stroke-width:3;"/></g><g class="participant participant-tail" data-entity-uid="part10" data-qualified-name="IDB" id="part10-tail"><text fill="#000000" font-family="sans-serif" font-size="14" lengthAdjust="spacing" textLength="66.8691" x="1353.4531" y="1464.6826">Inventory</text><text fill="#000000" font-family="sans-serif" font-size="14" lengthAdjust="spacing" textLength="20.3848" x="1376.6953" y="1480.9795">DB</text><path d="M1371.8877,1494.2813 C1371.8877,1484.2813 1389.8877,1484.2813 1389.8877,1484.2813 C1389.8877,1484.2813 1407.8877,1484.2813 1407.8877,1494.2813 L1407.8877,1520.2813 C1407.8877,1530.2813 1389.8877,1530.2813 1389.8877,1530.2813 C1389.8877,1530.2813 1371.8877,1530.2813 1371.8877,1520.2813 L1371.8877,1494.2813" fill="#E2E2F0" style="stroke:#000000;stroke-width:3;"/><path d="M1371.8877,1494.2813 C1371.8877,1504.2813 1389.8877,1504.2813 1389.8877,1504.2813 C1389.8877,1504.2813 1407.8877,1504.2813 1407.8877,1494.2813" fill="none" style="stroke:#000000;stroke-width:3;"/></g><g class="participant participant-head" data-entity-uid="part11" data-qualified-name="NS" id="part11-head"><rect fill="#E2E2F0" height="46.5938" rx="4" ry="4" style="stroke:#000000;stroke-width:3;" width="94.3291" x="1436.3223" y="208.7813"/><text fill="#000000" font-family="sans-serif" font-size="14" lengthAdjust="spacing" textLength="80.3291" x="1443.3223" y="228.7764">Notification</text><text fill="#000000" font-family="sans-serif" font-size="14" lengthAdjust="spacing" textLength="51.7412" x="1457.6162" y="245.0732">Service</text></g><g class="participant participant-tail" data-entity-uid="part11" data-qualified-name="NS" id="part11-tail"><rect fill="#E2E2F0" height="46.5938" rx="4" ry="4" style="stroke:#000000;stroke-width:3;" width="94.3291" x="1436.3223" y="1451.6875"/><text fill="#000000" font-family="sans-serif" font-size="14" lengthAdjust="spacing" textLength="80.3291" x="1443.3223" y="1471.6826">Notification</text><text fill="#000000" font-family="sans-serif" font-size="14" lengthAdjust="spacing" textLength="51.7412" x="1457.6162" y="1487.9795">Service</text></g><g class="participant participant-head" data-entity-uid="part12" data-qualified-name="DLQ" id="part12-head"><path d="M1630.8691,213.7813 L1682.6299,213.7813 C1687.6299,213.7813 1687.6299,235.0781 1687.6299,235.0781 C1687.6299,235.0781 1687.6299,256.375 1682.6299,256.375 L1630.8691,256.375 C1625.8691,256.375 1625.8691,235.0781 1625.8691,235.0781 C1625.8691,235.0781 1625.8691,213.7813 1630.8691,213.7813" fill="#E2E2F0" style="stroke:#000000;stroke-width:3;"/><path d="M1682.6299,213.7813 C1677.6299,213.7813 1677.6299,235.0781 1677.6299,235.0781 C1677.6299,256.375 1682.6299,256.375 1682.6299,256.375" fill="none" style="stroke:#000000;stroke-width:3;"/><text fill="#000000" font-family="sans-serif" font-size="14" lengthAdjust="spacing" textLength="36.8594" x="1633.3198" y="231.7764">Dead</text><text fill="#000000" font-family="sans-serif" font-size="14" lengthAdjust="spacing" textLength="41.7607" x="1630.8691" y="248.0732">Letter</text></g><g class="participant participant-tail" data-entity-uid="part12" data-qualified-name="DLQ" id="part12-tail"><path d="M1630.8691,1451.6875 L1682.6299,1451.6875 C1687.6299,1451.6875 1687.6299,1472.9844 1687.6299,1472.9844 C1687.6299,1472.9844 1687.6299,1494.2813 1682.6299,1494.2813 L1630.8691,1494.2813 C1625.8691,1494.2813 1625.8691,1472.9844 1625.8691,1472.9844 C1625.8691,1472.9844 1625.8691,1451.6875 1630.8691,1451.6875" fill="#E2E2F0" style="stroke:#000000;stroke-width:3;"/><path d="M1682.6299,1451.6875 C1677.6299,1451.6875 1677.6299,1472.9844 1677.6299,1472.9844 C1677.6299,1494.2813 1682.6299,1494.2813 1682.6299,1494.2813" fill="none" style="stroke:#000000;stroke-width:3;"/><text fill="#000000" font-family="sans-serif" font-size="14" lengthAdjust="spacing" textLength="36.8594" x="1633.3198" y="1469.6826">Dead</text><text fill="#000000" font-family="sans-serif" font-size="14" lengthAdjust="spacing" textLength="41.7607" x="1630.8691" y="1485.9795">Letter</text></g><g class="participant participant-head" data-entity-uid="part13" data-qualified-name="Ops" id="part13-head"><rect fill="#E2E2F0" height="30.2969" rx="4" ry="4" style="stroke:#000000;stroke-width:3;" width="41.2002" x="1806.3486" y="225.0781"/><text fill="#000000" font-family="sans-serif" font-size="14" lengthAdjust="spacing" textLength="27.2002" x="1813.3486" y="245.0732">Ops</text></g><g class="participant participant-tail" data-entity-uid="part13" data-qualified-name="Ops" id="part13-tail"><rect fill="#E2E2F0" height="30.2969" rx="4" ry="4" style="stroke:#000000;stroke-width:3;" width="41.2002" x="1806.3486" y="1451.6875"/><text fill="#000000" font-family="sans-serif" font-size="14" lengthAdjust="spacing" textLength="27.2002" x="1813.3486" y="1471.6826">Ops</text></g><rect fill="#EEEEEE" height="3" style="stroke:#EEEEEE;stroke-width:1;" width="1928.8521" x="0" y="286.9414"/><line style="stroke:#000000;stroke-width:1;" x1="0" x2="1928.8521" y1="286.9414" y2="286.9414"/><line style="stroke:#000000;stroke-width:1;" x1="0" x2="1928.8521" y1="289.9414" y2="289.9414"/><rect fill="#EEEEEE" height="23.1328" style="stroke:#000000;stroke-width:2;" width="202.4048" x="863.2236" y="276.375"/><text fill="#000000" font-family="sans-serif" font-size="13" font-weight="bold" lengthAdjust="spacing" textLength="183.8789" x="869.2236" y="292.4419">Command (Synchronous)</text><g class="message" data-entity-1="part1" data-entity-2="part2" id="msg1"><polygon fill="#000000" points="133.6084,326.6406,143.6084,330.6406,133.6084,334.6406,137.6084,330.6406" style="stroke:#000000;stroke-width:1;"/><line style="stroke:#000000;stroke-width:2;" x1="37.1655" x2="139.6084" y1="330.6406" y2="330.6406"/><text fill="#000000" font-family="sans-serif" font-size="13" lengthAdjust="spacing" textLength="84.4429" x="44.1655" y="325.5747">POST /orders</text></g><g class="message" data-entity-1="part2" data-entity-2="part3" id="msg2"><polygon fill="#000000" points="249.7637,355.7734,259.7637,359.7734,249.7637,363.7734,253.7637,359.7734" style="stroke:#000000;stroke-width:1;"/><line style="stroke:#000000;stroke-width:2;" x1="145.6084" x2="255.7637" y1="359.7734" y2="359.7734"/><text fill="#000000" font-family="sans-serif" font-size="13" lengthAdjust="spacing" textLength="92.1553" x="152.6084" y="354.7075">Route request</text></g><g class="message" data-entity-1="part3" data-entity-2="part3" id="msg3"><line style="stroke:#000000;stroke-width:2;" x1="261.7637" x2="303.7637" y1="388.9063" y2="388.9063"/><line style="stroke:#000000;stroke-width:2;" x1="303.7637" x2="303.7637" y1="388.9063" y2="401.9063"/><line style="stroke:#000000;stroke-width:2;" x1="262.7637" x2="303.7637" y1="401.9063" y2="401.9063"/><polygon fill="#000000" points="272.7637,397.9063,262.7637,401.9063,272.7637,405.9063,268.7637,401.9063" style="stroke:#000000;stroke-width:1;"/><text fill="#000000" font-family="sans-serif" font-size="13" lengthAdjust="spacing" textLength="186.291" x="268.7637" y="383.8403">Validate + create Aggregate</text></g><g class="message" data-entity-1="part3" data-entity-2="part4" id="msg4"><polygon fill="#000000" points="465.7231,427.0391,475.7231,431.0391,465.7231,435.0391,469.7231,431.0391" style="stroke:#000000;stroke-width:1;"/><line style="stroke:#000000;stroke-width:2;" x1="261.7637" x2="471.7231" y1="431.0391" y2="431.0391"/><text fill="#000000" font-family="sans-serif" font-size="13" lengthAdjust="spacing" textLength="181.4922" x="268.7637" y="425.9731">INSERT order + outbox (TX)</text></g><g class="message" data-entity-1="part3" data-entity-2="part2" id="msg5"><polygon fill="#000000" points="156.6084,456.1719,146.6084,460.1719,156.6084,464.1719,152.6084,460.1719" style="stroke:#000000;stroke-width:1;"/><line style="stroke:#000000;stroke-width:2;stroke-dasharray:2,2;" x1="150.6084" x2="260.7637" y1="460.1719" y2="460.1719"/><text fill="#000000" font-family="sans-serif" font-size="13" lengthAdjust="spacing" textLength="80.6787" x="162.6084" y="455.106">201 Created</text></g><g class="message" data-entity-1="part2" data-entity-2="part1" id="msg6"><polygon fill="#000000" points="48.1655,485.3047,38.1655,489.3047,48.1655,493.3047,44.1655,489.3047" style="stroke:#000000;stroke-width:1;"/><line style="stroke:#000000;stroke-width:2;stroke-dasharray:2,2;" x1="42.1655" x2="144.6084" y1="489.3047" y2="489.3047"/><text fill="#000000" font-family="sans-serif" font-size="13" lengthAdjust="spacing" textLength="60.2329" x="54.1655" y="484.2388">OrderDto</text></g><rect fill="#EEEEEE" height="3" style="stroke:#EEEEEE;stroke-width:1;" width="1928.8521" x="0" y="517.8711"/><line style="stroke:#000000;stroke-width:1;" x1="0" x2="1928.8521" y1="517.8711" y2="517.8711"/><line style="stroke:#000000;stroke-width:1;" x1="0" x2="1928.8521" y1="520.8711" y2="520.8711"/><rect fill="#EEEEEE" height="23.1328" style="stroke:#000000;stroke-width:2;" width="266.04" x="831.406" y="507.3047"/><text fill="#000000" font-family="sans-serif" font-size="13" font-weight="bold" lengthAdjust="spacing" textLength="247.5142" x="837.406" y="523.3716">Event (Asynchronous, eventually)</text><g class="message" data-entity-1="part5" data-entity-2="part4" id="msg7"><polygon fill="#000000" points="488.7231,557.5703,478.7231,561.5703,488.7231,565.5703,484.7231,561.5703" style="stroke:#000000;stroke-width:1;"/><line style="stroke:#000000;stroke-width:2;" x1="482.7231" x2="630.7866" y1="561.5703" y2="561.5703"/><text fill="#000000" font-family="sans-serif" font-size="13" lengthAdjust="spacing" textLength="72.3379" x="494.7231" y="556.5044">Poll outbox</text></g><g class="message" data-entity-1="part4" data-entity-2="part5" id="msg8"><polygon fill="#000000" points="619.7866,586.7031,629.7866,590.7031,619.7866,594.7031,623.7866,590.7031" style="stroke:#000000;stroke-width:1;"/><line style="stroke:#000000;stroke-width:2;stroke-dasharray:2,2;" x1="477.7231" x2="625.7866" y1="590.7031" y2="590.7031"/><text fill="#000000" font-family="sans-serif" font-size="13" lengthAdjust="spacing" textLength="130.0635" x="484.7231" y="585.6372">OrderCreated event</text></g><g class="message" data-entity-1="part5" data-entity-2="part6" id="msg9"><polygon fill="#000000" points="783.3906,615.8359,793.3906,619.8359,783.3906,623.8359,787.3906,619.8359" style="stroke:#000000;stroke-width:1;"/><line style="stroke:#000000;stroke-width:2;" x1="631.7866" x2="789.3906" y1="619.8359" y2="619.8359"/><text fill="#000000" font-family="sans-serif" font-size="13" lengthAdjust="spacing" textLength="139.604" x="638.7866" y="614.77">Publish OrderCreated</text></g><path d="M755.3374,634.8359 L824.8267,634.8359 L824.8267,641.9688 L814.8267,651.9688 L755.3374,651.9688 L755.3374,634.8359" fill="#EEEEEE" style="stroke:#000000;stroke-width:1.5;"/><rect fill="none" height="263.1953" style="stroke:#000000;stroke-width:1.5;" width="906.4121" x="755.3374" y="634.8359"/><text fill="#000000" font-family="sans-serif" font-size="13" font-weight="bold" lengthAdjust="spacing" textLength="24.4893" x="770.3374" y="647.9028">par</text><text fill="#000000" font-family="sans-serif" font-size="11" font-weight="bold" lengthAdjust="spacing" textLength="129.7227" x="839.8267" y="647.0464">[Parallel Consumers]</text><g class="message" data-entity-1="part6" data-entity-2="part7" id="msg10"><polygon fill="#000000" points="982.0781,669.1016,992.0781,673.1016,982.0781,677.1016,986.0781,673.1016" style="stroke:#000000;stroke-width:1;"/><line style="stroke:#000000;stroke-width:2;" x1="795.3906" x2="988.0781" y1="673.1016" y2="673.1016"/><text fill="#000000" font-family="sans-serif" font-size="13" lengthAdjust="spacing" textLength="88.9053" x="802.3906" y="668.0356">OrderCreated</text></g><g class="message" data-entity-1="part7" data-entity-2="part8" id="msg11"><polygon fill="#000000" points="1117.9492,698.2344,1127.9492,702.2344,1117.9492,706.2344,1121.9492,702.2344" style="stroke:#000000;stroke-width:1;"/><line style="stroke:#000000;stroke-width:2;" x1="994.0781" x2="1123.9492" y1="702.2344" y2="702.2344"/><text fill="#000000" font-family="sans-serif" font-size="13" lengthAdjust="spacing" textLength="111.8711" x="1001.0781" y="697.1685">Process payment</text></g><g class="message" data-entity-1="part7" data-entity-2="part6" id="msg12"><polygon fill="#000000" points="806.3906,727.3672,796.3906,731.3672,806.3906,735.3672,802.3906,731.3672" style="stroke:#000000;stroke-width:1;"/><line style="stroke:#000000;stroke-width:2;" x1="800.3906" x2="993.0781" y1="731.3672" y2="731.3672"/><text fill="#000000" font-family="sans-serif" font-size="13" lengthAdjust="spacing" textLength="174.6875" x="812.3906" y="726.3013">publish PaymentProcessed</text></g><g class="message" data-entity-1="part6" data-entity-2="part9" id="msg13"><polygon fill="#000000" points="1202.3438,756.5,1212.3438,760.5,1202.3438,764.5,1206.3438,760.5" style="stroke:#000000;stroke-width:1;"/><line style="stroke:#000000;stroke-width:2;" x1="795.3906" x2="1208.3438" y1="760.5" y2="760.5"/><text fill="#000000" font-family="sans-serif" font-size="13" lengthAdjust="spacing" textLength="88.9053" x="802.3906" y="755.4341">OrderCreated</text></g><g class="message" data-entity-1="part9" data-entity-2="part10" id="msg14"><polygon fill="#000000" points="1377.8877,785.6328,1387.8877,789.6328,1377.8877,793.6328,1381.8877,789.6328" style="stroke:#000000;stroke-width:1;"/><line style="stroke:#000000;stroke-width:2;" x1="1214.3438" x2="1383.8877" y1="789.6328" y2="789.6328"/><text fill="#000000" font-family="sans-serif" font-size="13" lengthAdjust="spacing" textLength="91.4697" x="1221.3438" y="784.5669">Reserve stock</text></g><g class="message" data-entity-1="part9" data-entity-2="part6" id="msg15"><polygon fill="#000000" points="806.3906,814.7656,796.3906,818.7656,806.3906,822.7656,802.3906,818.7656" style="stroke:#000000;stroke-width:1;"/><line style="stroke:#000000;stroke-width:2;" x1="800.3906" x2="1213.3438" y1="818.7656" y2="818.7656"/><text fill="#000000" font-family="sans-serif" font-size="13" lengthAdjust="spacing" textLength="148.1797" x="812.3906" y="813.6997">publish StockReserved</text></g><g class="message" data-entity-1="part6" data-entity-2="part11" id="msg16"><polygon fill="#000000" points="1471.4868,843.8984,1481.4868,847.8984,1471.4868,851.8984,1475.4868,847.8984" style="stroke:#000000;stroke-width:1;"/><line style="stroke:#000000;stroke-width:2;" x1="795.3906" x2="1477.4868" y1="847.8984" y2="847.8984"/><text fill="#000000" font-family="sans-serif" font-size="13" lengthAdjust="spacing" textLength="88.9053" x="802.3906" y="842.8325">OrderCreated</text></g><g class="message" data-entity-1="part11" data-entity-2="part11" id="msg17"><line style="stroke:#000000;stroke-width:2;" x1="1483.4868" x2="1525.4868" y1="877.0313" y2="877.0313"/><line style="stroke:#000000;stroke-width:2;" x1="1525.4868" x2="1525.4868" y1="877.0313" y2="890.0313"/><line style="stroke:#000000;stroke-width:2;" x1="1484.4868" x2="1525.4868" y1="890.0313" y2="890.0313"/><polygon fill="#000000" points="1494.4868,886.0313,1484.4868,890.0313,1494.4868,894.0313,1490.4868,890.0313" style="stroke:#000000;stroke-width:1;"/><text fill="#000000" font-family="sans-serif" font-size="13" lengthAdjust="spacing" textLength="159.2627" x="1490.4868" y="871.9653">Send confirmation email</text></g><rect fill="#EEEEEE" height="3" style="stroke:#EEEEEE;stroke-width:1;" width="1928.8521" x="0" y="925.5977"/><line style="stroke:#000000;stroke-width:1;" x1="0" x2="1928.8521" y1="925.5977" y2="925.5977"/><line style="stroke:#000000;stroke-width:1;" x1="0" x2="1928.8521" y1="928.5977" y2="928.5977"/><rect fill="#EEEEEE" height="23.1328" style="stroke:#000000;stroke-width:2;" width="301.3965" x="813.7278" y="915.0313"/><text fill="#000000" font-family="sans-serif" font-size="13" font-weight="bold" lengthAdjust="spacing" textLength="282.8706" x="819.7278" y="931.0981">Compensation (Saga) &#8212; Payment Fails</text><g class="message" data-entity-1="part7" data-entity-2="part6" id="msg18"><polygon fill="#000000" points="806.3906,965.2969,796.3906,969.2969,806.3906,973.2969,802.3906,969.2969" style="stroke:#000000;stroke-width:1;"/><line style="stroke:#000000;stroke-width:2;" x1="800.3906" x2="993.0781" y1="969.2969" y2="969.2969"/><text fill="#000000" font-family="sans-serif" font-size="13" lengthAdjust="spacing" textLength="147.5259" x="812.3906" y="964.231">publish PaymentFailed</text></g><g class="message" data-entity-1="part6" data-entity-2="part3" id="msg19"><polygon fill="#000000" points="272.7637,994.4297,262.7637,998.4297,272.7637,1002.4297,268.7637,998.4297" style="stroke:#000000;stroke-width:1;"/><line style="stroke:#000000;stroke-width:2;" x1="266.7637" x2="794.3906" y1="998.4297" y2="998.4297"/><text fill="#000000" font-family="sans-serif" font-size="13" lengthAdjust="spacing" textLength="96.4146" x="278.7637" y="993.3638">PaymentFailed</text></g><g class="message" data-entity-1="part3" data-entity-2="part3" id="msg20"><line style="stroke:#000000;stroke-width:2;" x1="261.7637" x2="303.7637" y1="1027.5625" y2="1027.5625"/><line style="stroke:#000000;stroke-width:2;" x1="303.7637" x2="303.7637" y1="1027.5625" y2="1040.5625"/><line style="stroke:#000000;stroke-width:2;" x1="262.7637" x2="303.7637" y1="1040.5625" y2="1040.5625"/><polygon fill="#000000" points="272.7637,1036.5625,262.7637,1040.5625,272.7637,1044.5625,268.7637,1040.5625" style="stroke:#000000;stroke-width:1;"/><text fill="#000000" font-family="sans-serif" font-size="13" lengthAdjust="spacing" textLength="137.1855" x="268.7637" y="1022.4966">Mark order cancelled</text></g><g class="message" data-entity-1="part3" data-entity-2="part4" id="msg21"><polygon fill="#000000" points="465.7231,1065.6953,475.7231,1069.6953,465.7231,1073.6953,469.7231,1069.6953" style="stroke:#000000;stroke-width:1;"/><line style="stroke:#000000;stroke-width:2;" x1="261.7637" x2="471.7231" y1="1069.6953" y2="1069.6953"/><text fill="#000000" font-family="sans-serif" font-size="13" lengthAdjust="spacing" textLength="191.9595" x="268.7637" y="1064.6294">UPDATE status (TX + outbox)</text></g><g class="message" data-entity-1="part6" data-entity-2="part9" id="msg22"><polygon fill="#000000" points="1202.3438,1094.8281,1212.3438,1098.8281,1202.3438,1102.8281,1206.3438,1098.8281" style="stroke:#000000;stroke-width:1;"/><line style="stroke:#000000;stroke-width:2;" x1="795.3906" x2="1208.3438" y1="1098.8281" y2="1098.8281"/><text fill="#000000" font-family="sans-serif" font-size="13" lengthAdjust="spacing" textLength="96.4146" x="802.3906" y="1093.7622">PaymentFailed</text></g><g class="message" data-entity-1="part9" data-entity-2="part10" id="msg23"><polygon fill="#000000" points="1377.8877,1123.9609,1387.8877,1127.9609,1377.8877,1131.9609,1381.8877,1127.9609" style="stroke:#000000;stroke-width:1;"/><line style="stroke:#000000;stroke-width:2;" x1="1214.3438" x2="1383.8877" y1="1127.9609" y2="1127.9609"/><text fill="#000000" font-family="sans-serif" font-size="13" lengthAdjust="spacing" textLength="151.5439" x="1221.3438" y="1122.895">Release reserved stock</text></g><rect fill="#EEEEEE" height="3" style="stroke:#EEEEEE;stroke-width:1;" width="1928.8521" x="0" y="1156.5273"/><line style="stroke:#000000;stroke-width:1;" x1="0" x2="1928.8521" y1="1156.5273" y2="1156.5273"/><line style="stroke:#000000;stroke-width:1;" x1="0" x2="1928.8521" y1="1159.5273" y2="1159.5273"/><rect fill="#EEEEEE" height="23.1328" style="stroke:#000000;stroke-width:2;" width="175.7065" x="876.5728" y="1145.9609"/><text fill="#000000" font-family="sans-serif" font-size="13" font-weight="bold" lengthAdjust="spacing" textLength="157.1807" x="882.5728" y="1162.0278">Dead Letter Handling</text><g class="message" data-entity-1="part7" data-entity-2="part6" id="msg24"><polygon fill="#000000" points="806.3906,1196.2266,796.3906,1200.2266,806.3906,1204.2266,802.3906,1200.2266" style="stroke:#000000;stroke-width:1;"/><line style="stroke:#000000;stroke-width:2;" x1="800.3906" x2="993.0781" y1="1200.2266" y2="1200.2266"/><text fill="#000000" font-family="sans-serif" font-size="13" lengthAdjust="spacing" textLength="150.5093" x="812.3906" y="1195.1606">Nack (retry exhausted)</text></g><g class="message" data-entity-1="part6" data-entity-2="part12" id="msg25"><polygon fill="#000000" points="1644.7495,1225.3594,1654.7495,1229.3594,1644.7495,1233.3594,1648.7495,1229.3594" style="stroke:#000000;stroke-width:1;"/><line style="stroke:#000000;stroke-width:2;" x1="795.3906" x2="1650.7495" y1="1229.3594" y2="1229.3594"/><text fill="#000000" font-family="sans-serif" font-size="13" lengthAdjust="spacing" textLength="97.4175" x="802.3906" y="1224.2935">Move message</text></g><g class="message" data-entity-1="part12" data-entity-2="part13" id="msg26"><polygon fill="#000000" points="1814.9487,1254.4922,1824.9487,1258.4922,1814.9487,1262.4922,1818.9487,1258.4922" style="stroke:#000000;stroke-width:1;"/><line style="stroke:#000000;stroke-width:2;" x1="1656.7495" x2="1820.9487" y1="1258.4922" y2="1258.4922"/><text fill="#000000" font-family="sans-serif" font-size="13" lengthAdjust="spacing" textLength="146.1992" x="1663.7495" y="1253.4263">Alert + manual review</text></g><path d="M800,1271.4922 L800,1356.4922 L1044,1356.4922 L1044,1281.4922 L1034,1271.4922 L800,1271.4922" fill="#FEFFDD" style="stroke:#181818;stroke-width:0.5;"/><path d="M1034,1271.4922 L1034,1281.4922 L1044,1281.4922 L1034,1271.4922" fill="#FEFFDD" style="stroke:#181818;stroke-width:0.5;"/><text fill="#000000" font-family="sans-serif" font-size="13" lengthAdjust="spacing" textLength="149.5127" x="806" y="1288.5591">Event Bus Guarantees:</text><text fill="#000000" font-family="sans-serif" font-size="13" lengthAdjust="spacing" textLength="151.3154" x="806" y="1303.6919">- At-least-once delivery</text><text fill="#000000" font-family="sans-serif" font-size="13" lengthAdjust="spacing" textLength="147.7861" x="806" y="1318.8247">- Topic/queue isolation</text><text fill="#000000" font-family="sans-serif" font-size="13" lengthAdjust="spacing" textLength="129.1748" x="806" y="1333.9575">- Publisher confirms</text><text fill="#000000" font-family="sans-serif" font-size="13" lengthAdjust="spacing" textLength="223.3232" x="806" y="1349.0903">- Consumer idempotency required</text><path d="M1661,1367.1563 L1661,1437.1563 L1923,1437.1563 L1923,1377.1563 L1913,1367.1563 L1661,1367.1563" fill="#FEFFDD" style="stroke:#181818;stroke-width:0.5;"/><path d="M1913,1367.1563 L1913,1377.1563 L1923,1377.1563 L1913,1367.1563" fill="#FEFFDD" style="stroke:#181818;stroke-width:0.5;"/><text fill="#000000" font-family="sans-serif" font-size="13" lengthAdjust="spacing" textLength="71.6523" x="1667" y="1384.2231">DLQ Rules:</text><text fill="#000000" font-family="sans-serif" font-size="13" lengthAdjust="spacing" textLength="241.8521" x="1667" y="1399.356">- Max retries: 5 (exponential backoff)</text><text fill="#000000" font-family="sans-serif" font-size="13" lengthAdjust="spacing" textLength="229.1885" x="1667" y="1414.4888">- Dead message retention: 14 days</text><text fill="#000000" font-family="sans-serif" font-size="13" lengthAdjust="spacing" textLength="233.6445" x="1667" y="1429.6216">- Alert threshold: &gt; 10 msgs / 5 min</text><rect fill="#DDDDDD" height="91.4844" rx="7.5" ry="7.5" style="stroke:#000000;stroke-width:1;" width="305.8389" x="811.0066" y="54.2969"/><text fill="#000000" font-family="sans-serif" font-size="14" lengthAdjust="spacing" textLength="131.4482" x="816.0066" y="72.292">Color | Component</text><text fill="#000000" font-family="sans-serif" font-size="14" lengthAdjust="spacing" textLength="13.3574" x="816.0066" y="88.5889">1.</text><text fill="#000000" font-family="sans-serif" font-size="14" lengthAdjust="spacing" textLength="173.8174" x="833.8142" y="88.5889">2B579A | Services (Blue)</text><text fill="#000000" font-family="sans-serif" font-size="14" lengthAdjust="spacing" textLength="13.3574" x="816.0066" y="104.8857">2.</text><text fill="#000000" font-family="sans-serif" font-size="14" lengthAdjust="spacing" textLength="199.9307" x="833.8142" y="104.8857">66B032 | Databases (Green)</text><text fill="#000000" font-family="sans-serif" font-size="14" lengthAdjust="spacing" textLength="13.3574" x="816.0066" y="121.1826">3.</text><text fill="#000000" font-family="sans-serif" font-size="14" lengthAdjust="spacing" textLength="278.0313" x="833.8142" y="121.1826">B22222 | Event Bus, API Gateway (Red)</text><text fill="#000000" font-family="sans-serif" font-size="14" lengthAdjust="spacing" textLength="13.3574" x="816.0066" y="137.4795">4.</text><text fill="#000000" font-family="sans-serif" font-size="14" lengthAdjust="spacing" textLength="244.4736" x="833.8142" y="137.4795">F5EBDC | Dead Letter Queue (Tan)</text><?plantuml-src hLPBSo8t4BxFh-Xo3e7AKdvix2Gkx2emsA5gZLc6F0vSvA41bON4IXhRv56L7v5Vc5-ILak31sBdP0wxutvz_MvvwHL2_n6rR_MifF-XOukbz5ZuqYByyzVVS8lEYGN2jJ9FMVOrN1bbB8o4GkyHUZYNMdffjClSWzHhOSKAHE59vlSCwDSrTeOsQdrrnByQVRAKnOCc2FZ8rB4fzUpAM8qMli_-hDcaVxqiv5fe_ywMPyABU-7mdSr-AR5yRvl2MlEKRFxNsekTazq0SIvAvGU5qRdy3U7uB1IogyYz5kHe7sM1xlLKjzj1xFAoYaCK3miRtMFqa-xfTpzqc7Tjj4_KQ_wH3mHpOv7QgWK3FRV2ULl6rchqKjQRhrIYtMQjjs7Fphf77q_sOLCg67QCCmBjFtkqMgZ3Rb0MTWCDxdRebgwvNwjscvJUnkoUXD__XJeH8T0XbjuIPBuKbfnez53Cu5EO5WkV0yuhmAJvDl3rQR_Rktexs3Xj1rMiKtsb9CLu0C91_CpgmtFG6Gsc-aPuV18R5hhvPLVWBZJbLAVEO96xFDkEISNlTIEhrzrJB_szUPxgCQe4m5zP78W3Bi1KKmMOrz_J7edDYWNgyACw_5OYEJ3QTs2W0uIncrqZWxgHcamoCzWtCpHUpcKXmdRRjJJCgs12SQSwLfTPlK-Vi-pYWgPpjHAQofzlTB6qHXlgEBYuo695e7L9QOTp6Dtb4pZaDU0oeX3zBYSwxG1QhnO9n_cCI1NZPw4aXO7m3HGMmqTdiR2ueAzAhDSbkS4mxuydm9P9rd1He37vjSbY5Vx9qJ5SiPqPmnCzUNWENEUUDnnGd9j6nxt4ym4m44kXr8PZupg_k30oIYNWB522yIYIR2VWQEP5ky_AvRsIRhaZc8K2qUsXyLAeACVQbQkGk30Rf4MwetpFEFD6d9XHzCgQ8kp8TMoZ6fznrmatTLcI3jWl88DNGGPiPC0WOtJKBmZEc-AXnjs1o0CpIUxO7xvgVvXlUJbIQz4wdqkxulu4N0cfCY9NtRT6xIAhaOk5QF8nJq71DGcxKB6t0myY11mTuixRPTHQybROXzHeXT05gXgVi_7JgDUPz2aPmfSkzE2s8PjPBQEx0BlfL1Z6rgPafRo6KElhzKUQE2NrOY-o8MrKQ5ZqjF_nUIbAHocja6bWGmY6YhMAJvqia8BlQqUSZaBhoL-QPcfqyk1H8Zs4j0dZAHTB3sOUbXZ0zhB0JKajgZsYEoTw2pg-5VptBKFPeNEiwAbbDyoQcBKi3kCsaSueBXbpqW24fCP2EoPNJGzoXgirUQ6B3Uy9ITScD004r_OT36i9EDPngIgtRiKpXAn88i0fDF1vRJJ582dEUygPcS-RBCWvJja96a76w7Cu_fPEzYRw5VFabrIYfL6pSxY4uoDOkOM3GpA-ahhcdC95-CERTLOzPFxWfcLyegM71L6hzmaqmaia-9EkF_6gDmGn-S70t7YdYRkjnmUWamVfua5Z78eFrLqDPlOlDBMe86FaOdGq-nS0?></g></svg>