<?plantuml 1.2026.1?><svg xmlns="http://www.w3.org/2000/svg" xmlns:xlink="http://www.w3.org/1999/xlink" contentStyleType="text/css" data-diagram-type="DESCRIPTION" height="655px" preserveAspectRatio="none" style="width:1082px;height:655px;background:#FFFFFF;" version="1.1" viewBox="0 0 1082 655" width="1082px" zoomAndPan="magnify"><title>Hermes System &#8212; Component Architecture</title><defs/><g><g class="title" data-source-line="2"><text fill="#000000" font-family="sans-serif" font-size="14" font-weight="bold" lengthAdjust="spacing" textLength="340.9355" x="363.5322" y="22.9951">Hermes System &#8212; Component Architecture</text></g><g class="legend" data-source-line="86"><rect fill="#DDDDDD" height="95.4844" rx="7.5" ry="7.5" style="stroke:#000000;stroke-width:1;" width="266.1221" x="400.939" y="49.2969"/><text fill="#000000" font-family="sans-serif" font-size="14" lengthAdjust="spacing" textLength="36.5518" x="410.3892" y="69.292">Color</text><text fill="#000000" font-family="sans-serif" font-size="14" lengthAdjust="spacing" textLength="81.2793" x="486.9858" y="69.292">Component</text><text fill="#000000" font-family="sans-serif" font-size="14" lengthAdjust="spacing" textLength="66.541" x="410.3892" y="85.5889">#2B579A</text><text fill="#000000" font-family="sans-serif" font-size="14" lengthAdjust="spacing" textLength="157.4521" x="486.9858" y="85.5889">Hermes System (Blue)</text><text fill="#000000" font-family="sans-serif" font-size="14" lengthAdjust="spacing" textLength="65.8711" x="410.3892" y="101.8857">#66B032</text><text fill="#000000" font-family="sans-serif" font-size="14" lengthAdjust="spacing" textLength="154.1846" x="486.9858" y="101.8857">Infrastructure (Green)</text><text fill="#000000" font-family="sans-serif" font-size="14" lengthAdjust="spacing" textLength="65.8711" x="410.3892" y="118.1826">#B22222</text><text fill="#000000" font-family="sans-serif" font-size="14" lengthAdjust="spacing" textLength="170.625" x="486.9858" y="118.1826">LLM Orchestration (Red)</text><text fill="#000000" font-family="sans-serif" font-size="14" lengthAdjust="spacing" textLength="67.6963" x="410.3892" y="134.4795">#F5EBDC</text><text fill="#000000" font-family="sans-serif" font-size="14" lengthAdjust="spacing" textLength="123.1973" x="486.9858" y="134.4795">LLM Cluster (Tan)</text><line style="stroke:#000000;stroke-width:1;" x1="405.939" x2="662.061" y1="56.2969" y2="56.2969"/><line style="stroke:#000000;stroke-width:1;" x1="405.939" x2="662.061" y1="72.5938" y2="72.5938"/><line style="stroke:#000000;stroke-width:1;" x1="405.939" x2="662.061" y1="88.8906" y2="88.8906"/><line style="stroke:#000000;stroke-width:1;" x1="405.939" x2="662.061" y1="105.1875" y2="105.1875"/><line style="stroke:#000000;stroke-width:1;" x1="405.939" x2="662.061" y1="121.4844" y2="121.4844"/><line style="stroke:#000000;stroke-width:1;" x1="405.939" x2="662.061" y1="137.7813" y2="137.7813"/><line style="stroke:#000000;stroke-width:1;" x1="405.939" x2="405.939" y1="56.2969" y2="137.7813"/><line style="stroke:#000000;stroke-width:1;" x1="482.5356" x2="482.5356" y1="56.2969" y2="137.7813"/><line style="stroke:#000000;stroke-width:1;" x1="662.061" x2="662.061" y1="56.2969" y2="137.7813"/></g><!--cluster Hermes System--><g class="cluster" data-qualified-name="Hermes System" data-source-line="52" id="ent0002"><path d="M8.5,163.7813 L133.2236,163.7813 A3.75,3.75 0 0 1 135.7236,166.2813 L142.7236,186.0781 L382.5,186.0781 A2.5,2.5 0 0 1 385,188.5781 L385,467.4712 A2.5,2.5 0 0 1 382.5,469.9712 L8.5,469.9712 A2.5,2.5 0 0 1 6,467.4712 L6,166.2813 A2.5,2.5 0 0 1 8.5,163.7813" fill="#2B579A" style="stroke:#000000;stroke-width:1.5;"/><line style="stroke:#000000;stroke-width:1.5;" x1="6" x2="142.7236" y1="186.0781" y2="186.0781"/><text fill="#FFFFFF" font-family="sans-serif" font-size="14" font-weight="bold" lengthAdjust="spacing" textLength="123.7236" x="10" y="178.7764">Hermes System</text><text fill="#FFFFFF" font-family="sans-serif" font-size="14" font-style="italic" lengthAdjust="spacing" textLength="48.1113" x="175.4443" y="201.0732">&#171;Blue&#187;</text></g><!--cluster Infrastructure Gateway--><g class="cluster" data-qualified-name="Infrastructure Gateway" data-source-line="58" id="ent0006"><path d="M411.5,340.3713 L596.8789,340.3713 A3.75,3.75 0 0 1 599.3789,342.8713 L606.3789,362.6681 L606.5,362.6681 A2.5,2.5 0 0 1 609,365.1681 L609,467.4712 A2.5,2.5 0 0 1 606.5,469.9712 L411.5,469.9712 A2.5,2.5 0 0 1 409,467.4712 L409,342.8713 A2.5,2.5 0 0 1 411.5,340.3713" fill="none" style="stroke:#000000;stroke-width:1.5;"/><line style="stroke:#000000;stroke-width:1.5;" x1="409" x2="606.3789" y1="362.6681" y2="362.6681"/><text fill="#000000" font-family="sans-serif" font-size="14" font-weight="bold" lengthAdjust="spacing" textLength="184.3789" x="413" y="355.3664">Infrastructure Gateway</text><text fill="#000000" font-family="sans-serif" font-size="14" font-style="italic" lengthAdjust="spacing" textLength="59.835" x="483.0825" y="377.6632">&#171;Green&#187;</text></g><!--cluster LLM Orchestration--><g class="cluster" data-qualified-name="LLM Orchestration" data-source-line="62" id="ent0008"><path d="M635.5,340.3713 L782.167,340.3713 A3.75,3.75 0 0 1 784.667,342.8713 L791.667,362.6681 L791.5,362.6681 A2.5,2.5 0 0 1 794,365.1681 L794,467.4712 A2.5,2.5 0 0 1 791.5,469.9712 L635.5,469.9712 A2.5,2.5 0 0 1 633,467.4712 L633,342.8713 A2.5,2.5 0 0 1 635.5,340.3713" fill="#B22222" style="stroke:#000000;stroke-width:1.5;"/><line style="stroke:#000000;stroke-width:1.5;" x1="633" x2="791.667" y1="362.6681" y2="362.6681"/><text fill="#FFFFFF" font-family="sans-serif" font-size="14" font-weight="bold" lengthAdjust="spacing" textLength="145.667" x="637" y="355.3664">LLM Orchestration</text><text fill="#FFFFFF" font-family="sans-serif" font-size="14" font-style="italic" lengthAdjust="spacing" textLength="44.3584" x="695.3208" y="377.6632">&#171;Red&#187;</text></g><!--cluster LLM Cluster--><g class="cluster" data-qualified-name="LLM Cluster" data-source-line="66" id="ent0010"><path d="M541.5,518.9712 L635.6123,518.9712 A3.75,3.75 0 0 1 638.1123,521.4712 L645.1123,541.2681 L1072.5,541.2681 A2.5,2.5 0 0 1 1075,543.7681 L1075,646.0613 A2.5,2.5 0 0 1 1072.5,648.5613 L541.5,648.5613 A2.5,2.5 0 0 1 539,646.0613 L539,521.4712 A2.5,2.5 0 0 1 541.5,518.9712" fill="#F5EBDC" style="stroke:#000000;stroke-width:1.5;"/><line style="stroke:#000000;stroke-width:1.5;" x1="539" x2="645.1123" y1="541.2681" y2="541.2681"/><text fill="#000000" font-family="sans-serif" font-size="14" font-weight="bold" lengthAdjust="spacing" textLength="93.1123" x="543" y="533.9664">LLM Cluster</text><text fill="#000000" font-family="sans-serif" font-size="14" font-style="italic" lengthAdjust="spacing" textLength="43.1348" x="789.4326" y="556.2632">&#171;Tan&#187;</text></g><!--entity Agent--><g class="entity" data-qualified-name="Hermes System.Agent" data-source-line="53" id="ent0003"><rect fill="#2B579A" height="62.5938" rx="4" ry="4" style="stroke:#000000;stroke-width:3;" width="138.2803" x="196.86" y="214.7813"/><rect fill="#2B579A" height="10" style="stroke:#000000;stroke-width:3;" width="15" x="315.1403" y="219.7813"/><rect fill="#2B579A" height="2" style="stroke:#000000;stroke-width:3;" width="4" x="313.1403" y="221.7813"/><rect fill="#2B579A" height="2" style="stroke:#000000;stroke-width:3;" width="4" x="313.1403" y="225.7813"/><text fill="#FFFFFF" font-family="sans-serif" font-size="14" font-style="italic" lengthAdjust="spacing" textLength="48.1113" x="236.9445" y="247.7764">&#171;Blue&#187;</text><text fill="#FFFFFF" font-family="sans-serif" font-size="14" lengthAdjust="spacing" textLength="98.2803" x="211.86" y="264.0732">hermes-agent</text></g><!--entity MCP--><g class="entity" data-qualified-name="Hermes System.MCP" data-source-line="54" id="ent0004"><rect fill="#2B579A" height="62.5938" rx="4" ry="4" style="stroke:#000000;stroke-width:3;" width="128.0605" x="21.97" y="391.3713"/><rect fill="#2B579A" height="10" style="stroke:#000000;stroke-width:3;" width="15" x="130.0305" y="396.3713"/><rect fill="#2B579A" height="2" style="stroke:#000000;stroke-width:3;" width="4" x="128.0305" y="398.3713"/><rect fill="#2B579A" height="2" style="stroke:#000000;stroke-width:3;" width="4" x="128.0305" y="402.3713"/><text fill="#FFFFFF" font-family="sans-serif" font-size="14" font-style="italic" lengthAdjust="spacing" textLength="48.1113" x="56.9446" y="424.3664">&#171;Blue&#187;</text><text fill="#FFFFFF" font-family="sans-serif" font-size="14" lengthAdjust="spacing" textLength="88.0605" x="36.97" y="440.6632">hermes-mcp</text></g><!--entity Dashboard--><g class="entity" data-qualified-name="Hermes System.Dashboard" data-source-line="55" id="ent0005"><rect fill="#2B579A" height="62.5938" rx="4" ry="4" style="stroke:#000000;stroke-width:3;" width="172.1455" x="184.93" y="391.3713"/><rect fill="#2B579A" height="10" style="stroke:#000000;stroke-width:3;" width="15" x="337.0755" y="396.3713"/><rect fill="#2B579A" height="2" style="stroke:#000000;stroke-width:3;" width="4" x="335.0755" y="398.3713"/><rect fill="#2B579A" height="2" style="stroke:#000000;stroke-width:3;" width="4" x="335.0755" y="402.3713"/><text fill="#FFFFFF" font-family="sans-serif" font-size="14" font-style="italic" lengthAdjust="spacing" textLength="48.1113" x="241.9471" y="424.3664">&#171;Blue&#187;</text><text fill="#FFFFFF" font-family="sans-serif" font-size="14" lengthAdjust="spacing" textLength="132.1455" x="199.93" y="440.6632">hermes-dashboard</text></g><!--entity Proxy--><g class="entity" data-qualified-name="Infrastructure Gateway.Proxy" data-source-line="59" id="ent0007"><rect fill="#66B032" height="62.5938" rx="4" ry="4" style="stroke:#000000;stroke-width:3;" width="127.4043" x="425.3" y="391.3713"/><rect fill="#66B032" height="10" style="stroke:#000000;stroke-width:3;" width="15" x="532.7043" y="396.3713"/><rect fill="#66B032" height="2" style="stroke:#000000;stroke-width:3;" width="4" x="530.7043" y="398.3713"/><rect fill="#66B032" height="2" style="stroke:#000000;stroke-width:3;" width="4" x="530.7043" y="402.3713"/><text fill="#000000" font-family="sans-serif" font-size="14" font-style="italic" lengthAdjust="spacing" textLength="59.835" x="454.0847" y="424.3664">&#171;Green&#187;</text><text fill="#000000" font-family="sans-serif" font-size="14" lengthAdjust="spacing" textLength="87.4043" x="440.3" y="440.6632">dockerproxy</text></g><!--entity Bifrost--><g class="entity" data-qualified-name="LLM Orchestration.Bifrost" data-source-line="63" id="ent0009"><rect fill="#B22222" height="62.5938" rx="4" ry="4" style="stroke:#000000;stroke-width:3;" width="86.3584" x="683.82" y="391.3713"/><rect fill="#B22222" height="10" style="stroke:#000000;stroke-width:3;" width="15" x="750.1784" y="396.3713"/><rect fill="#B22222" height="2" style="stroke:#000000;stroke-width:3;" width="4" x="748.1784" y="398.3713"/><rect fill="#B22222" height="2" style="stroke:#000000;stroke-width:3;" width="4" x="748.1784" y="402.3713"/><text fill="#FFFFFF" font-family="sans-serif" font-size="14" font-style="italic" lengthAdjust="spacing" textLength="44.3584" x="699.82" y="424.3664">&#171;Red&#187;</text><text fill="#FFFFFF" font-family="sans-serif" font-size="14" lengthAdjust="spacing" textLength="44.8096" x="699.5944" y="440.6632">bifrost</text></g><!--entity Ollama1--><g class="entity" data-qualified-name="LLM Cluster.Ollama1" data-source-line="67" id="ent0011"><rect fill="#F5EBDC" height="62.5938" rx="4" ry="4" style="stroke:#000000;stroke-width:3;" width="143.9404" x="555.03" y="569.9712"/><rect fill="#F5EBDC" height="10" style="stroke:#000000;stroke-width:3;" width="15" x="678.9704" y="574.9712"/><rect fill="#F5EBDC" height="2" style="stroke:#000000;stroke-width:3;" width="4" x="676.9704" y="576.9712"/><rect fill="#F5EBDC" height="2" style="stroke:#000000;stroke-width:3;" width="4" x="676.9704" y="580.9712"/><text fill="#000000" font-family="sans-serif" font-size="14" font-style="italic" lengthAdjust="spacing" textLength="43.1348" x="600.4328" y="602.9664">&#171;Tan&#187;</text><text fill="#000000" font-family="sans-serif" font-size="14" lengthAdjust="spacing" textLength="103.9404" x="570.03" y="619.2632">Ollama Node 1</text></g><!--entity Ollama2--><g class="entity" data-qualified-name="LLM Cluster.Ollama2" data-source-line="68" id="ent0012"><rect fill="#F5EBDC" height="62.5938" rx="4" ry="4" style="stroke:#000000;stroke-width:3;" width="143.9404" x="734.03" y="569.9712"/><rect fill="#F5EBDC" height="10" style="stroke:#000000;stroke-width:3;" width="15" x="857.9704" y="574.9712"/><rect fill="#F5EBDC" height="2" style="stroke:#000000;stroke-width:3;" width="4" x="855.9704" y="576.9712"/><rect fill="#F5EBDC" height="2" style="stroke:#000000;stroke-width:3;" width="4" x="855.9704" y="580.9712"/><text fill="#000000" font-family="sans-serif" font-size="14" font-style="italic" lengthAdjust="spacing" textLength="43.1348" x="779.4328" y="602.9664">&#171;Tan&#187;</text><text fill="#000000" font-family="sans-serif" font-size="14" lengthAdjust="spacing" textLength="103.9404" x="749.03" y="619.2632">Ollama Node 2</text></g><!--entity OllamaN--><g class="entity" data-qualified-name="LLM Cluster.OllamaN" data-source-line="69" id="ent0013"><rect fill="#F5EBDC" height="62.5938" rx="4" ry="4" style="stroke:#000000;stroke-width:3;" width="145.5059" x="913.25" y="569.9712"/><rect fill="#F5EBDC" height="10" style="stroke:#000000;stroke-width:3;" width="15" x="1038.7559" y="574.9712"/><rect fill="#F5EBDC" height="2" style="stroke:#000000;stroke-width:3;" width="4" x="1036.7559" y="576.9712"/><rect fill="#F5EBDC" height="2" style="stroke:#000000;stroke-width:3;" width="4" x="1036.7559" y="580.9712"/><text fill="#000000" font-family="sans-serif" font-size="14" font-style="italic" lengthAdjust="spacing" textLength="43.1348" x="959.4355" y="602.9664">&#171;Tan&#187;</text><text fill="#000000" font-family="sans-serif" font-size="14" lengthAdjust="spacing" textLength="105.5059" x="928.25" y="619.2632">Ollama Node N</text></g><!--entity Docker Socket--><g class="entity" data-qualified-name="Docker Socket" data-source-line="76" id="ent0017"><ellipse cx="462" cy="601.2613" fill="#F1F1F1" rx="8" ry="8" style="stroke:#181818;stroke-width:0.5;"/><text fill="#000000" font-family="sans-serif" font-size="14" lengthAdjust="spacing" textLength="101.3291" x="411.3354" y="631.2564">Docker Socket</text></g><g class="entity" data-qualified-name="GMN23" data-source-line="83" id="ent0024"><path d="M809.95,402.5413 L809.95,442.8069 L960.0423,442.8069 L960.0423,412.5413 L950.0423,402.5413 L809.95,402.5413" fill="#FEFFDD" style="stroke:#181818;stroke-width:0.5;"/><path d="M950.0423,402.5413 L950.0423,412.5413 L960.0423,412.5413 L950.0423,402.5413" fill="#FEFFDD" style="stroke:#181818;stroke-width:1;"/><text fill="#000000" font-family="sans-serif" font-size="13" lengthAdjust="spacing" textLength="129.0923" x="815.95" y="419.6081">Prevents full access</text><text fill="#000000" font-family="sans-serif" font-size="13" lengthAdjust="spacing" textLength="108.0371" x="815.95" y="434.741">to docker socket</text></g><g class="entity" data-qualified-name="GMN26" data-source-line="84" id="ent0027"><path d="M639.45,225.9412 L639.45,266.2069 A0,0 0 0 0 639.45,266.2069 L723,266.2069 L727,391.1013 L731,266.2069 L814.5584,266.2069 A0,0 0 0 0 814.5584,266.2069 L814.5584,235.9412 L804.5584,225.9412 L639.45,225.9412 A0,0 0 0 0 639.45,225.9412" fill="#FEFFDD" style="stroke:#181818;stroke-width:0.5;"/><path d="M804.5584,225.9412 L804.5584,235.9412 L814.5584,235.9412 L804.5584,225.9412" fill="#FEFFDD" style="stroke:#181818;stroke-width:0.5;"/><text fill="#000000" font-family="sans-serif" font-size="13" lengthAdjust="spacing" textLength="154.1084" x="645.45" y="243.0081">Load balances requests</text><text fill="#000000" font-family="sans-serif" font-size="13" lengthAdjust="spacing" textLength="97.9189" x="645.45" y="258.141">to Ollama farm</text></g><!--link Agent to MCP--><g class="link" data-entity-1="ent0003" data-entity-2="ent0004" data-link-type="dependency" data-source-line="73" id="lnk14"><path d="M196.51,255.8612 C162.94,263.7712 125.05,278.8013 102,307.3713 C83.19,330.6912 80.5806,359.7598 81.9206,384.8998" fill="none" id="Agent-to-MCP" style="stroke:#000000;stroke-width:2;"/><polygon fill="#000000" points="82.24,390.8912,85.7553,381.6911,81.9739,385.8983,77.7666,382.1169,82.24,390.8912" style="stroke:#000000;stroke-width:2;"/><text fill="#000000" font-family="sans-serif" font-size="13" lengthAdjust="spacing" textLength="134.9575" x="103" y="320.4381">local communication</text></g><!--link Agent to Dashboard--><g class="link" data-entity-1="ent0003" data-entity-2="ent0005" data-link-type="dependency" data-source-line="74" id="lnk15"><path d="M255,277.6713 C252.13,287.0712 249.44,297.5413 248,307.3713 C243.82,336.0112 249.5953,362.6249 257.1853,385.5649" fill="none" id="Agent-to-Dashboard" style="stroke:#000000;stroke-width:2;"/><polygon fill="#000000" points="259.07,391.2612,260.0405,381.4603,257.4994,386.5143,252.4454,383.9733,259.07,391.2612" style="stroke:#000000;stroke-width:2;"/><text fill="#000000" font-family="sans-serif" font-size="13" lengthAdjust="spacing" textLength="134.9575" x="249" y="320.4381">local communication</text></g><!--link Agent to Proxy--><g class="link" data-entity-1="ent0003" data-entity-2="ent0007" data-link-type="dependency" data-source-line="75" id="lnk16"><path d="M335.55,275.6713 C353.46,284.5513 372.14,295.2413 388,307.3713 C419.34,331.3513 444.79,361.3463 463.62,386.2363" fill="none" id="Agent-to-Proxy" style="stroke:#000000;stroke-width:2;"/><polygon fill="#000000" points="467.24,391.0212,465,381.4305,464.2234,387.0338,458.6201,386.2571,467.24,391.0212" style="stroke:#000000;stroke-width:2;"/><text fill="#000000" font-family="sans-serif" font-size="13" lengthAdjust="spacing" textLength="131.2886" x="408" y="320.4381">Docker API requests</text></g><!--link Proxy to Docker Socket--><g class="link" data-entity-1="ent0007" data-entity-2="ent0017" data-link-type="dependency" data-source-line="76" id="lnk18"><path d="M484.3,454.4313 C477.89,496.3312 467.7063,562.9101 464.0863,586.6001" fill="none" id="Proxy-to-Docker Socket" style="stroke:#000000;stroke-width:2;"/><polygon fill="#000000" points="463.18,592.5313,468.4936,584.2387,463.9353,587.5886,460.5854,583.0303,463.18,592.5313" style="stroke:#000000;stroke-width:2;"/><text fill="#000000" font-family="sans-serif" font-size="13" lengthAdjust="spacing" textLength="97.3286" x="479" y="499.0381">Filtered access</text></g><!--link Agent to Bifrost--><g class="link" data-entity-1="ent0003" data-entity-2="ent0009" data-link-type="dependency" data-source-line="78" id="lnk19"><path d="M335.57,254.9012 C393.93,263.1113 478.64,278.9113 548,307.3713 C599.85,328.6512 648.4211,361.3732 683.2411,387.3532" fill="none" id="Agent-to-Bifrost" style="stroke:#000000;stroke-width:2;"/><polygon fill="#000000" points="688.05,390.9412,683.2286,382.3532,684.0426,387.9512,678.4446,388.7651,688.05,390.9412" style="stroke:#000000;stroke-width:2;"/><text fill="#000000" font-family="sans-serif" font-size="13" lengthAdjust="spacing" textLength="89.9971" x="580" y="320.4381">LLM Requests</text></g><!--link Bifrost to Ollama1--><g class="link" data-entity-1="ent0009" data-entity-2="ent0011" data-link-type="dependency" data-source-line="79" id="lnk20"><path d="M709.58,454.4313 C691.28,486.7413 665.6259,532.0499 647.3459,564.3399" fill="none" id="Bifrost-to-Ollama1" style="stroke:#000000;stroke-width:2;"/><polygon fill="#000000" points="644.39,569.5613,652.3048,563.6998,646.8533,565.2101,645.343,559.7586,644.39,569.5613" style="stroke:#000000;stroke-width:2;"/></g><!--link Bifrost to Ollama2--><g class="link" data-entity-1="ent0009" data-entity-2="ent0012" data-link-type="dependency" data-source-line="80" id="lnk21"><path d="M740.76,454.4313 C755.22,486.7413 775.3706,531.794 789.8106,564.084" fill="none" id="Bifrost-to-Ollama2" style="stroke:#000000;stroke-width:2;"/><polygon fill="#000000" points="792.26,569.5613,792.2374,559.7124,790.2188,564.9969,784.9344,562.9783,792.26,569.5613" style="stroke:#000000;stroke-width:2;"/></g><!--link Bifrost to OllamaN--><g class="link" data-entity-1="ent0009" data-entity-2="ent0013" data-link-type="dependency" data-source-line="81" id="lnk22"><path d="M758.59,454.2212 C768.67,462.7913 780.28,471.5213 792,477.9712 C834.12,501.1413 853.84,486.1312 895,510.9712 C920.58,526.4113 940.5305,545.8832 957.4205,565.1132" fill="none" id="Bifrost-to-OllamaN" style="stroke:#000000;stroke-width:2;"/><polygon fill="#000000" points="961.38,569.6212,958.4461,560.2195,958.0804,565.8645,952.4354,565.4988,961.38,569.6212" style="stroke:#000000;stroke-width:2;"/></g><!--link Proxy to GMN23--><g class="link" data-entity-1="ent0007" data-entity-2="ent0024" data-link-type="association" data-source-line="83" id="lnk25"><path d="M527.43,390.9213 C565.05,362.0613 625.32,321.5313 685.5,304.8713 C721.05,295.0313 734.46,290.6613 768.5,304.8713 C816.01,324.7112 854.04,374.4012 872.62,402.4913" fill="none" id="Proxy-GMN23" style="stroke:#000000;stroke-width:2;stroke-dasharray:7,7;"/></g><?plantuml-src fLNTJjim5BxtKnnr5-ikAa4GR4C8gMbNXWIb0YvtOnA7MdNip7R664pQG-m9zoGxTfmqQLEc2TyaElw-x_pQjjmA1f-Ppfc1cqTZMGv_Vls6YSeB9PcqCDR9abkMs58pGjxYZb0Q5bGmQnbCMSObjrn9GyoAou9gcaFIi9y8u8gLJfckc6_s_6hPRvSyMKbc31nuwxKgPJfHMZ8D7yZFbYxLMZq4pMsrjKxKOQKiewMmvucID_m7W_qZbqSiIWQZZTIRjDlP53HPqNjsSk8efwTrJcYzrrMeFf8eFdp_SUptPahQO9tvrOcdgSuh5J69CysOn2pEPQQfiRgisjJhosDtEpiwYlSEeardeRpUsJLBqTN5nILSuKmmT4TTu_igXT3TdkB8hVyhr6i4CVHRAaFe4r5YftLVq0ZQxMDs-2cUJdQMfpVermYI41OCEXCwW8sXMH-rmT83HqYIjeMZ1iREj0EU9qKNV3bPx82cr2pl5DLfbp2jpPsmkoC9PzIo1_hecDr1RBb9LR9Ykj3gUmU7BXRErf7V6aF7Q4z9I_UEPrePkqQWObpPjZJ3V3XiktqjjIiXQ4vXhbAyIjOurAnszbyYH3s4w2N2l8Smhy-Zy9cR9IyCyJs6qUZKDH2EGQY42gUQbv8drKbTOvgU_HFfIu-egMyEZ1VdeDdN4kjkIBNdK8EmVUC-MEbZc761TSGhWoO9tica9HbgZo1NyUjQhJOxI5tARLlKOviJ8XM-HfhVBoseh0bweTatTvj3LWeH8laYhO9grC3uS2koLOMZje9JD8KxAgX4MfEqfuSEPLJdX0Y6cQMEZury3W_JS-i9VVRsS9tZN_VD6RgJzAu6LTSm_csSdw4_3GsiklBmR-iSm11dlC5Ljqp0XTc68SwJGs3KLUpaBm00?></g></svg>